<?xml version="1.0" encoding="UTF-8" standalone="no"?>
<svg
   width="52mm"
   height="63mm"
   viewBox="-1 -42 52 63"
   version="1.1"
   id="svg8398"
   sodipodi:docname="gears_1.5.svg"
   inkscape:version="1.1.2 (0a00cf5339, 2022-02-04)"
   xmlns:inkscape="http://www.inkscape.org/namespaces/inkscape"
   xmlns:sodipodi="http://sodipodi.sourceforge.net/DTD/sodipodi-0.dtd"
   xmlns="http://www.w3.org/2000/svg"
   xmlns:svg="http://www.w3.org/2000/svg">
  <defs
     id="defs8402" />
  <sodipodi:namedview
     id="namedview8400"
     pagecolor="#ffffff"
     bordercolor="#666666"
     borderopacity="1.0"
     inkscape:pageshadow="2"
     inkscape:pageopacity="0.0"
     inkscape:pagecheckerboard="0"
     inkscape:document-units="mm"
     showgrid="false"
     inkscape:zoom="2.872619"
     inkscape:cx="98.51637"
     inkscape:cy="112.96312"
     inkscape:window-width="1214"
     inkscape:window-height="960"
     inkscape:window-x="0"
     inkscape:window-y="0"
     inkscape:window-maximized="1"
     inkscape:current-layer="svg8398" />
  <title
     id="title8394">OpenSCAD Model</title>
  <circle
     style="fill:none;stroke:#ff0000;stroke-width:0.025;stroke-linecap:round;stroke-miterlimit:4;stroke-dasharray:none"
     id="path8683"
     cx="6.6266398"
     cy="-18.206551"
     r="1" />
  <circle
     style="fill:none;stroke:#ff0000;stroke-width:0.025;stroke-linecap:round;stroke-miterlimit:4;stroke-dasharray:none"
     id="path8683-8"
     cx="29.330799"
     cy="-22.598148"
     r="1" />
  <path
     d="m 49,0 0.0489,0.309016 0.1421,0.278769 0.2212,0.221231 0.2788,0.14204 L 50,1 50.309,0.951056 50.5878,0.809016 50.809,0.587785 50.9511,0.309016 51,0 50.9511,-0.309016 50.809,-0.587785 50.5878,-0.809016 50.309,-0.951056 50,-1 l -0.309,0.048944 -0.2788,0.14204 -0.2212,0.221231 -0.1421,0.278769 z"
     id="path8504"
     style="stroke:#ff0000;fill:none;stroke-width:0.025;stroke-miterlimit:4;stroke-dasharray:none" />
  <path
     d="m 26.071,19.3458 0.0489,0.309 0.1421,0.2788 0.2212,0.2212 0.2788,0.1421 0.309,0.0489 0.309,-0.0489 0.2788,-0.1421 0.2212,-0.2212 0.142,-0.2788 0.049,-0.309 -0.049,-0.309 -0.142,-0.2788 -0.2212,-0.2212 -0.2788,-0.1421 -0.309,-0.0489 -0.309,0.0489 -0.2788,0.1421 -0.2212,0.2212 -0.1421,0.2788 z"
     id="path8502"
     style="stroke:#ff0000;fill:none;stroke-width:0.025;stroke-miterlimit:4;stroke-dasharray:none" />
  <path
     d="m 31.8346,-22.2317 0.0053,-0.0323 0.016,-0.1582 0.0061,-0.1589 -0.0039,-0.1589 -0.0139,-0.1585 -0.0049,-0.0323 10e-4,0.0014 8.3261,-6.1994 0.296,0.5083 0.3562,0.7109 0.3108,0.7318 0.2643,0.7499 0.2167,0.7649 0.1682,0.7771 0.1191,0.7862 0.0695,0.792 0.0196,0.7948 -0.0303,0.7945 -0.0802,0.7911 -0.1297,0.7844 -0.1786,0.7748 -0.227,0.762 -0.2744,0.7462 -0.3206,0.7276 -0.3658,0.7059 -0.3028,0.5044 -8.2418,-6.3111 z"
     id="path8500"
     style="stroke:#ff0000;fill:none;stroke-width:0.025;stroke-miterlimit:4;stroke-dasharray:none" />
  <path
     d="m 26.4681,-34.9214 0.575,-0.1245 0.7861,-0.1191 0.792,-0.0695 0.7949,-0.0196 0.7945,0.0303 0.791,0.0802 0.7845,0.1297 0.7747,0.1786 0.762,0.227 0.7463,0.2743 0.7275,0.3207 0.706,0.3657 0.6816,0.4094 0.6546,0.4513 0.6249,0.4915 0.5929,0.5298 0.5584,0.566 0.386,0.4439 -8.549,5.8882 10e-4,0.0014 -0.029,-0.0151 -0.1455,-0.0641 -0.1493,-0.0549 -0.1524,-0.0454 -0.1549,-0.0357 -0.0323,-0.0053 0.0017,-5e-4 z"
     id="path8458"
     style="stroke:#ff0000;fill:none;stroke-width:0.025;stroke-miterlimit:4;stroke-dasharray:none" />
  <path
     d="m 26.3023,-10.3145 3.4554,-9.7886 -0.0016,-6e-4 0.0323,-0.0049 0.1554,-0.0336 0.153,-0.0434 0.15,-0.0528 0.1463,-0.0622 0.0292,-0.0146 -0.001,0.0014 8.4689,6.0028 -0.392,0.4386 -0.5659,0.5584 -0.6,0.5218 -0.6315,0.4831 -0.6606,0.4424 -0.687,0.4002 -0.7109,0.3561 -0.7318,0.3109 -0.7499,0.2643 -0.765,0.2166 -0.777,0.1682 -0.7862,0.1191 -0.792,0.06951 -0.7948,0.01962 -0.7946,-0.03033 -0.791,-0.0801 -0.7844,-0.1297 z"
     id="path8456"
     style="stroke:#ff0000;fill:none;stroke-width:0.025;stroke-miterlimit:4;stroke-dasharray:none" />
  <path
     d="m 16.726,-23.6837 0.0593,-0.5852 0.1297,-0.7845 0.1787,-0.7747 0.2269,-0.762 0.2744,-0.7463 0.3207,-0.7275 0.3657,-0.706 0.4093,-0.6816 0.4513,-0.6546 0.4916,-0.6249 0.5298,-0.5929 0.566,-0.5584 0.5999,-0.5218 0.6315,-0.483 0.6606,-0.4425 0.6871,-0.4001 0.7108,-0.3562 0.5415,-0.23 2.9582,9.9502 0.0016,-5e-4 -0.0233,0.0229 -0.1059,0.1186 -0.0983,0.125 -0.0903,0.1309 -0.0819,0.1363 -0.015,0.029 v -0.0017 z"
     id="path8454"
     style="stroke:#ff0000;fill:none;stroke-width:0.025;stroke-miterlimit:4;stroke-dasharray:none" />
  <path
     d="m 16.7125,-21.6825 10.3773,0.2613 10e-5,-0.0017 0.0146,0.0292 0.08,0.1375 0.0885,0.1321 0.0966,0.1263 0.1044,0.12 0.0229,0.0232 -0.0016,-5e-4 -3.092,9.9094 -0.5383,-0.2373 -0.706,-0.3657 -0.6816,-0.4093 -0.6546,-0.4514 -0.6249,-0.4915 -0.5928,-0.5298 -0.5585,-0.566 -0.5217,-0.5999 -0.4831,-0.6315 -0.4425,-0.6606 -0.4001,-0.6871 -0.3561,-0.7108 -0.3109,-0.7318 -0.2643,-0.7499 -0.2166,-0.765 -0.1683,-0.7771 -0.119,-0.7861 z"
     id="path8452"
     style="stroke:#ff0000;fill:none;stroke-width:0.025;stroke-miterlimit:4;stroke-dasharray:none" />
  <path
     d="m 10.6057,-21.1965 0.099,0.0967 0.1336,0.115 0.1405,0.1063 0.1469,0.0973 0.1527,0.0879 0.158,0.0781 0.1625,0.0681 0.1665,0.0577 0.1698,0.0472 0.1724,0.0363 0.1744,0.0255 0.1756,0.0145 0.1762,0.0035 0.176,-0.0076 0.1664,-0.0178 v 3e-4 l 0.6953,-0.094 10e-5,7e-4 0.0248,-0.004 0.056,-0.0055 0.0563,-0.0019 0.0562,0.0016 0.0561,0.0052 0.0556,0.0087 0.055,0.0121 0.0541,0.0156 0.053,0.0189 0.0517,0.0222 0.0502,0.0254 0.0485,0.0286 0.0467,0.0315 0.0445,0.0344 0.0423,0.0371 0.04,0.0397 0.0373,0.0421 0.0346,0.0444 0.0318,0.0465 0.0287,0.0483 0.0257,0.0501 0.0225,0.0516 0.0192,0.0529 0.0158,0.0541 0.0125,0.0549 0.0089,0.0555 0.0055,0.0561 0.0019,0.0562 -0.0017,0.0563 -0.0051,0.056 -0.0087,0.0556 -0.0121,0.055 -0.0156,0.0541 -0.0189,0.053 -0.0222,0.0517 -0.0254,0.0502 -0.0286,0.0486 -0.0315,0.0466 -0.0344,0.0446 -0.0371,0.0423 -0.0397,0.0399 -0.0421,0.0373 -0.0444,0.0346 -0.0465,0.0318 -0.0484,0.0288 -0.05,0.0257 -0.0516,0.0224 -0.053,0.0192 -0.054,0.0159 -0.0287,0.0065 2e-4,7e-4 -0.676,0.171 10e-5,3e-4 -0.161,0.0456 -0.1662,0.0586 -0.1622,0.0688 -0.1575,0.079 -0.1523,0.0887 -0.1464,0.098 -0.1399,0.1071 -0.133,0.1156 -0.1255,0.1238 -0.1174,0.1314 -0.1089,0.1385 -0.1,0.1451 -0.0908,0.151 -0.081,0.1565 -0.0559,0.1267 0.1187,0.0713 0.1565,0.081 0.1613,0.0711 0.1654,0.0608 0.1688,0.0503 0.1717,0.0396 0.1739,0.0288 0.1753,0.0177 0.1761,0.0067 0.1762,-0.0043 0.1755,-0.0154 0.1742,-0.0264 0.1723,-0.0373 0.1695,-0.048 0.1578,-0.0556 10e-5,2e-4 0.6508,-0.2502 3e-4,7e-4 0.0272,-0.0112 0.0532,-0.0183 0.0543,-0.0148 0.0552,-0.0114 0.0557,-0.0079 0.0561,-0.0044 0.0563,-9e-4 0.0562,0.0027 0.056,0.0062 0.0554,0.0097 0.0547,0.0132 0.0538,0.0165 0.0527,0.0199 0.0513,0.0232 0.0497,0.0264 0.048,0.0294 0.046,0.0324 0.0439,0.0352 0.0417,0.0379 0.0391,0.0404 0.0366,0.0428 0.0337,0.0451 0.0309,0.047 0.0279,0.0489 0.0248,0.0506 0.0215,0.052 0.0182,0.0532 0.0148,0.0543 0.0114,0.0552 0.0079,0.0557 0.0044,0.0561 9e-4,0.0563 -0.0027,0.0562 -0.0062,0.056 -0.0097,0.0554 -0.0131,0.0547 -0.0166,0.0538 -0.0199,0.0527 -0.0232,0.0513 -0.0263,0.0497 -0.0295,0.048 -0.0324,0.046 -0.0352,0.044 -0.0379,0.0416 -0.0404,0.0391 -0.0428,0.0366 -0.045,0.0338 -0.0471,0.0308 -0.0489,0.0279 -0.0225,0.0111 2e-4,5e-4 -0.6221,0.3243 1e-4,3e-4 -0.1461,0.0814 -0.1482,0.0954 -0.1419,0.1044 -0.1351,0.1131 -0.1277,0.1214 -0.1199,0.1292 -0.1115,0.1365 -0.1027,0.1432 -0.0935,0.1493 -0.084,0.155 -0.074,0.1598 -0.0639,0.1643 -0.0534,0.1679 -0.0428,0.1709 -0.0252,0.1362 0.132,0.042 0.1709,0.0428 0.1733,0.032 0.175,0.021 0.1759,0.01 0.1762,-0.0011 0.1758,-0.0121 0.1747,-0.0232 0.1729,-0.034 0.1704,-0.0449 0.1673,-0.0555 0.1634,-0.0658 0.159,-0.076 0.1539,-0.0858 0.1407,-0.0905 10e-5,2e-4 0.5803,-0.3968 3e-4,6e-4 0.0193,-0.014 0.0477,-0.03 0.0494,-0.027 0.051,-0.0238 0.0524,-0.0205 0.0536,-0.0172 0.0545,-0.0139 0.0554,-0.0103 0.0558,-0.0069 0.0562,-0.0033 0.0563,10e-5 0.0562,0.0038 0.0558,0.0072 0.0552,0.0107 0.0545,0.0142 0.0535,0.0176 0.0523,0.0209 0.0508,0.0241 0.0493,0.0273 0.0474,0.0303 0.0454,0.0332 0.0433,0.036 0.0409,0.0387 0.0384,0.0411 0.0357,0.0435 0.0329,0.0457 0.0301,0.0476 0.0269,0.0494 0.0238,0.051 0.0206,0.0524 0.0172,0.0536 0.0138,0.0546 0.0104,0.0553 0.0068,0.0559 0.0034,0.0562 -2e-4,0.0563 -0.0037,0.0561 -0.0072,0.0558 -0.0108,0.0553 -0.0141,0.0545 -0.0176,0.0534 -0.0209,0.0523 -0.0241,0.0509 -0.0273,0.0492 -0.0303,0.0474 -0.0333,0.0455 -0.036,0.0432 -0.0386,0.0409 -0.0412,0.0384 -0.0179,0.0147 4e-4,5e-4 -0.5321,0.4603 2e-4,2e-4 -0.1234,0.113 -0.1222,0.1269 -0.114,0.1344 -0.1054,0.1412 -0.0963,0.1476 -0.0868,0.1533 -0.077,0.1585 -0.0669,0.163 -0.0566,0.1669 -0.046,0.1701 -0.0351,0.1727 -0.0243,0.17453 -0.0133,0.17572 -0.0022,0.1762 0.0069,0.13829 0.1381,0.01043 0.1762,0.00221 0.176,-0.00885 0.1751,-0.01989 0.1735,-0.03084 0.1712,-0.04168 0.1683,-0.05235 0.1646,-0.0628 0.1604,-0.07302 0.1555,-0.08295 0.1499,-0.09254 0.1439,-0.10176 0.1371,-0.1106 0.13,-0.119 0.116,-0.1205 2e-4,10e-5 0.4732,-0.5199 4e-4,4e-4 0.0156,-0.0179 0.0394,-0.0402 0.0418,-0.0376 0.0442,-0.035 0.0462,-0.032 0.0482,-0.0292 0.0499,-0.026 0.0515,-0.0228 0.0527,-0.0196 0.0539,-0.0162 0.0548,-0.0128 0.0556,-0.0094 0.0559,-0.0058 0.0563,-0.0023 0.0563,0.0012 0.056,0.0048 0.0557,0.0083 0.0551,0.0117 0.0542,0.0152 0.0531,0.0186 0.0519,0.0218 0.0504,0.0251 0.0487,0.0282 0.0468,0.0312 0.0449,0.0341 0.0425,0.0368 0.0402,0.0394 0.0376,0.0419 0.035,0.0441 0.032,0.0463 0.0292,0.0481 0.026,0.0499 0.0228,0.0515 0.0196,0.0527 0.0162,0.0539 0.0128,0.0549 0.0094,0.0555 0.0058,0.056 0.0023,0.0562 -0.0012,0.0563 -0.0048,0.0561 -0.0083,0.0556 -0.0117,0.0551 -0.0152,0.0542 -0.0186,0.0531 -0.0218,0.05189 -0.0251,0.0504 -0.0282,0.04872 -0.0312,0.04685 -0.0161,0.02124 5e-4,4e-4 -0.4095,0.56777 2e-4,1.4e-4 -0.094,0.13839 -0.0896,0.1517 -0.08,0.15702 -0.0699,0.16174 -0.0597,0.16581 -0.0491,0.16923 -0.0384,0.17198 -0.0275,0.17405 -0.0166,0.17544 -0.0055,0.17613 0.0056,0.17613 0.0166,0.17542 0.0276,0.17404 0.0385,0.17196 0.0387,0.13297 0.1367,-0.0217 0.172,-0.03848 0.1692,-0.0492 0.1658,-0.05974 0.1617,-0.07002 0.157,-0.08004 0.1516,-0.08973 0.1458,-0.09909 0.1392,-0.10803 0.1321,-0.11657 0.1246,-0.12463 0.1165,-0.13221 0.108,-0.13926 0.099,-0.14577 0.0851,-0.14402 2e-4,1.4e-4 0.3379,-0.61032 7e-4,3.5e-4 0.0134,-0.02582 0.0291,-0.04819 0.0321,-0.04626 0.0349,-0.04416 0.0376,-0.04189 0.0401,-0.03944 0.0426,-0.03684 0.0448,-0.03409 0.0468,-0.03121 0.0487,-0.02822 0.0504,-0.0251 0.0519,-0.02188 0.0531,-0.01859 0.0542,-0.01521 0.055,-0.01178 0.0557,-0.0083 0.0561,-0.00479 0.0563,-0.00126 0.0562,0.00228 0.056,0.0058 0.0555,0.00931 0.0548,0.01278 0.0539,0.01619 0.0528,0.01955 0.0515,0.02282 0.0499,0.02601 0.0482,0.02909 0.0462,0.03206 0.0442,0.0349 0.0419,0.0376 0.0394,0.04016 0.0369,0.04256 0.0341,0.04479 0.0312,0.04684 0.0282,0.04871 0.0251,0.05038 0.0219,0.05186 0.0186,0.05313 0.0152,0.05419 0.0118,0.05504 0.0083,0.05568 0.0047,0.05608 0.0013,0.05627 -0.0023,0.05625 -0.0058,0.05598 -0.0093,0.05552 -0.0128,0.05482 -0.0162,0.0539 -0.0195,0.05279 -0.0111,0.02492 7e-4,2.8e-4 -0.2673,0.64636 2e-4,8e-5 -0.0595,0.15634 -0.0523,0.16829 -0.0416,0.17123 -0.0308,0.17351 -0.0198,0.1751 -0.0087,0.17599 0.0023,0.1762 0.0133,0.17571 0.0244,0.17452 0.0353,0.17265 0.046,0.17009 0.0566,0.16687 0.067,0.16298 0.0771,0.15845 0.0683,0.12046 0.1281,-0.05265 0.1585,-0.0771 0.1532,-0.0869 0.1476,-0.09635 0.1412,-0.10543 0.1343,-0.11408 0.1269,-0.12229 0.1189,-0.13002 0.1105,-0.13723 0.1017,-0.1439 0.0925,-0.15 0.0829,-0.15551 0.0729,-0.16041 0.0628,-0.16467 0.0496,-0.15977 2e-4,8e-5 0.1891,-0.67549 6e-4,1.9e-4 0.0062,-0.02452 0.0172,-0.0536 0.0205,-0.05241 0.0238,-0.05102 0.0269,-0.04943 0.03,-0.04764 0.0329,-0.04566 0.0357,-0.0435 0.0384,-0.04118 0.0409,-0.03868 0.0433,-0.03604 0.0454,-0.03326 0.0474,-0.03034 0.0492,-0.0273 0.0508,-0.02415 0.0523,-0.02092 0.0535,-0.01759 0.0544,-0.01421 0.0553,-0.01075 0.0558,-0.00726 0.0562,-0.00375 0.0563,-2.1e-4 0.0561,0.00333 0.0559,0.00684 0.0553,0.01034 0.0546,0.0138 0.0536,0.01719 0.0524,0.02053 0.051,0.02377 0.0495,0.02694 0.0476,0.02998 0.0457,0.03291 0.0435,0.03572 0.0412,0.03838 0.0386,0.04089 0.0361,0.04323 0.0332,0.04542 0.0304,0.04741 0.0273,0.04922 0.0241,0.05085 0.0209,0.05225 0.0176,0.05347 0.0142,0.05447 0.0108,0.05525 0.0073,0.05582 0.0037,0.05616 2e-4,0.05629 -0.0033,0.05619 -0.0069,0.05587 -0.0042,0.02285 6e-4,1e-4 -0.1117,0.69455 2e-4,3e-5 -0.0219,0.16586 -0.012,0.1758 -0.001,0.17621 0.0101,0.17593 0.0211,0.17494 0.0321,0.17328 0.0428,0.17092 0.0535,0.16789 0.064,0.1642 0.0741,0.15985 0.0841,0.15489 0.0936,0.14931 0.1027,0.14313 0.1116,0.1364 0.0942,0.10147 0.1125,-0.08076 0.1364,-0.11157 0.1291,-0.11991 0.1214,-0.12778 0.113,-0.13514 0.1044,-0.14199 0.0953,-0.14825 0.0857,-0.15394 0.0759,-0.15903 0.0658,-0.16347 0.0554,-0.16728 0.0448,-0.17044 0.034,-0.1729 0.023,-0.1747 0.0115,-0.16691 2e-4,3e-5 0.0283,-0.70303 6e-4,3e-5 3e-4,-0.02314 0.0044,-0.05611 0.0079,-0.05574 0.0113,-0.05512 0.0149,-0.05431 0.0181,-0.05327 0.0215,-0.05202 0.0248,-0.05057 0.0278,-0.04891 0.0309,-0.04708 0.0337,-0.04504 0.0366,-0.04283 0.0391,-0.04045 0.0416,-0.03792 0.0439,-0.03523 0.046,-0.0324 0.048,-0.02945 0.0497,-0.02638 0.0513,-0.02321 0.0526,-0.01994 0.0538,-0.01659 0.0547,-0.01319 0.0555,-0.00972 0.0559,-0.00623 0.0562,-0.00269 0.0563,8.3e-4 0.0561,0.00437 0.0558,0.00789 0.0551,0.01137 0.0543,0.01481 0.0533,0.01818 0.052,0.0215 0.0506,0.02472 0.0489,0.02785 0.0471,0.03087 0.045,0.03376 0.0428,0.03652 0.0405,0.03913 0.0379,0.0416 0.0352,0.0439 0.0324,0.04603 0.0295,0.04797 0.0264,0.04972 0.0232,0.05129 0.0199,0.05263 0.0166,0.05379 0.0132,0.05472 0.0097,0.05544 0.0062,0.05595 0.0012,0.02469 7e-4,-6e-5 0.0513,0.70014 3e-4,-4e-5 0.017,0.16644 0.0288,0.17384 0.0397,0.17169 0.0503,0.16886 0.0609,0.16536 0.0712,0.16121 0.0811,0.15643 0.0908,0.15102 0.1001,0.14502 0.109,0.13845 0.1175,0.13134 0.1255,0.1237 0.133,0.11557 0.14,0.107 0.1151,0.077 0.0908,-0.10453 0.107,-0.14001 0.098,-0.14646 0.0886,-0.15232 0.0789,-0.15758 0.0688,-0.16222 0.0585,-0.16622 0.0479,-0.16957 0.0372,-0.17225 0.0263,-0.17424 0.0153,-0.17554 0.0043,-0.17617 -0.0068,-0.17608 -0.0179,-0.17531 -0.0273,-0.16504 2e-4,-3e-5 -0.134,-0.68732 7e-4,-1.5e-4 -0.0057,-0.02583 -0.0087,-0.05562 -0.0052,-0.05605 -0.0016,-0.05626 0.0019,-0.05626 0.0054,-0.05602 0.0089,-0.05558 0.0124,-0.05491 0.0158,-0.05402 0.0192,-0.05292 0.0225,-0.05161 0.0256,-0.0501 0.0288,-0.04839 0.0317,-0.04649 0.0346,-0.0444 0.0373,-0.04215 0.0399,-0.03971 0.0423,-0.03714 0.0445,-0.03441 0.0467,-0.03154 0.0485,-0.02855 0.0502,-0.02545 0.0517,-0.02225 0.053,-0.01895 0.0541,-0.0156 0.0549,-0.01216 0.0556,-0.00869 0.0561,-0.00518 0.0562,-0.00165 0.0563,0.00189 0.056,0.00541 0.0556,0.00892 0.0549,0.01239 0.054,0.01582 0.053,0.01918 0.0516,0.02246 0.0501,0.02566 0.0484,0.02875 0.0464,0.03174 0.0444,0.03459 0.0422,0.03731 0.0397,0.03989 0.0371,0.04229 0.0345,0.04455 0.0315,0.04662 0.0285,0.04851 0.0255,0.05021 0.0222,0.0517 0.019,0.053 0.0084,0.02899 7e-4,-2.1e-4 0.2098,0.66419 3e-4,-9e-5 0.0548,0.15804 0.0682,0.16251 0.0782,0.1579 0.0879,0.15269 0.0974,0.14686 0.1064,0.14046 0.1151,0.1335 0.1231,0.12601 0.1309,0.11804 0.138,0.10958 0.1446,0.1007 0.1506,0.09142 0.1561,0.08178 0.1609,0.07182 0.1298,0.04839 0.0642,-0.12265 0.0718,-0.16092 0.0616,-0.1651 0.0511,-0.16865 0.0404,-0.17152 0.0296,-0.17372 0.0185,-0.17523 0.0076,-0.17605 -0.0036,-0.17618 -0.0145,-0.17561 -0.0256,-0.17435 -0.0365,-0.1724 -0.0472,-0.16977 -0.0578,-0.16646 -0.0647,-0.15429 2e-4,-9e-5 -0.2884,-0.63696 6e-4,-2.8e-4 -0.012,-0.02477 -0.0212,-0.05211 -0.018,-0.05334 -0.0146,-0.05437 -0.0111,-0.05517 -0.0077,-0.05577 -0.0041,-0.05613 -6e-4,-0.05629 0.0029,-0.05621 0.0065,-0.05592 0.0099,-0.0554 0.0134,-0.05466 0.0169,-0.05372 0.0201,-0.05255 0.0234,-0.05119 0.0266,-0.04961 0.0297,-0.04785 0.0326,-0.04589 0.0354,-0.04375 0.0381,-0.04144 0.0406,-0.03897 0.043,-0.03634 0.0452,-0.03358 0.0472,-0.03066 0.049,-0.02765 0.0507,-0.02451 0.0521,-0.02128 0.0533,-0.01797 0.0544,-0.01458 0.0551,-0.01114 0.0558,-0.00765 0.0562,-0.00414 0.0562,-6e-4 0.0562,0.00293 0.056,0.00646 0.0554,0.00995 0.0546,0.01342 0.0537,0.01682 0.0526,0.02015 0.0512,0.02342 0.0496,0.02659 0.0478,0.02965 0.0459,0.0326 0.0438,0.03541 0.0414,0.03809 0.039,0.04061 0.0363,0.04299 0.0336,0.04518 0.0307,0.0472 0.0118,0.021 6e-4,-3.2e-4 0.3604,0.60312 2e-4,-1.5e-4 0.0899,0.14113 0.1037,0.14241 0.1126,0.13562 0.1208,0.12829 0.1286,0.12044 0.1359,0.11214 0.1427,0.10337 0.1489,0.09421 0.1546,0.08468 0.1595,0.0748 0.164,0.06464 0.1676,0.05422 0.1708,0.04358 0.1731,0.03277 0.1374,0.01717 0.0343,-0.13417 0.0327,-0.17314 0.0219,-0.17486 0.0108,-0.17588 -3e-4,-0.17621 -0.0113,-0.17586 -0.0223,-0.17479 -0.0333,-0.17305 -0.044,-0.17061 -0.0547,-0.16751 -0.0651,-0.16375 -0.0753,-0.15934 -0.0851,-0.1543 -0.0946,-0.14865 -0.0985,-0.13521 2e-4,-1.4e-4 -0.4302,-0.55656 5e-4,-4e-4 -0.0147,-0.0181 -0.0327,-0.0458 -0.0298,-0.0477 -0.0267,-0.0496 -0.0236,-0.0511 -0.0203,-0.0525 -0.017,-0.0537 -0.0135,-0.0546 -0.0101,-0.0554 -0.0067,-0.0559 -0.0031,-0.0562 5e-4,-0.0562 0.004,-0.0562 0.0075,-0.0558 0.0109,-0.0552 0.0145,-0.0544 0.0178,-0.0534 0.0211,-0.0522 0.0244,-0.0507 0.0275,-0.0491 0.0305,-0.0473 0.0335,-0.0453 0.0362,-0.0431 0.0389,-0.0407 0.0413,-0.0382 0.0436,-0.0355 0.0458,-0.0327 0.0478,-0.0298 0.0495,-0.0268 0.0512,-0.0235 0.0525,-0.0203 0.0536,-0.017 0.0547,-0.0136 0.0553,-0.0101 0.0559,-0.0066 0.0562,-0.0031 0.0563,5e-4 0.0562,0.0039 0.0558,0.0075 0.0552,0.011 0.0544,0.0145 0.0534,0.0178 0.0521,0.0211 0.0508,0.0244 0.0491,0.0275 0.0473,0.0305 0.0452,0.0335 0.0431,0.0362 0.0408,0.0388 0.0159,0.0173 5e-4,-4e-4 0.4902,0.5041 2e-4,-2e-4 0.1199,0.1167 0.1338,0.1146 0.1408,0.106 0.1471,0.097 0.153,0.0875 0.1581,0.0778 0.1627,0.0677 0.1666,0.0573 0.1699,0.04673 0.1725,0.036 0.1744,0.02509 0.1757,0.01409 0.1762,0.00303 0.176,-0.00804 0.1377,-0.01498 0.0024,-0.13842 -0.0081,-0.1761 -0.0191,-0.1751 -0.03,-0.1737 -0.0409,-0.1714 -0.0515,-0.1685 -0.0621,-0.1649 -0.0722,-0.1607 -0.0823,-0.1559 -0.0918,-0.1504 -0.1011,-0.1443 -0.11,-0.1377 -0.1184,-0.1305 -0.1264,-0.1228 -0.127,-0.1089 2e-4,-1e-4 -0.5459,-0.4416 4e-4,-5e-4 -0.0195,-0.015 -0.0424,-0.037 -0.04,-0.0396 -0.0375,-0.0421 -0.0347,-0.0443 -0.0318,-0.0464 -0.0289,-0.0483 -0.0258,-0.05 -0.0226,-0.0516 -0.0194,-0.0528 -0.0159,-0.054 -0.0126,-0.0549 -0.0091,-0.0555 -0.0055,-0.056 -0.0021,-0.0563 0.0015,-0.0562 0.005,-0.0561 0.0086,-0.0556 0.012,-0.055 0.0154,-0.0542 0.0188,-0.053 0.0221,-0.0518 0.0253,-0.0503 0.0285,-0.0486 0.0314,-0.0467 0.0342,-0.0446 0.0371,-0.0424 0.0396,-0.04 0.042,-0.0374 0.0443,-0.0348 0.0464,-0.0318 0.0483,-0.0289 0.05,-0.0258 0.0516,-0.0226 0.0529,-0.0193 0.0539,-0.016 0.0549,-0.0126 0.0556,-0.009 0.056,-0.0056 0.0562,-0.0021 0.0563,0.0015 0.0561,0.0051 0.0556,0.0085 0.055,0.012 0.0541,0.0154 0.0531,0.0188 0.0517,0.0222 0.0503,0.0253 0.0486,0.0284 0.0236,0.0158 4e-4,-6e-4 0.5891,0.3749 2e-4,-2e-4 0.1436,0.0858 0.1566,0.0807 0.1614,0.0707 0.1656,0.0604 0.169,0.0499 0.1718,0.0392 0.1739,0.0283 0.1754,0.0174 0.1761,0.0063 0.1761,-0.0048 0.1755,-0.0158 0.1742,-0.0268 0.1721,-0.0377 0.1694,-0.0484 0.1305,-0.0463 -0.0296,-0.1353 -0.0484,-0.1694 -0.059,-0.1661 -0.0692,-0.162 -0.0793,-0.1574 -0.0891,-0.152 -0.0984,-0.1462 -0.1073,-0.1397 -0.116,-0.1327 -0.124,-0.1252 -0.1317,-0.1171 -0.1388,-0.1086 -0.1453,-0.0997 -0.1513,-0.0903 -0.1487,-0.0767 1e-4,-2e-4 -0.6277,-0.3012 4e-4,-7e-4 -0.0278,-0.0125 -0.0498,-0.0263 -0.0481,-0.0293 -0.0461,-0.0322 -0.044,-0.0351 -0.0417,-0.0378 -0.0393,-0.0404 -0.0366,-0.0427 -0.0339,-0.045 -0.031,-0.047 -0.028,-0.0488 -0.0248,-0.0505 -0.0217,-0.0519 -0.0183,-0.0533 -0.015,-0.0542 -0.0115,-0.0551 -0.008,-0.0557 -0.0046,-0.0561 -0.001,-0.0563 0.0026,-0.0562 0.006,-0.056 0.0096,-0.0555 0.013,-0.0547 0.0165,-0.0539 0.0198,-0.0527 0.023,-0.0513 0.0263,-0.0498 0.0293,-0.0481 0.0323,-0.0461 0.0351,-0.044 0.0378,-0.0417 0.0403,-0.0392 0.0427,-0.0367 0.045,-0.0339 0.047,-0.031 0.0488,-0.0279 0.0505,-0.0249 0.052,-0.0217 0.0532,-0.0183 0.0543,-0.015 0.055,-0.0115 0.0558,-0.008 0.0561,-0.0045 0.0562,-0.001 0.0563,0.0025 0.0559,0.0061 0.0555,0.0095 0.0548,0.0131 0.0538,0.0164 0.0241,0.0091 2e-4,-7e-4 0.6623,0.2298 v -2e-4 l 0.1596,0.0503 0.171,0.0424 0.1734,0.0316 0.175,0.0206 0.1759,0.0096 0.1762,-0.0015 0.1758,-0.0125 0.1746,-0.0236 0.1729,-0.0344 0.1703,-0.0453 0.1671,-0.0559 0.1633,-0.0662 0.1588,-0.0764 0.1537,-0.0861 0.1163,-0.0752 -0.06,-0.1248 -0.0862,-0.1537 -0.0957,-0.148 -0.1048,-0.1417 -0.1134,-0.1348 -0.1217,-0.1275 -0.1295,-0.1195 -0.1367,-0.1112 -0.1434,-0.1024 -0.1496,-0.0931 -0.1551,-0.0836 -0.1601,-0.0737 -0.1644,-0.0635 -0.168,-0.053 -0.1624,-0.0403 10e-5,-2e-4 -0.6864,-0.1497 2e-4,-6e-4 -0.0238,-0.0046 -0.0545,-0.014 -0.0536,-0.0175 -0.0523,-0.0208 -0.0509,-0.024 -0.0493,-0.0271 -0.0475,-0.0302 -0.0455,-0.0332 -0.0433,-0.0359 -0.041,-0.0386 -0.0385,-0.041 -0.0359,-0.0434 -0.033,-0.0456 -0.0301,-0.0475 -0.0271,-0.0494 -0.0239,-0.051 -0.0207,-0.0523 -0.0173,-0.0536 -0.014,-0.0545 -0.0105,-0.0553 -0.007,-0.0558 -0.0035,-0.0562 1e-4,-0.0563 0.0036,-0.0562 0.0071,-0.0558 0.0106,-0.0553 0.014,-0.0545 0.0175,-0.0535 0.0207,-0.0523 0.0241,-0.0509 0.0271,-0.0493 0.0302,-0.0475 0.0331,-0.0456 0.036,-0.0433 0.0385,-0.041 0.0411,-0.0385 0.0434,-0.0358 0.0456,-0.0331 0.0475,-0.0301 0.0494,-0.0271 0.0509,-0.0239 0.0524,-0.0206 0.0535,-0.0174 0.0546,-0.0139 0.0553,-0.0105 0.0558,-0.007 0.0562,-0.0035 h 0.0563 l 0.0562,0.0036 0.0229,0.0029 v -6e-4 l 0.7001,0.0712 v -3e-4 l 0.1668,0.0122 0.1762,0.0018 0.176,-0.0092 0.175,-0.0203 0.1735,-0.0313 0.1711,-0.0421 0.1681,-0.0527 0.1645,-0.0632 0.1602,-0.0734 0.1553,-0.0833 0.1497,-0.0929 0.1436,-0.1021 0.137,-0.1109 0.1296,-0.1193 0.0959,-0.1 -0.0872,-0.1076 -0.1193,-0.1297 -0.1272,-0.1219 -0.1346,-0.1137 -0.1415,-0.105 -0.1478,-0.096 -0.1536,-0.0864 -0.1587,-0.0767 -0.1631,-0.0665 -0.1671,-0.0562 -0.1702,-0.0456 -0.1727,-0.0347 -0.1746,-0.0239 -0.1758,-0.0129 -0.1672,-0.0017 v -3e-4 l -0.7032,0.0127 v -6e-4 l -0.0234,10e-4 -0.0563,-0.0011 -0.0561,-0.0046 -0.0557,-0.0082 -0.0551,-0.0116 -0.0542,-0.0151 -0.0532,-0.0184 -0.0519,-0.0217 -0.0505,-0.025 -0.0488,-0.0281 -0.0469,-0.0311 -0.0449,-0.0339 -0.0426,-0.0367 -0.0403,-0.0394 -0.0377,-0.0417 -0.035,-0.0441 -0.0322,-0.0462 -0.0293,-0.0481 -0.0261,-0.0498 -0.023,-0.0514 -0.0197,-0.0528 -0.0163,-0.0538 -0.0129,-0.0548 -0.0095,-0.0555 -0.006,-0.056 -0.0024,-0.0562 0.0011,-0.0563 0.0046,-0.0561 0.0082,-0.0557 0.0116,-0.055 0.015,-0.0543 0.0185,-0.0532 0.0217,-0.0519 0.025,-0.0504 0.0281,-0.0488 0.031,-0.0469 0.034,-0.0449 0.0367,-0.0427 0.0394,-0.0403 0.0417,-0.0377 0.0441,-0.035 0.0462,-0.0322 0.0481,-0.0292 0.0498,-0.0262 0.0514,-0.0229 0.0527,-0.0197 0.0539,-0.0164 0.0548,-0.0129 0.0555,-0.0095 0.0258,-0.0027 -10e-5,-7e-4 0.6947,-0.0918 v -3e-4 l 0.1651,-0.0266 0.1719,-0.0389 0.1691,-0.0496 0.1656,-0.0601 0.1616,-0.0704 0.1568,-0.0804 0.1514,-0.0901 0.1455,-0.0994 0.139,-0.1083 0.1319,-0.1169 0.1242,-0.1249 0.1162,-0.1325 0.1077,-0.1395 0.0987,-0.146 0.0701,-0.1194 -0.1096,-0.0846 -0.146,-0.0987 -0.1519,-0.0893 -0.1572,-0.0796 -0.1619,-0.0695 -0.166,-0.0593 -0.1693,-0.0487 -0.1721,-0.038 -0.1741,-0.0271 -0.1755,-0.0162 -0.1761,-0.0051 -0.1761,0.006 -0.1754,0.0171 -0.174,0.028 -0.1632,0.0369 v -3e-4 l -0.6767,0.1733 -2e-4,-7e-4 -0.0271,0.0077 -0.055,0.0119 -0.0557,0.0084 -0.0561,0.005 -0.0562,0.0014 -0.0563,-0.0022 -0.056,-0.0057 -0.0555,-0.0091 -0.0549,-0.0127 -0.0539,-0.0161 -0.0528,-0.0194 -0.0515,-0.0227 -0.05,-0.0259 -0.0483,-0.029 -0.0463,-0.0319 -0.0443,-0.0348 -0.0419,-0.0375 -0.0396,-0.0401 -0.0369,-0.0425 -0.0342,-0.0447 -0.0313,-0.0467 -0.0283,-0.0487 -0.0253,-0.0503 -0.022,-0.0518 -0.0187,-0.0531 -0.0153,-0.0541 -0.0119,-0.0551 -0.0085,-0.0556 -0.0049,-0.0561 -0.0014,-0.0563 0.0022,-0.0562 0.0057,-0.056 0.0091,-0.0555 0.0127,-0.0549 0.0161,-0.0539 0.0194,-0.0529 0.0227,-0.0515 0.0259,-0.05 0.0289,-0.0482 0.032,-0.0463 0.0348,-0.0443 0.0375,-0.042 0.0401,-0.0395 0.0424,-0.0369 0.0448,-0.0342 0.0467,-0.0314 0.0487,-0.0283 0.0503,-0.0252 0.0518,-0.022 0.0265,-0.0094 -2e-4,-7e-4 0.6528,-0.2487 -10e-5,-3e-4 0.1545,-0.0639 0.1583,-0.0775 0.1531,-0.0873 0.1473,-0.0967 0.141,-0.1057 0.134,-0.1144 0.1266,-0.1226 0.1186,-0.1303 0.1102,-0.1375 0.1014,-0.1441 0.0921,-0.1502 0.0826,-0.1557 0.0725,-0.1606 0.0624,-0.1648 0.0407,-0.1324 -0.1262,-0.057 -0.1648,-0.0623 -0.1684,-0.0519 -0.1713,-0.0412 -0.1736,-0.0304 -0.1751,-0.0194 -0.1761,-0.0083 -0.1761,0.0027 -0.1757,0.0138 -0.1745,0.0247 -0.1726,0.0357 -0.1699,0.0464 -0.1668,0.0571 -0.1628,0.0673 -0.1503,0.0736 -1e-4,-2e-4 -0.6205,0.3257 -3e-4,-6e-4 -0.0226,0.0126 -0.0508,0.0243 -0.0522,0.021 -0.0534,0.0178 -0.0545,0.0143 -0.0552,0.0109 -0.0558,0.0074 -0.0562,0.0038 -0.0562,4e-4 -0.0562,-0.0032 -0.0559,-0.0067 -0.0554,-0.0102 -0.0546,-0.0137 -0.0536,-0.0171 -0.0525,-0.0204 -0.0511,-0.0236 -0.0494,-0.0269 -0.0478,-0.0298 -0.0457,-0.0328 -0.0436,-0.0357 -0.0412,-0.0382 -0.0388,-0.0408 -0.0362,-0.0432 -0.0333,-0.0453 -0.0305,-0.0474 -0.0274,-0.0491 -0.0243,-0.0508 -0.021,-0.0522 -0.0177,-0.0534 -0.0143,-0.0545 -0.0109,-0.0552 -0.0074,-0.0558 -0.0039,-0.0562 -3e-4,-0.0562 0.0032,-0.0562 0.0067,-0.0559 0.0102,-0.0554 0.0136,-0.0546 0.0171,-0.0536 0.0204,-0.0525 0.0237,-0.0511 0.0268,-0.0495 0.0299,-0.0477 0.0328,-0.0457 0.0356,-0.0436 0.0383,-0.0412 0.0408,-0.0388 0.0431,-0.0362 0.0454,-0.0333 0.0197,-0.0127 -4e-4,-5e-4 0.5817,-0.3953 -10e-5,-2e-4 0.1356,-0.0979 0.1362,-0.1119 0.1288,-0.1202 0.1211,-0.128 0.1127,-0.1355 0.1041,-0.1422 0.0949,-0.1485 0.0854,-0.1541 0.0755,-0.1592 0.0654,-0.1636 0.055,-0.1674 0.0444,-0.1706 0.0336,-0.173 0.0226,-0.1747 0.0092,-0.1382 -0.136,-0.0264 -0.1747,-0.0226 -0.1759,-0.0117 -0.1762,-5e-4 -0.1759,0.0105 -0.1749,0.0215 -0.1732,0.0324 -0.1708,0.0433 -0.1678,0.0539 -0.164,0.0644 -0.1597,0.0745 -0.1547,0.0844 -0.1491,0.0939 -0.1429,0.1031 -0.1292,0.1062 -2e-4,-2e-4 -0.5308,0.4619 -4e-4,-4e-4 -0.017,0.0156 -0.0438,0.0353 -0.046,0.0325 -0.0479,0.0296 -0.0496,0.0265 -0.0512,0.0233 -0.0526,0.0201 -0.0538,0.0167 -0.0547,0.0133 -0.0554,0.0098 -0.0559,0.0064 -0.0562,0.0028 -0.0563,-7e-4 -0.0562,-0.0042 -0.0557,-0.0078 -0.0552,-0.0112 -0.0543,-0.0147 -0.0533,-0.0181 -0.0521,-0.0213 -0.0506,-0.0246 -0.049,-0.0278 -0.0471,-0.0307 -0.0452,-0.0337 -0.0429,-0.0364 -0.0405,-0.039 -0.038,-0.0416 -0.0354,-0.0438 -0.0325,-0.0459 -0.0295,-0.0479 -0.0265,-0.0497 -0.0234,-0.0512 -0.02,-0.0526 -0.0167,-0.0538 -0.0133,-0.0546 -0.0099,-0.0555 -0.0064,-0.0559 -0.0028,-0.0562 7e-4,-0.0563 0.0043,-0.0561 0.0077,-0.0558 0.0113,-0.0551 0.0146,-0.0544 0.0181,-0.0533 0.0214,-0.052 0.0246,-0.0507 0.0277,-0.049 0.0308,-0.0471 0.0336,-0.0451 0.0365,-0.0429 0.0168,-0.0175 -5e-4,-4e-4 0.4743,-0.5182 -2e-4,-2e-4 0.1094,-0.1265 0.1067,-0.1403 0.0977,-0.1467 0.0882,-0.1525 0.0785,-0.1577 0.0684,-0.1624 0.0582,-0.1664 0.0475,-0.1697 0.0368,-0.1723 0.0259,-0.1743 0.0149,-0.1756 0.0039,-0.1762 -0.0073,-0.176 -0.0182,-0.1753 -0.023,-0.1365 -0.1383,0.0056 -0.1753,0.0183 -0.1738,0.0292 -0.1716,0.0401 -0.1687,0.0508 -0.1652,0.0612 -0.1611,0.0716 -0.1562,0.0815 -0.1508,0.0911 -0.1448,0.1004 -0.1382,0.1094 -0.1311,0.1178 -0.1234,0.1258 -0.1153,0.1332 -0.1012,0.1332 -2e-4,-2e-4 -0.4084,0.5698 -6e-4,-4e-4 -0.0145,0.0213 -0.0344,0.0444 -0.0373,0.0423 -0.0397,0.0398 -0.0423,0.0372 -0.0444,0.0345 -0.0466,0.0317 -0.0484,0.0287 -0.0502,0.0255 -0.0516,0.0224 -0.053,0.0191 -0.054,0.0157 -0.055,0.0123 -0.0555,0.0088 -0.0561,0.0053 -0.0562,0.0018 -0.0563,-0.0018 -0.056,-0.0053 -0.0556,-0.0087 -0.055,-0.0123 -0.054,-0.0157 -0.053,-0.0191 -0.0517,-0.0223 -0.0501,-0.0255 -0.0485,-0.0287 -0.0465,-0.0316 -0.0445,-0.0345 -0.0423,-0.0372 -0.0398,-0.0398 -0.0372,-0.0422 -0.0345,-0.0445 -0.0317,-0.0465 -0.0286,-0.0485 -0.0256,-0.0501 -0.0224,-0.0517 -0.019,-0.0529 -0.0158,-0.0541 -0.0122,-0.0549 -0.0089,-0.0556 -0.0053,-0.056 -0.0018,-0.0563 0.0018,-0.0563 0.0053,-0.056 0.0088,-0.0556 0.0122,-0.0549 0.0157,-0.0541 0.0191,-0.0529 0.0223,-0.0517 0.0256,-0.0502 0.0155,-0.0262 -7e-4,-4e-4 0.339,-0.6081 -3e-4,-2e-4 0.0773,-0.1483 0.0715,-0.1611 0.0612,-0.1653 0.0507,-0.1687 0.04,-0.1716 0.0291,-0.1738 0.0182,-0.1753 0.0071,-0.1761 -0.0039,-0.1761 -0.015,-0.1756 -0.026,-0.1743 -0.0369,-0.1723 -0.0476,-0.1697 -0.0582,-0.1663 -0.0538,-0.1276 -0.1333,0.0374 -0.1664,0.0582 -0.1623,0.0685 -0.1577,0.0786 -0.1525,0.0883 -0.1467,0.0978 -0.1402,0.1067 -0.1332,0.1153 -0.1257,0.1235 -0.1178,0.1311 -0.1092,0.1383 -0.1004,0.1448 -0.0911,0.1509 -0.0814,0.1562 -0.0678,0.153 -2e-4,-1e-4 -0.265,0.646 -7e-4,-3e-4 -0.0101,0.0266 -0.0233,0.0512 -0.0265,0.0497 -0.0296,0.0479 -0.0324,0.046 -0.0354,0.0438 -0.0379,0.0416 -0.0406,0.039 -0.0429,0.0365 -0.0451,0.0337 -0.0471,0.0307 -0.049,0.0278 -0.0506,0.0246 -0.052,0.0214 -0.0533,0.0181 -0.0544,0.0147 -0.0551,0.0113 -0.0558,0.0078 -0.0561,0.0042 -0.0563,8e-4 -0.0562,-0.0028 -0.0559,-0.0064 -0.0555,-0.0098 -0.0547,-0.0133 -0.0537,-0.0167 -0.0526,-0.02 -0.0513,-0.0233 -0.0496,-0.0265 -0.0479,-0.0295 -0.046,-0.0325 -0.0438,-0.0353 -0.0416,-0.038 -0.039,-0.0405 -0.0365,-0.0429 -0.0337,-0.0451 -0.0307,-0.0472 -0.0278,-0.0489 -0.0246,-0.0506 -0.0214,-0.0521 -0.0181,-0.0533 -0.0147,-0.0543 -0.0113,-0.0552 -0.0078,-0.0557 -0.0042,-0.0562 -8e-4,-0.0562 0.0028,-0.0563 0.0064,-0.0559 0.0098,-0.0554 0.0133,-0.0547 0.0073,-0.0235 -7e-4,-2e-4 0.1913,-0.6756 h -3e-4 l 0.041,-0.1622 0.0324,-0.1732 0.0214,-0.1749 0.0104,-0.176 -6e-4,-0.1762 -0.0118,-0.1758 -0.0227,-0.1747 -0.0337,-0.173 -0.0444,-0.1705 -0.0551,-0.1674 -0.0655,-0.1636 -0.0756,-0.1592 -0.0855,-0.1541 -0.095,-0.1484 -0.0818,-0.1117 -0.1211,0.0672 -0.1484,0.0949 -0.1422,0.1041 -0.1353,0.1129 -0.128,0.1211 -0.1202,0.1289 -0.1118,0.1362 -0.103,0.1429 -0.0939,0.1492 -0.0843,0.1547 -0.0744,0.1597 -0.0643,0.1641 -0.0538,0.1678 -0.0432,0.1708 -0.0307,0.1645 -3e-4,-1e-4 -0.1096,0.6946 -6e-4,-10e-5 -0.0031,0.0234 -0.0109,0.0552 -0.0143,0.0544 -0.0177,0.0535 -0.021,0.0522 -0.0242,0.0508 -0.0274,0.0491 -0.0304,0.0474 -0.0334,0.0454 -0.0361,0.0431 -0.0388,0.0408 -0.0412,0.0383 -0.0436,0.0357 -0.0457,0.0328 -0.0477,0.0299 -0.0495,0.0269 -0.051,0.0236 -0.0525,0.0205 -0.0536,0.0171 -0.0546,0.0137 -0.0553,0.0102 -0.0559,0.0067 -0.0562,0.0033 -0.0563,-4e-4 -0.0562,-0.0038 -0.0558,-0.0074 -0.0552,-0.0108 -0.0544,-0.0143 -0.0535,-0.0177 -0.0522,-0.021 -0.0508,-0.0243 -0.0492,-0.0274 -0.0473,-0.0304 -0.0454,-0.0333 -0.0431,-0.0362 -0.0409,-0.0387 -0.0383,-0.0413 -0.0356,-0.0435 -0.0328,-0.0458 -0.0299,-0.0476 -0.0269,-0.0495 -0.0237,-0.0511 -0.0204,-0.0524 -0.0171,-0.0537 -0.0137,-0.0546 -0.0102,-0.0553 -0.0068,-0.0559 -0.0032,-0.0562 3e-4,-0.0563 0.0016,-0.0232 h -6e-4 l 0.0303,-0.7028 h -2e-4 l 0.0025,-0.1673 -0.0085,-0.176 -0.0195,-0.1751 -0.0304,-0.1736 -0.0413,-0.1713 -0.0519,-0.1684 -0.0625,-0.1648 -0.0726,-0.1605 -0.0826,-0.1557 -0.0922,-0.1502 -0.1014,-0.1441 -0.1103,-0.1374 -0.1187,-0.1302 -0.1267,-0.1225 -0.1053,-0.0899 -0.1024,0.0933 -0.1225,0.1266 -0.1143,0.1341 -0.1057,0.141 -0.0966,0.1474 -0.0872,0.1531 -0.0774,0.1583 -0.0673,0.1629 -0.057,0.1668 -0.0463,0.17 -0.0356,0.1725 -0.0247,0.1745 -0.0137,0.1757 -0.0026,0.1762 0.008,0.1671 h -2e-4 l 0.0534,0.7006 h -6e-4 l 0.0024,0.024 0.0022,0.0563 -0.0013,0.0562 -0.0049,0.0561 -0.0084,0.0557 -0.0119,0.055 -0.0153,0.0542 -0.0187,0.0531 -0.022,0.0518 -0.0252,0.0503 -0.0283,0.0487 -0.0313,0.0467 -0.0342,0.0448 -0.0369,0.0425 -0.0395,0.04 -0.0419,0.0376 -0.0443,0.0348 -0.0463,0.032 -0.0482,0.029 -0.05,0.0259 -0.0515,0.0227 -0.0528,0.0195 -0.054,0.0161 -0.0548,0.0126 -0.0555,0.0092 -0.056,0.0057 -0.0563,0.0022 -0.0563,-0.0013 -0.056,-0.0049 -0.0557,-0.0084 -0.055,-0.0119 -0.0542,-0.0153 -0.0531,-0.0187 -0.0518,-0.022 -0.0503,-0.0252 -0.0487,-0.0283 -0.0468,-0.0313 -0.0447,-0.0342 -0.0425,-0.0369 -0.0401,-0.0395 -0.0375,-0.042 -0.0348,-0.0442 -0.032,-0.0463 -0.029,-0.0482 -0.0259,-0.05 -0.0227,-0.0515 -0.0195,-0.0528 -0.0161,-0.054 -0.0126,-0.0548 -0.0045,-0.0272 -7e-4,2e-4 -0.1318,-0.6867 -3e-4,1e-4 -0.0361,-0.1634 -0.0488,-0.1693 -0.0594,-0.1659 -0.0696,-0.1619 -0.0797,-0.1572 -0.0894,-0.1518 -0.0987,-0.146 -0.1078,-0.1394 -0.1162,-0.1325 -0.1244,-0.1248 -0.1319,-0.1168 -0.139,-0.1083 -0.1455,-0.0994 -0.1515,-0.09 -0.1233,-0.0631 -0.078,0.1144 -0.0901,0.1514 -0.0803,0.1569 -0.0703,0.1616 -0.06,0.1656 -0.0496,0.1691 -0.0388,0.1719 -0.0279,0.174 -0.0169,0.1754 -0.0059,0.1761 0.0051,0.1762 0.0163,0.1754 0.0272,0.1741 0.038,0.1721 0.0464,0.1607 -3e-4,1e-4 0.2118,0.6636 -8e-4,2e-4 0.0099,0.0285 0.0151,0.0543 0.0117,0.055 0.0081,0.0557 0.0047,0.0561 0.0011,0.0563 -0.0024,0.0562 -0.0059,0.056 -0.0095,0.0555 -0.0129,0.0548 -0.0163,0.0539 -0.0196,0.0527 -0.023,0.0514 -0.0261,0.0499 -0.0292,0.0481 -0.0322,0.0462 -0.035,0.0441 -0.0377,0.0417 -0.0402,0.0394 -0.0427,0.0367 -0.0449,0.034 -0.0469,0.0311 -0.0487,0.0281 -0.0505,0.025 -0.0519,0.0218 -0.0532,0.0184 -0.0542,0.0151 -0.0551,0.0117 -0.0556,0.0081 -0.0561,0.0047 -0.0563,0.0011 -0.0563,-0.0024 -0.0559,-0.0059 -0.0555,-0.0094 -0.0548,-0.013 -0.0539,-0.0163 -0.0527,-0.0196 -0.0514,-0.023 -0.0499,-0.0261 -0.0481,-0.0292 -0.0462,-0.0322 -0.0441,-0.035 -0.0418,-0.0377 -0.0393,-0.0402 -0.0368,-0.0427 -0.0339,-0.0448 -0.0312,-0.047 -0.0281,-0.0487 -0.0249,-0.0505 -0.0103,-0.0244 -6e-4,3e-4 -0.287,-0.6387 -2e-4,10e-5 -0.0729,-0.1506 -0.0865,-0.1535 -0.096,-0.1478 -0.1051,-0.1414 -0.1138,-0.1346 -0.122,-0.1271 -0.1298,-0.1193 -0.1369,-0.1108 -0.1437,-0.1021 -0.1498,-0.0928 -0.1553,-0.0832 -0.1602,-0.0734 -0.1646,-0.0631 -0.1681,-0.0526 -0.1345,-0.033 -0.0496,0.1293 -0.0526,0.1681 -0.042,0.1712 -0.0312,0.1734 -0.0202,0.1751 -0.0092,0.1759 0.0019,0.1762 0.0129,0.1758 0.024,0.1746 0.0349,0.1727 0.0456,0.1702 0.0563,0.167 0.0666,0.1631 0.0767,0.1586 0.0822,0.1458 -2e-4,10e-5 0.3619,0.6015 -6e-4,4e-4 0.0133,0.0208 0.0272,0.0493 0.024,0.0509 0.0208,0.0523 0.0175,0.0535 0.014,0.0545 0.0107,0.0553 0.0071,0.0558 0.0036,0.0562 10e-5,0.0563 -0.0035,0.0562 -0.0069,0.0558 -0.0105,0.0553 -0.0139,0.0546 -0.0174,0.0535 -0.0206,0.0524 -0.0239,0.051 -0.027,0.0493 -0.0301,0.0476 -0.0331,0.0456 -0.0358,0.0434 -0.0385,0.0411 -0.0409,0.0386 -0.0434,0.0359 -0.0454,0.0332 -0.0475,0.0302 -0.0493,0.0272 -0.0509,0.024 -0.0523,0.0208 -0.0535,0.0175 -0.0545,0.0141 -0.0553,0.0106 -0.0558,0.0071 -0.0562,0.0036 -0.0563,1e-4 -0.0562,-0.0034 -0.0558,-0.007 -0.0553,-0.0105 -0.0546,-0.0139 -0.0535,-0.0173 -0.0524,-0.0207 -0.051,-0.0239 -0.0493,-0.027 -0.0476,-0.0301 -0.0456,-0.033 -0.0434,-0.0359 -0.0411,-0.0384 -0.0386,-0.041 -0.0359,-0.0433 -0.0136,-0.0187 -5e-4,3e-4 -0.4286,-0.5579 -2e-4,1e-4 -0.1057,-0.1297 -0.1196,-0.1294 -0.1275,-0.1216 -0.1348,-0.1134 -0.1418,-0.1047 -0.148,-0.0956 -0.1538,-0.0861 -0.1588,-0.0763 -0.1633,-0.0662 -0.1672,-0.0558 -0.1703,-0.0451 -0.1728,-0.0344 -0.1747,-0.0235 -0.1757,-0.0124 -0.1385,-0.0011 -0.0185,0.1372 -0.0124,0.1758 -0.0014,0.1762 0.0097,0.1759 0.0207,0.175 0.0316,0.1734 0.0425,0.171 0.0531,0.168 0.0636,0.1644 0.0738,0.16 0.0836,0.1551 0.0933,0.1495 0.1024,0.1434 0.1113,0.1366 0.1135,0.1229 -2e-4,2e-4 0.4919,0.5029 -4e-4,4e-4 0.0167,0.0162 0.0378,0.0417 0.0351,0.044 0.0323,0.0461 0.0293,0.048 0.0263,0.0498 0.0231,0.0513 0.0198,0.0527 0.0165,0.0539 0.013,0.0547 0.0096,0.0555 0.0061,0.0559 0.0026,0.0563 -10e-4,0.0562 -0.0045,0.0561 -0.008,0.0558 -0.0115,0.0551 -0.0149,0.0542 -0.0183,0.0533 -0.0217,0.0519 -0.0248,0.0505 -0.028,0.0489 -0.0309,0.047 -0.0339,0.0449 -0.0366,0.0428 -0.0392,0.0404 -0.0417,0.0378 -0.044,0.0351 -0.0461,0.0323 -0.0481,0.0293 -0.0497,0.0263 -0.0514,0.0231 -0.0527,0.0198 -0.0538,0.0165 -0.0547,0.013 -0.0555,0.0096 -0.056,0.0061 -0.0562,0.0026 -0.0563,-10e-4 -0.0561,-0.0045 -0.0557,-0.008 -0.0551,-0.0115 -0.0543,-0.0149 -0.0532,-0.0183 -0.052,-0.0217 -0.0505,-0.0248 -0.0488,-0.028 -0.047,-0.0309 -0.045,-0.0339 -0.0192,-0.0164 -4e-4,5e-4 -0.5441,-0.4428 -10e-5,2e-4 -0.1327,-0.1018 -0.1462,-0.0984 -0.1522,-0.0889 -0.1574,-0.0793 -0.162,-0.0691 -0.1661,-0.0589 -0.1695,-0.0484 -0.1721,-0.0376 -0.1742,-0.0267 -0.1755,-0.0157 -0.1762,-0.0047 -0.1761,0.0064 -0.1753,0.0175 -0.1739,0.0284 -0.135,0.0309 0.0137,0.1378 0.0284,0.1739 0.0393,0.1717 0.05,0.169 0.0605,0.1655 0.0708,0.1614 0.0807,0.1566 0.0905,0.1512 0.0997,0.1453 0.1087,0.1387 0.1172,0.1316 0.1252,0.124 0.1328,0.1159 0.1397,0.1073 0.1389,0.0934 -2e-4,2e-4 0.5912,0.3738 -4e-4,6e-4 0.0234,0.0139 0.0465,0.0319 0.0443,0.0347 0.042,0.0374 0.0397,0.04 0.037,0.0424 0.0343,0.0446 0.0314,0.0467 0.0285,0.0485 0.0253,0.0503 0.0221,0.0518 0.0189,0.053 0.0154,0.0541 0.0121,0.055 0.0085,0.0557 0.0051,0.056 0.0015,0.0563 -0.002,0.0562 -0.0056,0.056 -0.009,0.0556 -0.0125,0.0549 -0.016,0.054 -0.0193,0.0528 -0.0226,0.0516 -0.0257,0.05 -0.0289,0.0484 -0.0318,0.0464 -0.0347,0.0443 -0.0374,0.0421 -0.04,0.0396 -0.0424,0.037 -0.0446,0.0343 -0.0467,0.0315 -0.0486,0.0284 -0.0503,0.0253 -0.0517,0.0222 -0.0531,0.0188 -0.0541,0.0155 -0.055,0.012 -0.0556,0.0086 -0.0561,0.005 -0.0562,0.0015 -0.0563,-0.002 -0.056,-0.0055 -0.0556,-0.0091 -0.0548,-0.0125 -0.054,-0.016 -0.0529,-0.0193 -0.0516,-0.0225 -0.0258,-0.0134 -4e-4,7e-4 -0.628,-0.3036 -1e-4,2e-4 -0.1526,-0.0685 -0.165,-0.062 -0.1685,-0.0515 -0.1715,-0.0408 -0.1736,-0.0299 -0.1752,-0.019 -0.176,-0.008 -0.1762,0.0032 -0.1757,0.0141 -0.1744,0.0252 -0.1724,0.0361 -0.1699,0.0468 -0.1666,0.0574 -0.1627,0.0678 -0.1242,0.0611 0.0451,0.131 0.0678,0.1626 0.0778,0.1581 0.0876,0.1529 0.097,0.1471 0.1061,0.1407 0.1147,0.1338 0.1229,0.1263 0.1306,0.1183 0.1377,0.1099 0.1444,0.101 0.1504,0.0918 0.1559,0.0822 0.1608,0.0722 0.1566,0.0588 -1e-4,2e-4 0.662,0.2276 -2e-4,6e-4 0.0254,0.0081 0.0525,0.0203 0.0512,0.0235 0.0495,0.0267 0.0478,0.0298 0.0458,0.0327 0.0437,0.0355 0.0413,0.0382 0.0389,0.0407 0.0363,0.043 0.0334,0.0453 0.0306,0.0473 0.0275,0.0491 0.0244,0.0507 0.0212,0.0521 0.0178,0.0534 0.0145,0.0544 0.011,0.0552 0.0075,0.0558 0.004,0.0562 5e-4,0.0562 -0.0031,0.0562 -0.0066,0.056 -0.0101,0.0553 -0.0135,0.0547 -0.0169,0.0536 -0.0203,0.0525 -0.0236,0.0512 -0.0267,0.0495 -0.0297,0.0478 -0.0327,0.0458 -0.0355,0.0437 -0.0382,0.0413 -0.0407,0.0389 -0.0431,0.0363 -0.0453,0.0334 -0.0472,0.0306 -0.0491,0.0275 -0.0508,0.0244 -0.0521,0.0212 -0.0534,0.0178 -0.0544,0.0145 -0.0552,0.011 -0.0558,0.0075 -0.0561,0.004 -0.0563,5e-4 -0.0562,-0.0031 -0.0559,-0.0066 -0.0554,-0.0101 -0.023,-0.0057 -2e-4,6e-4 -0.6864,-0.1518 v 3e-4 l -0.1643,-0.0315 -0.1748,-0.0222 -0.1759,-0.0113 -0.1762,-10e-5 -0.1759,0.0109 -0.1748,0.0219 -0.1732,0.0329 -0.1707,0.0436 -0.1676,0.0543 -0.1639,0.0647 -0.1595,0.0749 -0.1545,0.0848 -0.1489,0.0943 -0.1426,0.1034 -0.1068,0.0882 0.0741,0.1169 0.1034,0.1427 0.1122,0.1359 0.1205,0.1285 0.1284,0.1208 0.1356,0.1124 0.1425,0.1037 0.1487,0.0946 0.1543,0.085 0.1594,0.0752 0.1638,0.065 0.1675,0.0546 0.1707,0.044 0.173,0.0332 0.166,0.0211 v 3e-4 l 0.7001,0.0691 v 6e-4 l 0.0231,0.0017 0.0557,0.0076 0.0552,0.0111 0.0544,0.0146 0.0533,0.0179 0.0522,0.0213 0.0506,0.0244 0.0491,0.0277 0.0472,0.0306 0.0452,0.0336 0.043,0.0363 0.0406,0.0389 0.0381,0.0414 0.0355,0.0438 0.0326,0.0459 0.0297,0.0478 0.0266,0.0496 0.0234,0.0512 0.0202,0.0525 0.0169,0.0537 0.0134,0.0547 0.01,0.0554 0.0065,0.0559 0.0029,0.0562 -6e-4,0.0563 -0.0041,0.0561 -0.0076,0.0558 -0.0111,0.0552 -0.0146,0.0543 -0.0179,0.0534 -0.0213,0.0521 -0.0244,0.0507 -0.0277,0.049 -0.0306,0.0473 -0.0336,0.0452 -0.0363,0.043 -0.0389,0.0406 -0.0415,0.0381 -0.0437,0.0354 -0.0459,0.0327 -0.0478,0.0296 -0.0496,0.0266 -0.0512,0.0235 -0.0525,0.0202 -0.0537,0.0168 -0.0547,0.0134 -0.0554,0.01 -0.0559,0.0065 -0.0562,0.003 -0.0238,-3e-4 v 7e-4 l -0.7028,0.0105 v 3e-4 l -0.1672,0.0072 -0.1752,0.0187 -0.1737,0.0296 -0.1715,0.0405 -0.1686,0.0512 -0.1651,0.0617 -0.1609,0.0718 -0.156,0.0819 -0.1506,0.0915 -0.1446,0.1008 -0.1379,0.1096 -0.1308,0.1181 -0.1231,0.1261 -0.115,0.1336 z"
     id="path8450"
     style="stroke:#ff0000;fill:none;stroke-width:0.025;stroke-miterlimit:4;stroke-dasharray:none" />
  <path
     d="m 2.12567,17.7265 0.04894,0.3091 0.14204,0.2787 0.22123,0.2213 0.27877,0.142 0.30902,0.0489 0.30901,-0.0489 0.27877,-0.142 0.22123,-0.2213 0.14204,-0.2787 0.04895,-0.3091 -0.04895,-0.309 -0.14204,-0.2787 -0.22123,-0.2213 -0.27877,-0.142 -0.30901,-0.049 -0.30902,0.049 -0.27877,0.142 -0.22123,0.2213 -0.14204,0.2787 z"
     id="path8448"
     style="stroke:#ff0000;fill:none;stroke-width:0.025;stroke-miterlimit:4;stroke-dasharray:none" />
  <path
     d="m -0.290773,-17.0171 0.001667,0.049 0.004745,0.0489 0.00772,0.0479 0.010718,0.0474 0.013813,0.0471 0.016744,0.0461 0.019607,0.045 0.022395,0.0437 0.025091,0.0422 0.027691,0.0405 0.030181,0.0387 0.0325514,0.0367 0.0347936,0.0346 0.03689803,0.0324 0.03885707,0.03 0.0406633,0.0275 0.0423096,0.0248 0.043787,0.0222 0.045092,0.0194 0.046221,0.0165 0.047165,0.0136 0.047925,0.0106 0.048495,0.0075 0.048873,0.0045 0.049059,0.0014 0.04905,-0.0017 0.04885,-0.0047 0.048455,-0.0078 0.04787,-0.0108 0.046785,-0.0137 h 10e-7 l 6.2e-5,-10e-5 h 2.47e-4 l 2.35e-4,-10e-5 0.877096,-0.2871 6.2e-4,0.0021 9.4e-4,0.0026 0.02869,-0.0125 0.05853,-0.0213 0.05975,-0.0175 0.06072,-0.0137 0.06147,-0.0099 0.06197,-0.006 0.06223,-0.0021 0.06223,0.0017 0.062,0.0057 0.06152,0.0096 0.0608,0.0135 0.05983,0.0172 0.05864,0.0209 0.0572,0.0246 0.05555,0.0281 0.05367,0.0316 0.05159,0.0348 0.04929,0.0381 0.04681,0.041 0.04414,0.0439 0.04129,0.0466 0.03829,0.0491 0.03513,0.0514 0.03183,0.0535 0.02841,0.0554 0.02487,0.0571 0.02124,0.0586 0.01753,0.0597 0.01374,0.0607 0.00989,0.0615 0.00602,0.062 0.00212,0.0622 -0.0018,0.0622 -0.0057,0.062 -0.00958,0.0615 -0.01343,0.0608 -0.01721,0.0599 -0.02094,0.0586 -0.02458,0.0572 -0.02812,0.0556 -0.03156,0.0536 -0.03486,0.0516 -0.03804,0.0493 -0.04105,0.0468 -0.04391,0.0442 -0.0466,0.0413 -0.0491,0.0382 -0.02584,0.0177 0.00168,0.0022 0.00147,0.0016 -0.70933,0.5904 -2e-4,2e-4 -1.9e-4,1e-4 -5e-5,10e-5 v 0 l -0.03649,0.0323 -0.03462,0.0348 -0.03236,0.0369 -0.02998,0.0389 -0.02748,0.0406 -0.02488,0.0423 -0.02217,0.0438 -0.01937,0.0451 -0.01651,0.0462 -0.01357,0.0472 -0.01058,0.0479 -0.00756,0.0485 -0.00449,0.0489 -0.00141,0.0491 0.00166,0.049 0.00475,0.0489 0.0078,0.0484 0.01083,0.0479 0.01381,0.0471 0.01675,0.0461 0.0196,0.045 0.0224,0.0437 0.02509,0.0422 0.02769,0.0405 0.03018,0.0387 0.03255,0.0367 0.03443,0.0343 0.03652,0.032 0.03886,0.03 0.04066,0.0275 0.04231,0.0248 0.04379,0.0222 0.04509,0.0194 0.04622,0.0165 0.04716,0.0135 0.04793,0.0106 0.04849,0.0076 0.04888,0.0045 0.04906,0.0014 0.04905,-0.0017 0.04885,-0.0047 0.04845,-0.0078 0.04787,-0.0108 0.0471,-0.0139 0.04613,-0.0167 0.04499,-0.0196 0.04368,-0.0224 0.04218,-0.0251 0.04052,-0.0277 0.0387,-0.0302 0.03673,-0.0325 0.03462,-0.0348 0.03236,-0.0369 0.02978,-0.0386 v 0 l 4e-5,-10e-5 1.6e-4,-2e-4 1.4e-4,-2e-4 0.54085,-0.7478 0.00175,0.0014 0.00227,0.0015 0.01586,-0.027 0.03487,-0.0516 0.03803,-0.0493 0.04106,-0.0468 0.04391,-0.0441 0.0466,-0.0413 0.04909,-0.0383 0.05141,-0.0351 0.05351,-0.0318 0.0554,-0.0285 0.05708,-0.0248 0.05852,-0.0213 0.05975,-0.0175 0.06072,-0.0137 0.06147,-0.0099 0.06197,-0.006 0.06223,-0.0022 0.06223,0.0018 0.06201,0.0057 0.06151,0.0096 0.0608,0.0134 0.05984,0.0173 0.05863,0.0209 0.0572,0.0246 0.05555,0.0281 0.05368,0.0316 0.05158,0.0348 0.04929,0.0381 0.04681,0.041 0.04414,0.0439 0.0413,0.0466 0.03828,0.0491 0.03513,0.0514 0.03183,0.0535 0.02841,0.0554 0.02488,0.0571 0.02124,0.0585 0.01752,0.0598 0.01374,0.0607 0.0099,0.0615 0.00601,0.0619 0.00212,0.0623 -0.0018,0.0622 -0.0057,0.062 -0.00958,0.0615 -0.01342,0.0608 -0.01722,0.0599 -0.01053,0.0294 0.00263,8e-4 0.00216,5e-4 -0.22683,0.8945 -7e-5,3e-4 -6e-5,2e-4 -10e-6,10e-5 v 0 l -0.01052,0.0476 -0.00755,0.0485 -0.00449,0.0489 -0.00142,0.049 0.00167,0.0491 0.00474,0.0488 0.00781,0.0485 0.01083,0.0479 0.01381,0.0471 0.01674,0.0461 0.01961,0.045 0.0224,0.0437 0.02509,0.0421 0.02769,0.0406 0.03018,0.0387 0.03255,0.0367 0.03479,0.0346 0.0369,0.0324 0.03886,0.03 0.04066,0.0274 0.04231,0.0249 0.04379,0.0222 0.04509,0.0194 0.04622,0.0165 0.04717,0.0135 0.04792,0.0106 0.04799,0.0075 0.04837,0.0044 0.04906,0.0015 0.04905,-0.0017 0.04885,-0.0048 0.04845,-0.0078 0.04787,-0.0108 0.0471,-0.0138 0.04613,-0.0168 0.04499,-0.0196 0.04368,-0.0224 0.04218,-0.025 0.04052,-0.0277 0.0387,-0.0302 0.03673,-0.0326 0.03462,-0.0348 0.03236,-0.0369 0.02998,-0.0388 0.02748,-0.0407 0.02488,-0.0423 0.02217,-0.0438 0.01937,-0.0451 0.01651,-0.0462 0.01357,-0.0472 0.01058,-0.0479 0.00756,-0.0485 0.00449,-0.0488 0.00141,-0.0488 v 0 0 l 10e-6,-3e-4 -10e-6,-3e-4 L 6.638,-12.929 h 0.00221 l 0.00274,-10e-5 -0.00303,-0.0311 -0.00211,-0.0622 0.00179,-0.0623 0.0057,-0.062 0.00958,-0.0615 0.01343,-0.0608 0.01722,-0.0598 0.02094,-0.0587 0.02458,-0.0572 0.02812,-0.0555 0.03156,-0.0537 0.03486,-0.0516 0.03803,-0.0493 0.04106,-0.0468 0.04391,-0.0441 0.0466,-0.0413 0.04909,-0.0383 0.05141,-0.0351 0.05351,-0.0319 0.0554,-0.0284 0.05708,-0.0248 0.05852,-0.0213 0.05975,-0.0175 0.06072,-0.0137 0.06147,-0.0099 0.06197,-0.0061 0.06223,-0.0021 0.06224,0.0018 0.062,0.0057 0.06151,0.0096 0.0608,0.0134 0.05984,0.0172 0.05863,0.021 0.0572,0.0246 0.05555,0.0281 0.05367,0.0315 0.05159,0.0349 0.04929,0.038 0.04681,0.0411 0.04414,0.0439 0.0413,0.0466 0.03828,0.0491 0.03513,0.0514 0.03183,0.0535 0.02841,0.0554 0.02487,0.0571 0.02125,0.0585 0.00881,0.0301 0.00257,-0.001 0.00203,-9e-4 0.3423,0.8571 8e-5,2e-4 1.1e-4,3e-4 h 2e-5 v 0 l 0.01948,0.0447 0.0224,0.0437 0.02509,0.0422 0.02769,0.0405 0.03018,0.0387 0.03255,0.0367 0.03479,0.0346 0.0369,0.0324 0.03886,0.03 0.04066,0.0275 0.04231,0.0248 0.04379,0.0222 0.04509,0.0194 0.04622,0.0165 0.04717,0.0136 0.04792,0.0106 0.0485,0.0075 0.04887,0.0045 0.04906,0.0014 0.04905,-0.0017 0.04885,-0.0047 0.04845,-0.0078 0.04787,-0.0108 0.0471,-0.0138 0.04613,-0.0168 0.045,-0.0196 0.04322,-0.0222 0.0417,-0.0248 0.0406,-0.0277 0.0387,-0.0302 0.0367,-0.0325 0.0346,-0.0348 0.0324,-0.0369 0.03,-0.0389 0.0274,-0.0406 0.0249,-0.0423 0.0222,-0.0438 0.0194,-0.0451 0.0165,-0.0462 0.0135,-0.0472 0.0106,-0.0479 0.0076,-0.0485 0.0045,-0.0489 0.0014,-0.0491 -0.0017,-0.049 -0.0047,-0.0489 -0.0078,-0.0484 -0.0109,-0.0479 -0.0138,-0.0471 -0.0167,-0.0461 -0.0196,-0.045 -0.0224,-0.0437 -0.0251,-0.0422 -0.0275,-0.0402 v 0 l -10e-5,-1e-4 -10e-5,-2e-4 -2e-4,-2e-4 -0.54403,-0.7454 0.00183,-0.0013 0.00216,-0.0017 L 9.7211,-13.97 9.68281,-14.0191 9.64768,-14.0705 9.61585,-14.124 9.58744,-14.1794 9.56257,-14.2365 9.54133,-14.295 9.5238,-14.3547 l -0.01374,-0.0608 -0.00989,-0.0614 -0.00602,-0.062 -0.00212,-0.0622 0.0018,-0.0623 0.0057,-0.062 0.00958,-0.0615 0.01342,-0.0608 0.01722,-0.0598 0.02094,-0.0587 0.02458,-0.0572 0.02812,-0.0555 0.03156,-0.0537 0.03486,-0.0516 0.03804,-0.0493 0.04105,-0.0468 0.04391,-0.0441 0.0466,-0.0413 0.0491,-0.0383 0.0514,-0.0351 0.05349,-0.0319 0.0554,-0.0284 0.0571,-0.0248 0.0585,-0.0213 0.0598,-0.0175 0.0607,-0.0137 0.0615,-0.0099 0.0619,-0.0061 0.0623,-0.0021 0.0622,0.0018 0.062,0.0057 0.0615,0.0096 0.0608,0.0134 0.0599,0.0172 0.0586,0.021 0.0572,0.0246 0.0555,0.0281 0.0537,0.0315 0.0516,0.0349 0.0248,0.0191 0.0015,-0.0022 0.0011,-0.0019 0.7807,0.4921 2e-4,2e-4 3e-4,10e-5 v 0 0 l 0.042,0.0247 0.0438,0.0222 0.0451,0.0194 0.0462,0.0165 0.0472,0.0136 0.0479,0.0106 0.0485,0.0075 0.0489,0.0045 0.0491,0.0014 0.049,-0.0017 0.0489,-0.0047 0.0484,-0.0078 0.0479,-0.0108 0.0471,-0.0138 0.0461,-0.0168 0.045,-0.0196 0.0437,-0.0224 0.0422,-0.0251 0.0405,-0.0277 0.0387,-0.0302 0.0367,-0.0325 0.0346,-0.0348 0.0324,-0.0369 0.03,-0.0389 0.0275,-0.0406 0.0248,-0.0423 0.022,-0.0434 0.0191,-0.0446 0.0165,-0.0462 0.0136,-0.0472 0.0106,-0.0479 0.0076,-0.0485 0.0044,-0.0489 0.0015,-0.049 -0.0017,-0.0491 -0.0047,-0.0488 -0.0079,-0.0485 -0.0108,-0.0478 -0.0138,-0.0471 -0.0167,-0.0462 -0.0196,-0.045 -0.0224,-0.0436 -0.0251,-0.0422 -0.0277,-0.0405 -0.0302,-0.0387 -0.0326,-0.0368 -0.0347,-0.0346 -0.0369,-0.0324 -0.0389,-0.0299 -0.0407,-0.0275 -0.0423,-0.0249 -0.0438,-0.0222 -0.0451,-0.0193 -0.0459,-0.0164 v 0 -10e-5 h -3e-4 l -2e-4,-10e-5 -0.8783,-0.2833 7e-4,-0.0021 8e-4,-0.0026 -0.0306,-0.0068 -0.0598,-0.0172 -0.0587,-0.0209 -0.0572,-0.0246 -0.0555,-0.0281 -0.0537,-0.0316 -0.0516,-0.0349 -0.0493,-0.038 -0.0468,-0.041 -0.0441,-0.044 -0.0413,-0.0465 -0.0383,-0.0491 -0.0351,-0.0515 -0.0319,-0.0535 -0.0284,-0.0554 -0.0248,-0.057 -0.0213,-0.0586 -0.0175,-0.0597 -0.0138,-0.0607 -0.0098,-0.0615 -0.0061,-0.062 -0.0021,-0.0622 0.0018,-0.0622 0.0057,-0.062 0.0096,-0.0616 0.0134,-0.0608 0.0172,-0.0598 0.021,-0.0586 0.0246,-0.0572 0.0281,-0.0556 0.0315,-0.0536 0.0349,-0.0516 0.038,-0.0493 0.0411,-0.0468 0.0439,-0.0442 0.0466,-0.0413 0.0491,-0.0383 0.0514,-0.0351 0.0535,-0.0318 0.0554,-0.0284 0.0571,-0.0249 0.0585,-0.0212 0.0598,-0.0176 0.0607,-0.0137 0.0615,-0.0099 0.0619,-0.006 0.0622,-0.0021 0.0313,9e-4 -1e-4,-0.0028 -2e-4,-0.0022 0.9209,-0.0607 h 3e-4 2e-4 10e-5 v 0 l 0.0485,-0.0047 0.0485,-0.0078 0.0478,-0.0109 0.0471,-0.0138 0.0462,-0.0167 0.045,-0.0196 0.0436,-0.0224 0.0422,-0.0251 0.0405,-0.0277 0.0387,-0.0302 0.0368,-0.0325 0.0346,-0.0348 0.0323,-0.0369 0.03,-0.0389 0.0275,-0.0406 0.0249,-0.0424 0.0222,-0.0437 0.0193,-0.0451 0.0165,-0.0463 0.0136,-0.0471 0.0106,-0.0479 0.0075,-0.0485 0.0045,-0.0489 0.0015,-0.0491 -0.0017,-0.049 -0.0048,-0.0489 -0.0077,-0.0479 -0.0107,-0.0474 -0.0138,-0.0471 -0.0168,-0.0461 -0.0196,-0.045 -0.0224,-0.0437 -0.025,-0.0422 -0.0277,-0.0405 -0.0302,-0.0387 -0.0326,-0.0367 -0.0348,-0.0346 -0.0369,-0.0324 -0.0388,-0.03 -0.0407,-0.0275 -0.0423,-0.0248 -0.0438,-0.0222 -0.0451,-0.0194 -0.0462,-0.0165 -0.0472,-0.0136 -0.0479,-0.0105 -0.0485,-0.0076 -0.0488,-0.0045 -0.0491,-0.0014 -0.0491,0.0017 -0.0488,0.0047 -0.0485,0.0078 -0.0478,0.0108 -0.0468,0.0138 v 0 h -10e-5 l -2e-4,10e-5 h -3e-4 l -0.8771,0.2871 -6e-4,-0.0021 -9e-4,-0.0026 -0.0287,0.0125 -0.0585,0.0213 -0.0598,0.0175 -0.0607,0.0137 -0.0615,0.0099 -0.062,0.006 -0.0622,0.0022 -0.0622,-0.0018 -0.062,-0.0057 -0.0615,-0.0096 -0.0608,-0.0134 -0.0599,-0.0173 -0.0586,-0.0209 -0.0572,-0.0246 -0.0555,-0.0281 -0.0537,-0.0316 -0.0516,-0.0348 -0.0493,-0.0381 -0.0468,-0.041 -0.0441,-0.0439 -0.0413,-0.0466 -0.0383,-0.0491 -0.0352,-0.0514 -0.0318,-0.0535 -0.0284,-0.0554 -0.0249,-0.0571 -0.0212,-0.0585 -0.0175,-0.0598 -0.0138,-0.0607 -0.0099,-0.0615 -0.006,-0.062 -0.0021,-0.0622 0.0018,-0.0622 0.0057,-0.062 0.0096,-0.0615 0.0134,-0.0608 0.0172,-0.0599 0.021,-0.0586 0.0245,-0.0572 0.0282,-0.0556 0.0315,-0.0536 0.0349,-0.0516 0.038,-0.0493 0.0411,-0.0468 0.0439,-0.0441 0.0466,-0.0413 0.0491,-0.0383 0.0258,-0.0177 -0.0017,-0.0022 -0.0014,-0.0016 0.7093,-0.5904 2e-4,-2e-4 2e-4,-10e-5 v -10e-5 0 l 0.0365,-0.0323 0.0346,-0.0348 0.0324,-0.0369 0.03,-0.0389 0.0275,-0.0406 0.0248,-0.0423 0.0222,-0.0438 0.0194,-0.0451 0.0165,-0.0462 0.0136,-0.0472 0.0105,-0.0479 0.0076,-0.0485 0.0045,-0.0489 0.0014,-0.049 -0.0017,-0.0491 -0.0047,-0.0488 -0.0078,-0.0485 -0.0108,-0.0479 -0.0139,-0.0471 -0.0167,-0.0461 -0.0196,-0.045 -0.0224,-0.0437 -0.0251,-0.0421 -0.0277,-0.0406 -0.0302,-0.0387 -0.0325,-0.0367 -0.0344,-0.0343 -0.0366,-0.032 -0.0388,-0.03 -0.0407,-0.0274 -0.0423,-0.0249 -0.0438,-0.0222 -0.0451,-0.0194 -0.0462,-0.0165 -0.0472,-0.0135 -0.0479,-0.0106 -0.0485,-0.0076 -0.0488,-0.0045 -0.0491,-0.0014 -0.0491,0.0017 -0.0488,0.0047 -0.0485,0.0078 -0.0478,0.0109 -0.0471,0.0138 -0.0462,0.0167 -0.045,0.0196 -0.0436,0.0224 -0.0422,0.0251 -0.0405,0.0277 -0.0387,0.0302 -0.0368,0.0325 -0.0346,0.0348 -0.0323,0.0369 -0.0298,0.0386 v 0 l -10e-5,10e-5 -10e-5,2e-4 -2e-4,2e-4 -0.54081,0.7478 -0.00175,-0.0014 -0.00227,-0.0015 -0.01586,0.027 -0.03487,0.0516 -0.03803,0.0493 -0.04106,0.0468 -0.04391,0.0441 -0.04659,0.0413 -0.0491,0.0383 -0.05141,0.0351 -0.05351,0.0319 -0.0554,0.0284 -0.05708,0.0248 -0.05852,0.0213 -0.05975,0.0175 -0.06072,0.0137 -0.06147,0.0099 -0.06197,0.0061 -0.06223,0.0021 -0.06223,-0.0018 -0.062,-0.0057 -0.06152,-0.0096 -0.0608,-0.0134 -0.05984,-0.0172 -0.05863,-0.021 -0.0572,-0.0246 -0.05555,-0.0281 -0.05367,-0.0315 -0.05159,-0.0349 -0.04929,-0.038 -0.04681,-0.0411 -0.04414,-0.0439 -0.0413,-0.0466 -0.03828,-0.0491 -0.03513,-0.0514 -0.03183,-0.0535 -0.02841,-0.0554 -0.02487,-0.0571 -0.02125,-0.0585 -0.01752,-0.0598 -0.01374,-0.0607 -0.0099,-0.0615 -0.00601,-0.0619 -0.00212,-0.0623 0.0018,-0.0622 0.0057,-0.062 0.00958,-0.0615 0.01342,-0.0608 0.01722,-0.0599 0.01053,-0.0294 -0.00263,-8e-4 -0.00216,-5e-4 0.22683,-0.8945 7e-5,-3e-4 6e-5,-2e-4 2e-5,-1e-4 h -10e-6 l 0.01052,-0.0476 0.00755,-0.0485 0.00449,-0.0489 0.00142,-0.049 -0.00167,-0.0491 -0.00474,-0.0488 -0.00781,-0.0485 -0.01083,-0.0479 -0.01381,-0.047 -0.01674,-0.0462 -0.01961,-0.045 -0.02239,-0.0436 -0.0251,-0.0422 -0.02769,-0.0405 -0.03018,-0.0388 -0.03255,-0.0367 -0.03479,-0.0346 -0.0369,-0.0324 -0.03886,-0.0299 -0.04066,-0.0275 -0.04231,-0.0249 -0.04379,-0.0222 -0.04509,-0.0193 -0.04622,-0.0165 -0.04717,-0.0136 -0.04792,-0.0106 -0.04799,-0.0075 -0.04837,-0.0044 -0.04906,-0.0014 -0.04905,0.0016 -0.04885,0.0048 -0.04845,0.0078 -0.04787,0.0108 -0.0471,0.0138 -0.04613,0.0168 -0.04499,0.0196 -0.04368,0.0224 -0.04218,0.0251 -0.04052,0.0276 -0.0387,0.0302 -0.03673,0.0326 -0.03462,0.0348 -0.03236,0.0369 -0.02998,0.0388 -0.02748,0.0407 -0.02488,0.0423 -0.02217,0.0438 -0.01937,0.0451 -0.01651,0.0462 -0.01357,0.0472 -0.01058,0.0479 -0.00756,0.0485 -0.00449,0.0489 -0.00141,0.0487 v 0 10e-5 2e-4 3e-4 l 0.00199,0.9228 H 6.61307 l -0.00274,10e-5 0.00303,0.0311 0.00211,0.0623 -0.00179,0.0622 -0.0057,0.062 -0.00958,0.0615 -0.01343,0.0608 -0.01722,0.0598 -0.02094,0.0587 -0.02458,0.0572 -0.02812,0.0555 -0.03155,0.0537 -0.03487,0.0516 -0.03803,0.0493 -0.04106,0.0468 -0.04391,0.0441 -0.04659,0.0413 -0.0491,0.0383 -0.05141,0.0351 -0.05351,0.0319 -0.0554,0.0284 -0.05708,0.0249 -0.05852,0.0212 -0.05975,0.0175 -0.06072,0.0138 -0.06147,0.0099 -0.06197,0.006 -0.06223,0.0021 -0.06223,-0.0018 -0.062,-0.0057 -0.06152,-0.0096 -0.0608,-0.0134 -0.05984,-0.0172 -0.05863,-0.021 -0.0572,-0.0246 -0.05555,-0.0281 -0.05367,-0.0315 -0.05159,-0.0349 -0.04929,-0.038 -0.04681,-0.0411 -0.04414,-0.0439 -0.04129,-0.0466 -0.03829,-0.0491 -0.03513,-0.0514 -0.03183,-0.0535 -0.02841,-0.0554 -0.02487,-0.0571 -0.02124,-0.0585 -0.00882,-0.03 -0.00257,9e-4 -0.00203,9e-4 -0.3423,-0.8571 -8e-5,-2e-4 -1.1e-4,-3e-4 h -2e-5 v 0 l -0.01948,-0.0447 -0.02239,-0.0437 -0.0251,-0.0422 -0.02769,-0.0405 -0.03018,-0.0387 -0.03255,-0.0367 -0.03479,-0.0346 -0.0369,-0.0324 -0.03886,-0.03 -0.04066,-0.0275 -0.04231,-0.0248 -0.04379,-0.0222 -0.04509,-0.0194 -0.04622,-0.0165 -0.04717,-0.0136 -0.04792,-0.0105 -0.0485,-0.0076 -0.04887,-0.0045 -0.04906,-0.0014 -0.04905,0.0017 -0.04885,0.0047 -0.04845,0.0078 -0.04787,0.0108 -0.0471,0.0139 -0.04613,0.0167 -0.045,0.0196 -0.04321,0.0222 -0.04175,0.0248 -0.04052,0.0277 -0.0387,0.0302 -0.03673,0.0325 -0.03462,0.0348 -0.03236,0.0369 -0.02998,0.0389 -0.02748,0.0406 -0.02488,0.0423 -0.02217,0.0438 -0.01937,0.0451 -0.01651,0.0462 -0.01357,0.0472 -0.01058,0.0479 -0.00755,0.0485 -0.0045,0.0489 -0.00141,0.0491 0.00166,0.049 0.00475,0.0489 0.0078,0.0484 0.01083,0.0479 0.01381,0.0471 0.01675,0.0461 0.0196,0.045 0.0224,0.0437 0.02509,0.0422 0.02751,0.0402 v 0 l 4e-5,10e-5 1.4e-4,2e-4 1.6e-4,2e-4 0.54406,0.7454 -0.00183,0.0013 -0.00216,0.0017 0.02076,0.0234 0.03829,0.0491 0.03513,0.0514 0.03183,0.0535 0.02841,0.0554 0.02487,0.0571 0.02124,0.0585 0.01753,0.0598 0.01374,0.0607 0.00989,0.0615 0.00602,0.0619 0.00212,0.0623 -0.0018,0.0622 -0.0057,0.062 -0.00958,0.0615 -0.01342,0.0608 -0.01722,0.0598 -0.02094,0.0587 -0.02458,0.0572 -0.02812,0.0555 -0.03156,0.0537 -0.03486,0.0516 -0.03804,0.0493 -0.04105,0.0468 -0.04391,0.0441 -0.0466,0.0413 -0.0491,0.0383 -0.0514,0.0351 -0.05351,0.0319 -0.05541,0.0284 -0.05707,0.0248 -0.05853,0.0213 -0.05974,0.0175 -0.06073,0.0138 -0.06147,0.0098 -0.06197,0.0061 -0.06222,0.0021 -0.06224,-0.0018 -0.062,-0.0057 -0.06152,-0.0096 -0.0608,-0.0134 -0.05983,-0.0172 -0.05864,-0.021 -0.0572,-0.0246 -0.05555,-0.0281 -0.05367,-0.0315 -0.05159,-0.0349 -0.02478,-0.0191 -0.00153,0.0022 -0.00112,0.002 -0.78069,-0.4922 -2.1e-4,-2e-4 -2.2e-4,-10e-5 h -6e-5 v 0 l -0.04203,-0.0247 -0.04379,-0.0222 -0.04509,-0.0194 -0.04622,-0.0165 -0.04717,-0.0136 -0.04792,-0.0105 -0.04849,-0.0076 -0.04888,-0.0045 -0.049057,-0.0014 -0.049051,0.0017 -0.048849,0.0047 -0.048455,0.0078 -0.04787,0.0108 -0.047096,0.0139 -0.046135,0.0167 -0.044992,0.0196 -0.043672,0.0224 -0.04218,0.0251 -0.040522,0.0277 -0.038703,0.0302 -0.036731,0.0325 -0.034615,0.0348 -0.032362,0.0369 -0.029981,0.0389 -0.027483,0.0406 -0.024874,0.0423 -0.021939,0.0434 -0.019174,0.0446 -0.016506,0.0462 -0.013572,0.0472 -0.010583,0.0479 -0.007553,0.0485 -0.004494,0.0489 -0.001415,0.049 0.001668,0.0491 0.004744,0.0488 0.007803,0.0485 0.010829,0.0479 0.013814,0.0471 0.016744,0.0461 0.019607,0.045 0.022394,0.0437 0.025092,0.0421 0.027691,0.0406 0.030181,0.0387 0.032551,0.0367 0.034794,0.0346 0.036898,0.0324 0.038858,0.0299 0.040662,0.0275 0.042309,0.0249 0.043787,0.0222 0.045093,0.0193 0.045916,0.0164 h -1e-6 l 6.3e-5,10e-5 2.42e-4,10e-5 h 2.41e-4 l 0.878324,0.2833 -7.4e-4,0.0021 -7.6e-4,0.0026 0.03057,0.0068 0.05983,0.0172 0.05864,0.0209 0.0572,0.0246 0.05555,0.0281 0.05367,0.0316 0.05158,0.0349 0.0493,0.038 0.04681,0.0411 0.04414,0.0439 0.04129,0.0466 0.03829,0.0491 0.03513,0.0514 0.03183,0.0535 0.02841,0.0554 0.02487,0.0571 0.02124,0.0585 0.01752,0.0597 0.01374,0.0608 0.0099,0.0614 0.00602,0.062 0.00211,0.0622 -0.00179,0.0623 -0.0057,0.062 -0.00958,0.0615 -0.01343,0.0608 -0.01721,0.0598 -0.02094,0.0586 -0.02458,0.0572 -0.02813,0.0556 -0.03155,0.0537 -0.03487,0.0515 -0.03803,0.0493 -0.04106,0.0468 -0.04391,0.0442 -0.04659,0.0413 -0.0491,0.0383 -0.05141,0.0351 -0.05351,0.0318 -0.0554,0.0284 -0.05708,0.0249 -0.05852,0.0213 -0.05975,0.0175 -0.06072,0.0137 -0.06147,0.0099 -0.06197,0.006 -0.06223,0.0021 -0.03129,-9e-4 9e-5,0.0028 2.2e-4,0.0022 -0.920886,0.0607 h -2.5e-4 -2.57e-4 -6.5e-5 v 0 l -0.048528,0.0047 -0.048455,0.0078 -0.04787,0.0109 -0.047095,0.0138 -0.046134,0.0167 -0.044993,0.0196 -0.043672,0.0224 -0.0421804,0.0251 -0.0405218,0.0277 -0.03870256,0.0302 -0.03673164,0.0325 -0.0346146,0.0348 -0.032362,0.0369 -0.029982,0.0389 -0.027482,0.0407 -0.024874,0.0423 -0.022169,0.0437 -0.019376,0.0451 -0.016506,0.0463 -0.013572,0.0471 -0.010584,0.048 -0.007552,0.0484 -0.004493,0.0489 z"
     id="path8406"
     style="stroke:#ff0000;fill:none;stroke-width:0.025;stroke-miterlimit:4;stroke-dasharray:none" />
  <path
     d="m -1,0 0.048944,0.309016 0.14204,0.278769 0.221231,0.221231 0.278769,0.14204 L 0,1 0.309016,0.951056 0.587785,0.809016 0.809016,0.587785 0.951056,0.309016 1,0 0.951056,-0.309016 0.809016,-0.587785 0.587785,-0.809016 0.309016,-0.951056 0,-1 l -0.309016,0.048944 -0.278769,0.14204 -0.221231,0.221231 -0.14204,0.278769 z"
     id="path8396"
     style="stroke:#ff0000;fill:none;stroke-width:0.025;stroke-miterlimit:4;stroke-dasharray:none" />
</svg>
