<?xml version="1.0" encoding="UTF-8" standalone="no"?>
<svg
   width="55mm"
   height="63mm"
   viewBox="-4 -24 55 63"
   version="1.1"
   id="svg18840"
   sodipodi:docname="gears_-2.5.svg"
   inkscape:version="1.1.2 (0a00cf5339, 2022-02-04)"
   xmlns:inkscape="http://www.inkscape.org/namespaces/inkscape"
   xmlns:sodipodi="http://sodipodi.sourceforge.net/DTD/sodipodi-0.dtd"
   xmlns="http://www.w3.org/2000/svg"
   xmlns:svg="http://www.w3.org/2000/svg">
  <defs
     id="defs18844" />
  <sodipodi:namedview
     id="namedview18842"
     pagecolor="#ffffff"
     bordercolor="#666666"
     borderopacity="1.0"
     inkscape:pageshadow="2"
     inkscape:pageopacity="0.0"
     inkscape:pagecheckerboard="0"
     inkscape:document-units="mm"
     showgrid="false"
     inkscape:zoom="2.872619"
     inkscape:cx="103.91214"
     inkscape:cy="118.88106"
     inkscape:window-width="1214"
     inkscape:window-height="960"
     inkscape:window-x="0"
     inkscape:window-y="0"
     inkscape:window-maximized="1"
     inkscape:current-layer="svg18840" />
  <title
     id="title18836">OpenSCAD Model</title>
  <path
     d="m 29.6512,18.5535 0.0013,0.0012 7.6655,-7.9902 0.4011,0.4826 0.5,0.685 0.4561,0.715 0.4103,0.7423 0.3628,0.7665 0.3141,0.7878 0.2639,0.806 0.2128,0.821 0.1608,0.8327 0.1082,0.8411 0.0552,0.8463 0.002,0.8481 -0.0514,0.8465 -0.1043,0.8417 -0.157,0.8334 -0.2091,0.8219 -0.2602,0.8072 -0.2296,0.584 -9.7834,-5.1856 -8e-4,0.0017 -10e-5,-0.0349 -0.011,-0.1693 -0.0216,-0.1682 -0.0322,-0.1665 -0.0426,-0.1642 z"
     id="path18942"
     style="stroke:#ff0000;fill:none" />
  <path
     d="m 28.0345,19.576 0.0243,-0.1536 2e-4,0.0776 z"
     id="path18940"
     style="stroke:#ff0000;fill:none" />
  <path
     d="m 28.0342,19.1134 0.0241,0.0737 2e-4,0.0798 z"
     id="path18938"
     style="stroke:#ff0000;fill:none" />
  <path
     d="m 27.9162,19.8624 0.0706,-0.1385 -0.0238,0.0738 z"
     id="path18936"
     style="stroke:#ff0000;fill:none" />
  <path
     d="m 27.9152,18.8271 0.0457,0.0627 0.0249,0.0758 z"
     id="path18934"
     style="stroke:#ff0000;fill:none" />
  <path
     d="m 27.7152,20.0984 0.11,-0.11 -0.0455,0.0629 z"
     id="path18932"
     style="stroke:#ff0000;fill:none" />
  <path
     d="m 27.7136,18.5916 0.0629,0.0455 0.047,0.0645 z"
     id="path18930"
     style="stroke:#ff0000;fill:none" />
  <path
     d="M 27.4511,20.2606 27.5897,20.19 27.527,20.2358 Z"
     id="path18928"
     style="stroke:#ff0000;fill:none" />
  <path
     d="m 27.4491,18.43 0.0738,0.0238 0.0647,0.0467 z"
     id="path18926"
     style="stroke:#ff0000;fill:none" />
  <path
     d="m 27.1498,20.3333 0.1536,-0.0243 -0.0737,0.0241 z"
     id="path18924"
     style="stroke:#ff0000;fill:none" />
  <path
     d="m 27.1476,18.3579 0.0775,-10e-5 0.076,0.0245 z"
     id="path18922"
     style="stroke:#ff0000;fill:none" />
  <path
     d="m 26.8408,20.3093 0.1536,0.0244 -0.0776,10e-5 z"
     id="path18920"
     style="stroke:#ff0000;fill:none" />
  <path
     d="m 26.8386,18.3826 0.0737,-0.0241 0.0798,-2e-4 z"
     id="path18918"
     style="stroke:#ff0000;fill:none" />
  <path
     d="m 26.5543,20.1911 0.1386,0.0705 -0.0739,-0.0238 z"
     id="path18916"
     style="stroke:#ff0000;fill:none" />
  <path
     d="m 26.5523,18.5016 0.0626,-0.0458 0.0759,-0.0248 z"
     id="path18914"
     style="stroke:#ff0000;fill:none" />
  <path
     d="m 26.3184,19.99 0.1099,0.11 -0.0628,-0.0455 z"
     id="path18912"
     style="stroke:#ff0000;fill:none" />
  <path
     d="m 26.3168,18.7032 0.0455,-0.0629 0.0644,-0.0471 z"
     id="path18910"
     style="stroke:#ff0000;fill:none" />
  <path
     d="m 26.1562,19.726 0.0705,0.1385 -0.0457,-0.0627 z"
     id="path18908"
     style="stroke:#ff0000;fill:none" />
  <path
     d="m 26.1551,18.9677 0.0238,-0.0738 0.0468,-0.0647 z"
     id="path18906"
     style="stroke:#ff0000;fill:none" />
  <path
     d="m 26.0835,19.4247 0.0243,0.1535 -0.0241,-0.0737 z"
     id="path18904"
     style="stroke:#ff0000;fill:none" />
  <path
     d="m 26.0829,19.1916 0.0245,-0.076 -0.0243,0.1536 z"
     id="path18902"
     style="stroke:#ff0000;fill:none" />
  <path
     d="m 26.0515,32.8021 1.9086,-10.9069 -0.0018,-3e-4 0.0331,-0.0108 0.1576,-0.0628 0.1533,-0.0726 0.1484,-0.0821 0.143,-0.0912 0.0282,-0.0205 -9e-4,0.0016 9.9679,4.8212 -0.335,0.5306 -0.4969,0.6873 -0.5391,0.6547 -0.5791,0.6195 -0.6169,0.582 -0.6522,0.5421 -0.685,0.5001 -0.715,0.456 -0.7423,0.4103 -0.7665,0.3629 -0.7878,0.314 -0.806,0.2639 -0.821,0.2128 -0.8327,0.1608 -0.8411,0.1082 -0.8463,0.0552 -0.8481,0.002 z"
     id="path18900"
     style="stroke:#ff0000;fill:none" />
  <path
     d="m 21.886,6.88676 0.5829,-0.23233 0.806,-0.26392 0.8209,-0.2128 0.8328,-0.16082 0.8411,-0.10823 0.8463,-0.05519 0.8481,-0.00194 0.8465,0.05131 0.8417,0.10436 0.8334,0.15701 0.8219,0.20903 0.8072,0.26022 0.7893,0.31039 0.7682,0.35934 0.7441,0.40687 0.7171,0.45279 0.6872,0.49692 0.4845,0.39887 -7.955,7.70206 0.0013,0.0013 -0.0332,-0.0107 -0.1644,-0.0418 -0.1667,-0.0314 -0.1683,-0.0209 -0.1693,-0.0103 -0.0349,10e-5 0.0017,-8e-4 z"
     id="path18898"
     style="stroke:#ff0000;fill:none" />
  <path
     d="m 13.9582,22.5345 10.9629,-1.5553 -3e-4,-0.0018 0.0206,0.0281 0.1084,0.1305 0.1164,0.1234 0.1239,0.1158 0.1309,0.1078 0.0283,0.0204 -0.0018,-3e-4 -1.505,10.9699 -0.6082,-0.1546 -0.8071,-0.2603 -0.7893,-0.3104 -0.7682,-0.3593 -0.7441,-0.4069 -0.7171,-0.4527 -0.6873,-0.497 -0.6547,-0.5391 -0.6196,-0.5791 -0.5819,-0.6169 -0.5421,-0.6522 -0.5001,-0.685 -0.4561,-0.715 -0.4102,-0.7423 -0.3629,-0.7665 -0.314,-0.7878 -0.2639,-0.806 z"
     id="path18896"
     style="stroke:#ff0000;fill:none" />
  <path
     d="m 13.5767,18.9527 0.0513,-0.8465 0.1044,-0.8417 0.157,-0.8334 0.209,-0.8219 0.2602,-0.8072 0.3104,-0.7893 0.3594,-0.7682 0.4068,-0.7441 0.4528,-0.7171 0.4969,-0.6873 0.5391,-0.6547 0.5792,-0.61953 0.6169,-0.58197 0.6522,-0.54209 0.685,-0.50007 0.529,-0.33744 4.8669,9.9457 0.0016,-8e-4 -0.0204,0.0282 -0.0906,0.1434 -0.0813,0.1488 -0.0719,0.1537 -0.0621,0.1578 -0.0107,0.0332 -3e-4,-0.0018 -10.898,1.9585 -0.0409,-0.6261 z"
     id="path18894"
     style="stroke:#ff0000;fill:none" />
  <path
     d="m 7.45013,19.7333 0.0298,0.0325 0.10851,0.1043 0.11486,0.0973 0.12073,0.0899 0.12614,0.0821 0.13104,0.074 0.13544,0.0657 0.1393,0.0571 0.1426,0.0481 0.14534,0.0392 0.14752,0.0299 0.1491,0.0206 0.1501,0.0112 0.15051,0.0018 0.10603,-0.0055 2e-5,0.001 0.60091,-0.0385 3e-5,4e-4 0.02197,-0.0017 0.04632,-6e-4 0.0463,0.0023 0.046,0.0053 0.0456,0.0081 0.045,0.0109 0.0442,0.0138 0.0433,0.0165 0.0422,0.0191 0.0408,0.0218 0.0395,0.0244 0.0378,0.0267 0.0361,0.0291 0.0341,0.0312 0.0322,0.0334 0.0299,0.0353 0.0277,0.0371 0.0254,0.0388 0.0228,0.0403 0.0202,0.0417 0.0176,0.0428 0.0149,0.0439 0.0121,0.0447 0.0093,0.0454 0.0064,0.0459 0.0035,0.0462 5e-4,0.0463 -0.0023,0.0462 -0.0052,0.0461 -0.0081,0.0456 -0.0109,0.045 -0.0138,0.0442 -0.0165,0.0433 -0.0192,0.0422 -0.0218,0.0408 -0.0243,0.0395 -0.0267,0.0378 -0.0291,0.036 -0.0313,0.0342 -0.0333,0.0321 -0.0353,0.03 -0.0372,0.0277 -0.0388,0.0253 -0.0403,0.0229 -0.0416,0.0202 -0.0429,0.0176 -0.0438,0.0149 -0.0447,0.0121 -0.0454,0.0093 -0.0259,0.0036 v 4e-4 l -0.59128,0.0894 1.9e-4,9e-4 -0.10476,0.0172 -0.1467,0.0337 -0.1443,0.0429 -0.14132,0.0518 -0.1378,0.0605 -0.13371,0.0691 -0.12912,0.0774 -0.124,0.0853 -0.1184,0.093 -0.11233,0.1002 -0.10581,0.107 -0.09889,0.1135 -0.09157,0.1195 -0.08388,0.1249 -0.02222,0.0381 0.03499,0.0268 0.12498,0.0839 0.13,0.0759 0.13451,0.0676 0.13848,0.0589 0.14192,0.0502 0.14478,0.0412 0.14708,0.0319 0.1488,0.0227 0.14993,0.0133 0.15048,0.0039 0.15041,-0.0056 0.14977,-0.015 0.14853,-0.0245 0.10347,-0.0237 1.9e-4,10e-4 0.58318,-0.1419 10e-5,4e-4 0.0233,-0.0059 0.0455,-0.0086 0.0459,-0.0058 0.0463,-0.0028 h 0.0463 l 0.0462,0.003 0.046,0.0058 0.0454,0.0088 0.0449,0.0115 0.044,0.0144 0.0431,0.0171 0.0419,0.0198 0.0405,0.0224 0.0391,0.0248 0.0375,0.0273 0.0356,0.0296 0.0337,0.0317 0.0317,0.0338 0.0295,0.0357 0.0272,0.0375 0.0247,0.0392 0.0223,0.0406 0.0197,0.0419 0.017,0.0431 0.0142,0.0441 0.0115,0.0449 0.0086,0.0455 0.0058,0.0459 0.0028,0.0463 v 0.0463 l -0.003,0.0462 -0.0058,0.046 -0.0088,0.0455 -0.0116,0.0448 -0.0143,0.0441 -0.0171,0.043 -0.0198,0.0419 -0.0224,0.0406 -0.0248,0.039 -0.0273,0.0375 -0.0296,0.0356 -0.0317,0.0338 -0.0338,0.0316 -0.0357,0.0295 -0.0376,0.0272 -0.0391,0.0248 -0.0406,0.0222 -0.0419,0.0197 -0.0431,0.017 -0.0215,0.007 10e-5,3e-4 -0.5702,0.1919 4e-4,9e-4 -0.1002,0.0351 -0.13864,0.0587 -0.13466,0.0672 -0.13019,0.0756 -0.12518,0.0835 -0.11968,0.0913 -0.11372,0.0986 -0.1073,0.1056 -0.10046,0.1121 -0.09323,0.1182 -0.08562,0.1238 -0.07767,0.1289 -0.06943,0.1335 -0.06091,0.1377 -0.01527,0.0413 0.03911,0.0204 0.13765,0.0609 0.1412,0.0521 0.1442,0.0432 0.14662,0.034 0.14847,0.0248 0.14973,0.0154 0.1504,0.0059 0.15048,-0.0034 0.15,-0.013 0.1488,-0.0223 0.1472,-0.0316 0.1449,-0.0409 0.142,-0.0498 0.0978,-0.0414 3e-4,10e-4 0.5449,-0.2389 2e-4,5e-4 0.0267,-0.0121 0.0433,-0.0164 0.0442,-0.0136 0.0451,-0.0109 0.0456,-0.008 0.046,-0.0051 0.0463,-0.0022 0.0463,7e-4 0.0462,0.0036 0.0459,0.0065 0.0453,0.0094 0.0447,0.0122 0.0438,0.015 0.0428,0.0177 0.0417,0.0203 0.0402,0.023 0.0387,0.0254 0.0371,0.0278 0.0352,0.03 0.0333,0.0323 0.0312,0.0342 0.029,0.0361 0.0266,0.0379 0.0243,0.0395 0.0217,0.0409 0.019,0.0422 0.0164,0.0434 0.0137,0.0442 0.0108,0.0451 0.008,0.0456 0.0051,0.046 0.0022,0.0463 -7e-4,0.0463 -0.0036,0.0462 -0.0065,0.0458 -0.0094,0.0454 -0.0122,0.0447 -0.0149,0.0438 -0.0177,0.0428 -0.0204,0.0416 -0.0229,0.0403 -0.0254,0.0387 -0.0278,0.0371 -0.0301,0.0352 -0.0322,0.0333 -0.0342,0.0312 -0.0362,0.029 -0.0379,0.0266 -0.0394,0.0242 -0.0198,0.0105 2e-4,4e-4 -0.5284,0.288 5e-4,8e-4 -0.0926,0.052 -0.1263,0.0819 -0.121,0.0896 -0.115,0.097 -0.1088,0.104 -0.102,0.1107 -0.0949,0.1169 -0.0873,0.1226 -0.0795,0.1278 -0.0713,0.1326 -0.0628,0.1367 -0.0541,0.1405 -0.0452,0.1436 -0.0361,0.1461 -0.0078,0.0434 0.042,0.0132 0.1462,0.0361 0.1481,0.0268 0.1495,0.0175 0.1503,0.0081 0.1505,-0.0014 0.1501,-0.0109 0.1492,-0.0202 0.1475,-0.0296 0.1455,-0.0388 0.1427,-0.0478 0.1394,-0.0567 0.1356,-0.0654 0.1313,-0.0737 0.0891,-0.0577 5e-4,8e-4 0.4983,-0.3319 2e-4,3e-4 0.021,-0.0143 0.0398,-0.0237 0.0413,-0.0211 0.0424,-0.0185 0.0436,-0.0158 0.0444,-0.013 0.0452,-0.0102 0.0457,-0.0074 0.0461,-0.0044 0.0463,-0.0016 0.0463,0.0014 0.0462,0.0042 0.0457,0.0072 0.0453,0.01 0.0445,0.0128 0.0436,0.0156 0.0425,0.0183 0.0414,0.0209 0.0399,0.0235 0.0384,0.0259 0.0366,0.0284 0.0348,0.0305 0.0329,0.0327 0.0307,0.0347 0.0284,0.0365 0.0262,0.0382 0.0236,0.0399 0.0212,0.0412 0.0185,0.0425 0.0158,0.0435 0.013,0.0444 0.0102,0.0452 0.0073,0.0458 0.0045,0.0461 0.0016,0.0463 -0.0014,0.0463 -0.0042,0.0461 -0.0072,0.0458 -0.01,0.0452 -0.0128,0.0445 -0.0156,0.0436 -0.0183,0.0426 -0.0209,0.0413 -0.0235,0.0399 -0.026,0.0384 -0.0283,0.0366 -0.0305,0.0349 -0.0327,0.0328 -0.0347,0.0307 -0.02,0.0156 3e-4,4e-4 -0.468,0.3735 6e-4,7e-4 -0.0821,0.0673 -0.1102,0.1025 -0.1036,0.1093 -0.0965,0.1155 -0.089,0.1213 -0.0812,0.1268 -0.0732,0.1315 -0.0647,0.1359 -0.0561,0.1397 -0.0472,0.1429 -0.0381,0.1456 -0.0289,0.1478 -0.0195,0.1492 -0.0102,0.1502 -2e-4,0.0441 0.0437,0.0057 0.1502,0.0102 0.1505,7e-4 0.1503,-0.0088 0.1494,-0.0181 0.148,-0.0276 0.146,-0.0367 0.1433,-0.0459 0.1402,-0.0547 0.1365,-0.0635 0.1323,-0.0718 0.1274,-0.0801 0.1222,-0.0879 0.1164,-0.0954 0.0778,-0.0723 6e-4,7e-4 0.4354,-0.4156 2e-4,3e-4 0.016,-0.0156 0.0351,-0.0302 0.0369,-0.028 0.0387,-0.0255 0.0401,-0.0232 0.0415,-0.0205 0.0427,-0.0179 0.0438,-0.0152 0.0446,-0.0124 0.0453,-0.0096 0.0459,-0.0067 0.0461,-0.0038 0.0463,-9e-4 0.0463,0.002 0.0461,0.0049 0.0456,0.0078 0.0451,0.0106 0.0444,0.0134 0.0434,0.0162 0.0422,0.0189 0.0411,0.0215 0.0396,0.0241 0.038,0.0265 0.0362,0.0288 0.0344,0.031 0.0324,0.0331 0.0302,0.0351 0.028,0.037 0.0256,0.0386 0.0231,0.0401 0.0205,0.0415 0.0179,0.0428 0.0152,0.0437 0.0124,0.0447 0.0096,0.0453 0.0067,0.0458 0.0038,0.0462 9e-4,0.0463 -0.002,0.0463 -0.0049,0.046 -0.0077,0.0457 -0.0107,0.0451 -0.0134,0.0443 -0.0162,0.0434 -0.0189,0.0423 -0.0215,0.041 -0.0241,0.0396 -0.0264,0.038 -0.0289,0.0363 -0.0195,0.0217 3e-4,3e-4 -0.3935,0.4462 8e-4,6e-4 -0.0692,0.0806 -0.0907,0.1201 -0.083,0.1255 -0.075,0.1306 -0.0666,0.1349 -0.058,0.1389 -0.0492,0.1423 -0.0401,0.1451 -0.031,0.1473 -0.0217,0.1489 -0.0122,0.15 -0.0028,0.1505 0.0066,0.1504 0.0161,0.1497 0.0075,0.0434 0.044,-0.0019 0.1497,-0.0161 0.1483,-0.0255 0.1465,-0.0347 0.144,-0.0438 0.1409,-0.0528 0.1374,-0.0615 0.1332,-0.0701 0.1286,-0.0782 0.1234,-0.0862 0.1178,-0.0938 0.1116,-0.101 0.1051,-0.1077 0.098,-0.1142 0.064,-0.0847 8e-4,6e-4 0.3564,-0.4847 4e-4,3e-4 0.0131,-0.0184 0.0293,-0.0358 0.0315,-0.034 0.0336,-0.0319 0.0355,-0.0297 0.0374,-0.0275 0.0389,-0.025 0.0405,-0.0225 0.0418,-0.02 0.043,-0.0173 0.0439,-0.0146 0.0448,-0.0118 0.0455,-0.0089 0.0459,-0.0061 0.0462,-0.0031 0.0463,-3e-4 0.0463,0.0026 0.046,0.0056 0.0455,0.0084 0.0449,0.0112 0.0442,0.0141 0.0431,0.0168 0.0421,0.0195 0.0407,0.0221 0.0392,0.0246 0.0377,0.027 0.0358,0.0293 0.034,0.0315 0.0319,0.0336 0.0297,0.0355 0.0275,0.0373 0.025,0.039 0.0226,0.0404 0.0199,0.0418 0.0173,0.043 0.0146,0.044 0.0118,0.0448 0.0089,0.0454 0.0061,0.0459 0.0032,0.0463 2e-4,0.0463 -0.0026,0.0462 -0.0056,0.046 -0.0084,0.0456 -0.0112,0.0449 -0.0141,0.0441 -0.0168,0.0432 -0.0195,0.042 -0.0221,0.0407 -0.0127,0.0203 4e-4,3e-4 -0.3128,0.5122 9e-4,5e-4 -0.0542,0.0913 -0.0685,0.1341 -0.0599,0.138 -0.0512,0.1416 -0.0422,0.1445 -0.033,0.1468 -0.0237,0.1487 -0.0143,0.1498 -0.0049,0.1505 0.0045,0.1504 0.014,0.1499 0.0234,0.1487 0.0326,0.1469 0.0418,0.1446 0.0149,0.0415 0.0431,-0.0096 0.1446,-0.0418 0.1416,-0.0508 0.1382,-0.0596 0.1342,-0.0682 0.1297,-0.0765 0.1246,-0.0844 0.119,-0.0921 0.1131,-0.0994 0.1065,-0.1063 0.0997,-0.1128 0.0924,-0.1188 0.0848,-0.1244 0.0767,-0.1295 0.0483,-0.0945 9e-4,4e-4 0.2652,-0.5359 4e-4,2e-4 0.0114,-0.0236 0.0226,-0.0404 0.0252,-0.0389 0.0275,-0.0373 0.0298,-0.0354 0.032,-0.0335 0.034,-0.0315 0.036,-0.0292 0.0377,-0.0269 0.0393,-0.0245 0.0407,-0.022 0.0421,-0.0194 0.0432,-0.0167 0.0442,-0.0139 0.0449,-0.0112 0.0456,-0.0083 0.046,-0.0054 0.0463,-0.0026 0.0463,4e-4 0.0462,0.0033 0.0459,0.0062 0.0454,0.009 0.0448,0.0119 0.0439,0.0147 0.0429,0.0174 0.0418,0.0201 0.0404,0.0226 0.0389,0.0252 0.0373,0.0275 0.0354,0.0298 0.0335,0.032 0.0314,0.034 0.0293,0.0359 0.0269,0.0377 0.0245,0.0394 0.022,0.0407 0.0194,0.0421 0.0167,0.0432 0.0139,0.0442 0.0112,0.0449 0.0083,0.0456 0.0054,0.046 0.0025,0.0462 -4e-4,0.0464 -0.0032,0.0462 -0.0062,0.0459 -0.0091,0.0454 -0.0119,0.0448 -0.0146,0.0439 -0.0083,0.0204 4e-4,2e-4 -0.2198,0.5606 9e-4,3e-4 -0.0375,0.0993 -0.0441,0.1439 -0.0351,0.1464 -0.0258,0.1483 -0.0164,0.1496 -0.007,0.1504 0.0024,0.1505 0.0119,0.15 0.0213,0.149 0.0306,0.1474 0.0398,0.1452 0.0488,0.1423 0.0577,0.1391 0.0663,0.1351 0.0219,0.0383 0.0407,-0.0169 0.1351,-0.0663 0.1307,-0.0746 0.1258,-0.0827 0.1203,-0.0905 0.1144,-0.0978 0.108,-0.1048 0.1013,-0.1114 0.094,-0.1175 0.0865,-0.1232 0.0786,-0.1284 0.0704,-0.1331 0.0618,-0.1372 0.0532,-0.1408 0.0311,-0.1015 9e-4,3e-4 0.1676,-0.5719 5e-4,1e-4 0.0076,-0.0271 0.0153,-0.0438 0.018,-0.0426 0.0206,-0.0415 0.0232,-0.0401 0.0257,-0.0385 0.0281,-0.0369 0.0303,-0.035 0.0324,-0.0331 0.0345,-0.0309 0.0363,-0.0288 0.0381,-0.0264 0.0396,-0.0239 0.0411,-0.0214 0.0423,-0.0188 0.0435,-0.0161 0.0443,-0.0133 0.0451,-0.0106 0.0457,-0.0076 0.0461,-0.0048 0.0463,-0.0019 0.0463,10e-4 0.0461,0.004 0.0459,0.0068 0.0453,0.0097 0.0446,0.0125 0.0437,0.0153 0.0427,0.018 0.0414,0.0206 0.0401,0.0232 0.0386,0.0257 0.0368,0.028 0.0351,0.0303 0.033,0.0325 0.031,0.0345 0.0287,0.0363 0.0264,0.0381 0.0239,0.0396 0.0214,0.0411 0.0188,0.0423 0.0161,0.0435 0.0134,0.0443 0.0105,0.0451 0.0076,0.0457 0.0048,0.0461 0.0019,0.0463 -0.001,0.0463 -0.0039,0.0461 -0.0069,0.0458 -0.0049,0.023 h 4e-4 l -0.1188,0.5889 0.001,2e-4 -0.0196,0.1043 -0.0186,0.1494 -0.0091,0.1502 4e-4,0.1505 0.0098,0.1502 0.0192,0.1493 0.0285,0.1478 0.0378,0.1457 0.0468,0.1431 0.0558,0.1398 0.0644,0.136 0.0728,0.1318 0.0809,0.1269 0.0888,0.1215 0.0281,0.034 0.0372,-0.0238 0.1216,-0.0887 0.1157,-0.0962 0.1095,-0.1033 0.1028,-0.11 0.0957,-0.1162 0.0882,-0.1219 0.0804,-0.1273 0.0722,-0.1321 0.0637,-0.1363 0.0551,-0.1401 0.0462,-0.1433 0.0371,-0.1458 0.0279,-0.148 0.013,-0.1053 0.001,1e-4 0.0663,-0.597 h 4e-4 l 0.0023,-0.0233 0.0074,-0.0457 0.0104,-0.0452 0.0131,-0.0444 0.0159,-0.0435 0.0186,-0.0424 0.0212,-0.0412 0.0238,-0.0398 0.0262,-0.0382 0.0285,-0.0364 0.0308,-0.0346 0.033,-0.0326 0.0348,-0.0305 0.0368,-0.0282 0.0384,-0.0259 0.04,-0.0234 0.0414,-0.0208 0.0426,-0.0182 0.0436,-0.0155 0.0445,-0.0127 0.0453,-0.0099 0.0458,-0.007 0.0461,-0.0042 0.0463,-0.0012 0.0463,0.0017 0.0461,0.0045 0.0457,0.0075 0.0452,0.0103 0.0444,0.0132 0.0435,0.0158 0.0424,0.0186 0.0412,0.0213 0.0398,0.0237 0.0382,0.0262 0.0364,0.0286 0.0346,0.0308 0.0326,0.0329 0.0305,0.0349 0.0282,0.0367 0.0259,0.0385 0.0234,0.0399 0.0208,0.0414 0.0182,0.0426 0.0155,0.0437 0.0127,0.0445 0.0099,0.0453 0.007,0.0457 0.0042,0.0462 0.0012,0.0463 -10e-4,0.0282 h 4e-4 l -0.0146,0.5958 h 0.001 l -0.0012,0.1061 0.0077,0.1503 0.0171,0.1496 0.0265,0.1482 0.0357,0.1462 0.0448,0.1437 0.0538,0.1405 0.0625,0.137 0.071,0.1327 0.0791,0.128 0.0871,0.1228 0.0946,0.1171 0.1017,0.1109 0.1085,0.1044 0.0337,0.0285 0.0325,-0.0298 0.1043,-0.1086 0.0973,-0.1148 0.0898,-0.1207 0.0822,-0.1262 0.074,-0.131 0.0657,-0.1355 0.057,-0.1393 0.0482,-0.1426 0.0391,-0.1453 0.03,-0.1475 0.0206,-0.1491 0.0112,-0.1501 0.0017,-0.1505 -0.0054,-0.1061 h 10e-4 l -0.0385,-0.6009 h 4e-4 l -0.0017,-0.022 -6e-4,-0.0463 0.0023,-0.0463 0.0052,-0.046 0.0081,-0.0456 0.011,-0.045 0.0137,-0.0442 0.0165,-0.0433 0.0192,-0.0422 0.0218,-0.0409 0.0243,-0.0394 0.0268,-0.0378 0.029,-0.0361 0.0313,-0.0341 0.0334,-0.0322 0.0353,-0.03 0.0371,-0.0277 0.0388,-0.0253 0.0403,-0.0228 0.0417,-0.0203 0.0428,-0.0176 0.0439,-0.0148 0.0447,-0.0121 0.0454,-0.0093 0.0459,-0.0064 0.0461,-0.0035 0.0464,-6e-4 0.0462,0.0024 0.046,0.0052 0.0457,0.0081 0.045,0.0109 0.0442,0.0138 0.0433,0.0165 0.0421,0.0192 0.0409,0.0217 0.0394,0.0244 0.0379,0.0267 0.036,0.0291 0.0342,0.0313 0.0321,0.0333 0.03,0.0353 0.0277,0.0371 0.0253,0.0388 0.0229,0.0403 0.0202,0.0417 0.0176,0.0428 0.0149,0.0439 0.0121,0.0447 0.0092,0.0454 0.0036,0.0259 h 5e-4 l 0.0893,0.5913 0.001,-2e-4 0.0172,0.1047 0.0337,0.1467 0.0428,0.1443 0.0518,0.1414 0.0606,0.1377 0.0691,0.1338 0.0774,0.1291 0.0853,0.124 0.093,0.1184 0.1001,0.1123 0.1071,0.1058 0.1135,0.0989 0.1194,0.0916 0.125,0.0839 0.0381,0.0222 0.0268,-0.035 0.0839,-0.125 0.0759,-0.13 0.0675,-0.1345 0.059,-0.1385 0.0502,-0.1419 0.0411,-0.1448 0.032,-0.1471 0.0227,-0.1488 0.0133,-0.1499 0.0039,-0.1505 -0.0056,-0.1504 -0.0151,-0.1497 -0.0244,-0.1486 -0.0237,-0.1035 9e-4,-10e-5 -0.1418,-0.5833 4e-4,-1e-4 -0.0059,-0.0232 -0.0087,-0.0455 -0.0057,-0.0459 -0.0029,-0.0463 10e-5,-0.0463 0.003,-0.0462 0.0058,-0.046 0.0088,-0.0455 0.0115,-0.0448 0.0144,-0.044 0.0171,-0.0431 0.0198,-0.0419 0.0223,-0.0405 0.0249,-0.0391 0.0273,-0.0375 0.0295,-0.0356 0.0318,-0.0338 0.0338,-0.0316 0.0357,-0.0295 0.0375,-0.0272 0.0392,-0.0248 0.0406,-0.0222 0.0419,-0.0197 0.0431,-0.017 0.0441,-0.0143 0.0449,-0.0114 0.0455,-0.0086 0.0459,-0.0058 0.0463,-0.0029 0.0463,10e-5 0.0462,0.003 0.046,0.0058 0.0454,0.0088 0.0449,0.0115 0.044,0.0144 0.0431,0.0171 0.0419,0.0198 0.0405,0.0223 0.0391,0.0249 0.0375,0.0273 0.0356,0.0295 0.0337,0.0318 0.0317,0.0338 0.0295,0.0357 0.0272,0.0375 0.0247,0.0392 0.0223,0.0406 0.0197,0.0419 0.017,0.0431 0.0069,0.0215 4e-4,-1e-4 0.1918,0.5702 10e-4,-4e-4 0.0351,0.1002 0.0586,0.1386 0.0673,0.1347 0.0755,0.1302 0.0836,0.1251 0.0913,0.1197 0.0986,0.1138 0.1056,0.1073 0.1121,0.1004 0.1181,0.0932 0.1238,0.0857 0.129,0.0776 0.1335,0.0695 0.1377,0.0609 0.0413,0.0152 0.0204,-0.0391 0.0609,-0.1376 0.0521,-0.1412 0.0432,-0.1442 0.034,-0.1466 0.0248,-0.1485 0.0154,-0.1497 0.0059,-0.1504 -0.0035,-0.1505 -0.0129,-0.15 -0.0223,-0.1488 -0.0317,-0.1472 -0.0408,-0.1449 -0.0498,-0.142 -0.0414,-0.0978 9e-4,-3e-4 -0.2388,-0.5449 4e-4,-2e-4 -0.012,-0.0267 -0.0164,-0.0433 -0.0136,-0.0443 -0.0109,-0.045 -0.008,-0.0456 -0.0051,-0.0461 -0.0022,-0.0462 7e-4,-0.0463 0.0036,-0.0462 0.0065,-0.0459 0.0094,-0.0453 0.0122,-0.0447 0.015,-0.0439 0.0177,-0.0428 0.0203,-0.0416 0.023,-0.0402 0.0254,-0.0388 0.0278,-0.037 0.03,-0.0352 0.0322,-0.0333 0.0343,-0.0312 0.0361,-0.029 0.0379,-0.0267 0.0395,-0.0242 0.0409,-0.0217 0.0422,-0.0191 0.0433,-0.0164 0.0443,-0.0136 0.045,-0.0108 0.0457,-0.008 0.046,-0.0051 0.0463,-0.0022 0.0463,7e-4 0.0462,0.0036 0.0458,0.0065 0.0454,0.0093 0.0447,0.0122 0.0438,0.015 0.0428,0.0177 0.0416,0.0204 0.0403,0.0229 0.0387,0.0254 0.037,0.0278 0.0353,0.0301 0.0333,0.0322 0.0312,0.0342 0.0289,0.0362 0.0267,0.0378 0.0242,0.0395 0.0105,0.0197 3e-4,-2e-4 0.2881,0.5285 8e-4,-5e-4 0.052,0.0926 0.0818,0.1263 0.0896,0.1209 0.0971,0.1151 0.104,0.1088 0.1107,0.102 0.1169,0.0949 0.1225,0.0873 0.1279,0.0795 0.1325,0.0713 0.1368,0.0628 0.1405,0.0541 0.1436,0.0452 0.1461,0.0361 0.0434,0.0078 0.0132,-0.042 0.0361,-0.1462 0.0268,-0.1481 0.0175,-0.1495 0.0081,-0.1503 -0.0014,-0.1505 -0.0109,-0.1501 -0.0202,-0.1492 -0.0296,-0.1476 -0.0388,-0.1454 -0.0478,-0.1427 -0.0567,-0.1395 -0.0654,-0.1355 -0.0737,-0.1313 -0.0577,-0.0891 8e-4,-5e-4 -0.332,-0.4983 4e-4,-2e-4 -0.0143,-0.021 -0.0237,-0.0399 -0.0211,-0.0412 -0.0185,-0.0424 -0.0158,-0.0436 -0.013,-0.0444 -0.0102,-0.0452 -0.0074,-0.0458 -0.0044,-0.0461 -0.0016,-0.0463 0.0013,-0.0463 0.0043,-0.0461 0.0071,-0.0457 0.01,-0.0453 0.0129,-0.0445 0.0156,-0.0436 0.0183,-0.0426 0.0209,-0.0413 0.0235,-0.0399 0.0259,-0.0384 0.0283,-0.0366 0.0306,-0.0349 0.0327,-0.0328 0.0346,-0.0307 0.0366,-0.0285 0.0382,-0.0261 0.0398,-0.0237 0.0413,-0.0211 0.0424,-0.0185 0.0436,-0.0158 0.0444,-0.013 0.0452,-0.0102 0.0457,-0.0074 0.0461,-0.0044 0.0463,-0.0016 0.0463,0.0014 0.0462,0.0042 0.0457,0.0072 0.0453,0.01 0.0445,0.0128 0.0436,0.0156 0.0425,0.0183 0.0414,0.0209 0.0399,0.0235 0.0384,0.0259 0.0366,0.0284 0.0348,0.0305 0.0329,0.0327 0.0307,0.0347 0.0156,0.02 3e-4,-3e-4 0.3735,0.468 8e-4,-6e-4 0.0673,0.0821 0.1025,0.1102 0.1092,0.1035 0.1156,0.0965 0.1213,0.0891 0.1267,0.0812 0.1316,0.0732 0.1359,0.0647 0.1397,0.0561 0.1429,0.0471 0.1456,0.0382 0.1477,0.0289 0.1493,0.0195 0.1502,0.0102 0.044,2e-4 0.0058,-0.0437 0.0101,-0.1502 7e-4,-0.1505 -0.0087,-0.1503 -0.0182,-0.1494 -0.0275,-0.148 -0.0367,-0.146 -0.0459,-0.1433 -0.0547,-0.1402 -0.0635,-0.1365 -0.0719,-0.1323 -0.08,-0.1274 -0.0879,-0.1222 -0.0954,-0.1165 -0.0723,-0.0777 7e-4,-6e-4 -0.4156,-0.4354 3e-4,-3e-4 -0.0156,-0.0159 -0.0302,-0.0351 -0.028,-0.037 L 38.8197,31.6301 38.7966,31.59 38.7761,31.5485 38.7582,31.5057 38.743,31.462 38.7306,31.4174 38.721,31.372 38.7143,31.3262 38.7105,31.28 l -9e-4,-0.0463 0.002,-0.0462 0.0049,-0.0461 0.0077,-0.0457 0.0107,-0.0451 0.0134,-0.0443 0.0162,-0.0434 0.0189,-0.0423 0.0215,-0.041 0.0241,-0.0396 0.0264,-0.038 0.0289,-0.0363 0.031,-0.0343 0.0331,-0.0324 0.0351,-0.0302 0.037,-0.028 0.0386,-0.0256 0.0401,-0.0231 0.0415,-0.0205 0.0427,-0.0179 0.0438,-0.0152 0.0446,-0.0124 0.0454,-0.0096 0.0458,-0.0067 0.0462,-0.0038 0.0463,-9e-4 0.0462,0.0019 0.0461,0.0049 0.0457,0.0078 0.045,0.0107 0.0444,0.0134 0.0434,0.0162 0.0423,0.0189 0.041,0.0215 0.0396,0.024 0.038,0.0265 0.0363,0.0288 0.0216,0.0196 4e-4,-3e-4 0.4462,0.3935 6e-4,-8e-4 0.0805,0.0692 0.1201,0.0907 0.1256,0.083 0.1305,0.075 0.135,0.0666 0.1389,0.058 0.1423,0.0492 0.145,0.0401 0.1473,0.031 0.149,0.0216 0.15,0.0123 0.1505,0.0028 0.1504,-0.0067 0.1496,-0.016 0.0435,-0.0075 -0.002,-0.044 -0.016,-0.1497 -0.0255,-0.1483 -0.0347,-0.1465 -0.0438,-0.144 -0.0528,-0.141 -0.0615,-0.1373 -0.0701,-0.1333 -0.0783,-0.1285 -0.0861,-0.1234 -0.0938,-0.1178 -0.101,-0.1116 -0.1078,-0.1051 -0.1141,-0.0981 -0.0847,-0.064 6e-4,-7e-4 -0.4847,-0.3564 3e-4,-4e-4 -0.0184,-0.0131 -0.0358,-0.0294 -0.034,-0.0315 -0.0319,-0.0335 -0.0297,-0.0356 -0.0275,-0.0373 -0.025,-0.0389 -0.0226,-0.0405 -0.0199,-0.0418 -0.0173,-0.043 -0.0146,-0.0439 -0.0118,-0.0448 -0.0089,-0.0455 -0.0061,-0.0459 -0.0032,-0.0462 -2e-4,-0.0463 0.0026,-0.0463 0.0055,-0.046 0.0085,-0.0455 0.0112,-0.045 0.0141,-0.0441 0.0168,-0.0432 0.0195,-0.042 0.022,-0.0407 0.0246,-0.0393 0.027,-0.0376 0.0294,-0.0358 0.0315,-0.034 0.0336,-0.0319 0.0355,-0.0297 0.0373,-0.0275 0.039,-0.025 0.0404,-0.0226 0.0418,-0.0199 0.043,-0.0173 0.044,-0.0146 0.0448,-0.0118 0.0454,-0.0089 0.0459,-0.0061 0.0462,-0.0032 0.0464,-2e-4 0.0462,0.0026 0.046,0.0055 0.0455,0.0085 0.045,0.0112 0.0441,0.0141 0.0432,0.0168 0.042,0.0195 0.0407,0.022 0.0203,0.0128 2e-4,-4e-4 0.5123,0.3128 5e-4,-9e-4 0.0913,0.0542 0.134,0.0685 0.1381,0.0599 0.1416,0.0512 0.1445,0.0421 0.1468,0.033 0.1487,0.0238 0.1498,0.0143 0.1504,0.0049 0.1505,-0.0045 0.1499,-0.014 0.1486,-0.0234 0.147,-0.0326 0.1446,-0.0419 0.0415,-0.0148 -0.0096,-0.0431 -0.0418,-0.1446 -0.0508,-0.1417 -0.0596,-0.1382 -0.0682,-0.1342 -0.0765,-0.1296 -0.0844,-0.1246 -0.0921,-0.1191 -0.0995,-0.113 -0.1063,-0.1065 -0.1127,-0.0997 -0.1189,-0.0924 -0.1244,-0.0848 -0.1294,-0.0767 -0.0946,-0.0484 5e-4,-8e-4 -0.5359,-0.2653 1e-4,-4e-4 -0.0235,-0.0113 -0.0405,-0.0226 -0.0389,-0.0252 -0.0372,-0.0275 -0.0355,-0.0298 -0.0335,-0.032 -0.0314,-0.034 -0.0292,-0.036 -0.0269,-0.0377 -0.0245,-0.0393 -0.022,-0.0408 -0.0194,-0.042 -0.0167,-0.0432 -0.014,-0.0442 -0.0111,-0.045 -0.0083,-0.0455 -0.0054,-0.046 -0.0026,-0.0463 4e-4,-0.0463 0.0033,-0.0462 0.0062,-0.0459 0.009,-0.0454 0.0119,-0.0448 0.0147,-0.0439 0.0174,-0.043 0.02,-0.0417 0.0227,-0.0404 0.0251,-0.0389 0.0276,-0.0373 0.0298,-0.0354 0.032,-0.0335 0.034,-0.0315 0.0359,-0.0292 0.0377,-0.0269 0.0393,-0.0245 0.0408,-0.022 0.0421,-0.0194 0.0432,-0.0167 0.0441,-0.0139 0.045,-0.0112 0.0456,-0.0083 0.046,-0.0054 0.0462,-0.0025 0.0463,3e-4 0.0462,0.0033 0.046,0.0062 0.0454,0.0091 0.0448,0.0118 0.0439,0.0147 0.0204,0.0083 2e-4,-4e-4 0.5606,0.2198 3e-4,-9e-4 0.0993,0.0374 0.1439,0.0442 0.1464,0.0351 0.1483,0.0258 0.1496,0.0164 0.1504,0.007 0.1505,-0.0024 0.15,-0.0119 0.149,-0.0213 0.1474,-0.0306 0.1451,-0.0398 0.1424,-0.0488 0.1391,-0.0577 0.1351,-0.0663 0.0383,-0.0219 -0.0169,-0.0407 -0.0663,-0.1351 -0.0747,-0.1308 -0.0827,-0.1257 -0.0904,-0.1203 -0.0978,-0.1144 -0.1048,-0.1081 -0.1114,-0.1012 -0.1175,-0.0941 -0.1232,-0.0864 -0.1284,-0.0786 -0.1331,-0.0704 -0.1372,-0.0618 -0.1408,-0.0532 -0.1015,-0.0311 3e-4,-10e-4 -0.5719,-0.1675 1e-4,-5e-4 -0.0272,-0.0076 -0.0437,-0.0153 -0.0427,-0.018 -0.0414,-0.0206 -0.0401,-0.0232 -0.0386,-0.0257 -0.0368,-0.0281 -0.0351,-0.0303 -0.033,-0.0324 -0.031,-0.0345 -0.0287,-0.0363 -0.0264,-0.0381 -0.0239,-0.0396 -0.0214,-0.0411 -0.0188,-0.0424 -0.0161,-0.0434 -0.0134,-0.0444 -0.0105,-0.0451 -0.0077,-0.0456 -0.0047,-0.0461 -0.0019,-0.0463 10e-4,-0.0463 0.0039,-0.0462 0.0069,-0.0458 0.0096,-0.0453 0.0125,-0.0446 0.0153,-0.0437 0.018,-0.0427 0.0207,-0.0414 0.0232,-0.0401 0.0257,-0.0386 0.028,-0.0368 0.0303,-0.0351 0.0325,-0.033 0.0344,-0.031 0.0364,-0.0287 0.038,-0.0264 0.0397,-0.0239 0.0411,-0.0215 0.0423,-0.0187 0.0434,-0.0161 0.0444,-0.0134 0.0451,-0.0105 0.0457,-0.0077 0.0461,-0.0048 0.0462,-0.0018 0.0463,0.001 0.0462,0.0039 0.0458,0.0068 0.0229,0.0049 1e-4,-4e-4 0.5889,0.1188 10e-5,-9e-4 0.1044,0.0196 0.1494,0.0185 0.1502,0.0092 0.1505,-4e-4 0.1502,-0.0098 0.1493,-0.0192 0.1478,-0.0285 0.1457,-0.0378 0.143,-0.0468 0.1399,-0.0558 0.136,-0.0644 0.1318,-0.0728 0.1269,-0.0809 0.1215,-0.0888 0.0339,-0.0282 -0.0237,-0.0371 -0.0887,-0.1216 -0.0962,-0.1158 -0.1033,-0.1095 -0.11,-0.1027 -0.1162,-0.0957 -0.122,-0.0882 -0.1272,-0.0804 -0.1321,-0.0722 -0.1363,-0.0638 -0.1401,-0.0551 -0.1433,-0.0461 -0.1459,-0.0371 -0.1479,-0.0279 -0.1053,-0.0131 1e-4,-9e-4 -0.5971,-0.0663 1e-4,-4e-4 -0.0233,-0.0023 -0.0458,-0.0075 -0.0451,-0.0103 -0.0444,-0.0131 -0.0435,-0.0159 -0.0425,-0.0186 -0.0411,-0.0212 -0.0398,-0.0238 -0.0382,-0.0262 -0.0365,-0.0286 -0.0346,-0.0308 -0.0326,-0.0329 -0.0304,-0.0349 -0.0282,-0.0367 -0.0259,-0.0384 -0.0234,-0.04 -0.0208,-0.0414 -0.0182,-0.0426 -0.0155,-0.0436 -0.0127,-0.0446 -0.0099,-0.0452 -0.007,-0.0458 -0.0042,-0.0461 -0.0012,-0.0463 0.0016,-0.0463 0.0046,-0.0461 0.0075,-0.0457 0.0103,-0.0452 0.0131,-0.0444 0.0159,-0.0435 0.0186,-0.0425 0.0212,-0.0411 0.0238,-0.0398 0.0262,-0.0382 0.0286,-0.0364 0.0308,-0.0346 0.0329,-0.0326 0.0349,-0.0305 0.0367,-0.0282 0.0384,-0.0259 0.04,-0.0234 0.0414,-0.0208 0.0426,-0.0182 0.0436,-0.0155 0.0446,-0.0127 0.0452,-0.0099 0.0458,-0.007 0.0462,-0.0042 0.0463,-0.0012 0.0282,0.001 v -5e-4 l 0.5957,0.0147 v -0.001 l 0.1062,0.0012 0.1503,-0.0077 0.1496,-0.0171 0.1481,-0.0265 0.1462,-0.0357 0.1437,-0.0448 0.1406,-0.0538 0.137,-0.0625 0.1327,-0.071 0.128,-0.0791 0.1228,-0.0871 0.1171,-0.0946 0.1109,-0.1017 0.1043,-0.1085 0.0285,-0.0337 -0.0298,-0.0325 -0.1085,-0.1043 -0.1148,-0.0973 -0.1208,-0.0899 -0.1261,-0.0821 -0.1311,-0.074 -0.1354,-0.0657 -0.1393,-0.0571 -0.1426,-0.0481 -0.1453,-0.0392 -0.1475,-0.0299 -0.1491,-0.0206 -0.1502,-0.0112 -0.1505,-0.0018 -0.106,0.0055 v -0.001 l -0.6009,0.0385 v -4e-4 l -0.022,0.0017 -0.0463,6e-4 -0.0463,-0.0023 -0.046,-0.0053 -0.0456,-0.0081 -0.045,-0.0109 -0.0443,-0.0138 -0.0433,-0.0165 -0.0421,-0.0191 -0.0409,-0.0218 -0.0394,-0.0244 -0.0378,-0.0267 -0.0361,-0.0291 -0.0342,-0.0312 -0.0321,-0.0334 -0.03,-0.0353 -0.0277,-0.0371 -0.0253,-0.0388 -0.0228,-0.0403 -0.0203,-0.0417 -0.0176,-0.0428 -0.0149,-0.0439 -0.012,-0.0447 -0.0093,-0.0454 -0.0064,-0.0459 -0.0035,-0.0462 -6e-4,-0.0463 0.0023,-0.0462 0.0052,-0.0461 0.0081,-0.0456 0.011,-0.045 0.0137,-0.0442 0.0165,-0.0433 0.0192,-0.0422 0.0218,-0.0408 0.0243,-0.0395 0.0268,-0.0378 0.0291,-0.036 0.0312,-0.0342 0.0334,-0.0321 0.0353,-0.03 0.0371,-0.0277 0.0388,-0.0253 0.0403,-0.0229 0.0417,-0.0202 0.0428,-0.0176 0.0439,-0.0149 0.0447,-0.0121 0.0454,-0.0093 0.0259,-0.0036 v -4e-4 l 0.5912,-0.0894 -2e-4,-9e-4 0.1048,-0.0172 0.1467,-0.0337 0.1443,-0.0429 0.1413,-0.0518 0.1378,-0.0605 0.1337,-0.0691 0.1292,-0.0774 0.124,-0.0853 0.1184,-0.093 0.1123,-0.1002 0.1058,-0.107 0.0989,-0.1135 0.0916,-0.1195 0.0838,-0.1249 0.0223,-0.0381 -0.035,-0.0268 -0.125,-0.0839 -0.13,-0.0759 -0.1345,-0.0676 -0.1385,-0.0589 -0.1419,-0.0502 -0.1448,-0.0412 -0.1471,-0.0319 -0.1488,-0.0227 -0.1499,-0.0133 -0.1505,-0.0039 -0.1504,0.0056 -0.1498,0.015 -0.1485,0.0245 -0.1035,0.0237 -2e-4,-10e-4 -0.5832,0.1419 -1e-4,-4e-4 -0.0232,0.0059 -0.0455,0.0086 -0.046,0.0058 -0.0462,0.0028 H 43.5376 L 43.4914,15.3102 43.4454,15.3044 43.3999,15.2956 43.3551,15.2841 43.311,15.2697 43.268,15.2526 43.2261,15.2328 43.1855,15.2104 43.1464,15.1856 43.109,15.1583 43.0734,15.1287 43.0396,15.097 43.008,15.0632 42.9785,15.0275 42.9513,14.99 l -0.0248,-0.0392 -0.0222,-0.0406 -0.0197,-0.0419 -0.017,-0.0431 -0.0143,-0.0441 -0.0114,-0.0449 -0.0087,-0.0455 -0.0057,-0.0459 -0.0029,-0.0463 1e-4,-0.0463 0.0029,-0.0462 0.0059,-0.046 0.0087,-0.0455 0.0116,-0.0448 0.0144,-0.0441 0.0171,-0.043 0.0198,-0.0419 0.0223,-0.0406 0.0249,-0.039 0.0273,-0.0375 0.0295,-0.0356 0.0318,-0.0338 0.0338,-0.0316 0.0357,-0.0295 0.0375,-0.0272 0.0392,-0.0248 0.0406,-0.0222 0.0419,-0.0197 0.0431,-0.017 0.0215,-0.0069 -2e-4,-4e-4 0.5702,-0.1919 -3e-4,-9e-4 0.1002,-0.0351 0.1386,-0.0587 0.1347,-0.0672 0.1301,-0.0756 0.1252,-0.0835 0.1197,-0.0913 0.1137,-0.0986 0.1073,-0.1056 0.1005,-0.1121 0.0932,-0.1182 0.0856,-0.1238 0.0777,-0.1289 0.0694,-0.1335 0.061,-0.1377 0.0152,-0.0413 -0.0391,-0.0204 -0.1376,-0.0609 -0.1412,-0.0521 -0.1442,-0.0432 -0.1467,-0.034 -0.1484,-0.0248 -0.1498,-0.0154 -0.1504,-0.0059 -0.1504,0.0035 -0.15,0.0129 -0.1489,0.0223 -0.1471,0.0317 -0.1449,0.0408 -0.142,0.0498 -0.0978,0.0414 -4e-4,-10e-4 -0.5449,0.2389 -2e-4,-5e-4 -0.0266,0.0121 -0.0433,0.0164 -0.0443,0.0136 -0.045,0.0109 -0.0456,0.008 -0.0461,0.0051 -0.0462,0.0022 -0.0464,-7e-4 -0.0461,-0.0036 -0.0459,-0.0065 -0.0454,-0.0094 -0.0447,-0.0122 -0.0438,-0.015 -0.0428,-0.0177 -0.0416,-0.0203 -0.0402,-0.023 -0.0388,-0.0254 -0.037,-0.0278 -0.0353,-0.03 -0.0333,-0.0323 -0.0311,-0.0342 -0.029,-0.0361 -0.0267,-0.0379 -0.0242,-0.0395 -0.0217,-0.0409 -0.0191,-0.0422 -0.0164,-0.0434 -0.0136,-0.0442 -0.0109,-0.045 -0.008,-0.0457 -0.0051,-0.046 -0.0022,-0.0463 7e-4,-0.0463 0.0036,-0.0462 0.0065,-0.0458 0.0094,-0.0454 0.0122,-0.0447 0.015,-0.0438 0.0177,-0.0428 0.0203,-0.0416 0.023,-0.0403 0.0254,-0.0387 0.0278,-0.0371 0.03,-0.0352 0.0323,-0.0333 0.0342,-0.0312 0.0361,-0.029 0.0379,-0.0266 0.0395,-0.0242 0.0197,-0.0105 -2e-4,-3e-4 0.5285,-0.2881 -5e-4,-8e-4 0.0925,-0.052 0.1264,-0.0819 0.1209,-0.0896 0.1151,-0.097 0.1088,-0.104 0.102,-0.1107 0.0948,-0.1169 0.0874,-0.1226 L 43.5921,9.94271 43.6633,9.81014 43.7262,9.67336 43.7803,9.5329 43.8255,9.38932 43.8615,9.24319 43.8694,9.19981 43.8273,9.18657 43.6812,9.15049 43.5331,9.12366 43.3836,9.10618 43.2333,9.09812 l -0.1505,0.0014 -0.1502,0.01084 -0.1491,0.02025 -0.1476,0.02958 -0.1454,0.03878 -0.1427,0.04784 -0.1395,0.0567 -0.1356,0.06535 -0.1312,0.07374 -0.0891,0.05771 -5e-4,-8.4e-4 -0.4983,0.33196 -3e-4,-3.7e-4 L 41.3323,9.8454 41.2925,9.86907 41.2513,9.89019 41.2088,9.90868 41.1653,9.92447 41.1208,9.9375 41.0757,9.94771 41.0299,9.95506 40.9838,9.95952 40.9375,9.96108 40.8912,9.95973 40.8451,9.95548 40.7993,9.94834 40.7541,9.93834 40.7096,9.92552 40.666,9.90993 40.6234,9.89163 40.5821,9.87069 40.5422,9.84721 40.5038,9.82126 40.4671,9.79295 40.4323,9.7624 40.3995,9.72972 40.3688,9.69505 40.3403,9.65851 40.3142,9.62026 40.2905,9.58044 40.2694,9.53922 40.2509,9.49675 40.2351,9.45321 40.2221,9.40875 40.2119,9.36357 40.2045,9.31784 40.2001,9.27173 40.1985,9.22544 l 0.0013,-0.0463 0.0043,-0.04612 0.0071,-0.04577 0.01,-0.04523 0.0129,-0.04451 0.0156,-0.04362 0.0183,-0.04255 0.0209,-0.04132 0.0235,-0.03993 0.0259,-0.03837 0.0283,-0.03666 0.0306,-0.03482 0.0327,-0.03282 0.0346,-0.03072 0.0201,-0.01562 -3e-4,-3.4e-4 0.468,-0.3735 -7e-4,-7.4e-4 L 41.0338,8.19921 41.144,8.09668 41.2475,7.98744 41.344,7.87192 41.4331,7.75056 41.5143,7.62385 41.5874,7.49229 41.6522,7.3564 41.7082,7.21671 41.7554,7.07377 41.7935,6.92816 41.8224,6.78044 41.842,6.6312 41.8521,6.48102 41.8524,6.43693 41.8086,6.4312 41.6585,6.42105 l -0.1506,-7.1e-4 -0.1502,0.00875 -0.1494,0.01816 -0.148,0.02751 -0.146,0.03675 -0.1434,0.04584 -0.1402,0.05476 -0.1365,0.06345 -0.1322,0.07189 -0.1275,0.08006 -0.1222,0.0879 -0.1164,0.0954 -0.0777,0.07231 -7e-4,-7.4e-4 -0.4353,0.41558 -3e-4,-2.9e-4 L 39.466,7.51327 39.4308,7.54349 39.3939,7.57145 39.3553,7.59704 39.3152,7.62015 39.2737,7.6407 39.2309,7.6586 39.1872,7.67378 39.1425,7.68618 39.0972,7.69576 39.0514,7.70247 39.0052,7.70629 38.9589,7.7072 38.9126,7.70521 38.8666,7.70031 38.8209,7.69253 38.7758,7.6819 38.7315,7.66846 38.6881,7.65226 38.6458,7.63337 38.6048,7.61186 38.5652,7.58782 38.5272,7.56134 38.4909,7.53252 38.4565,7.50149 38.4242,7.46835 38.3939,7.43325 38.366,7.39632 38.3404,7.35771 38.3173,7.31757 38.2967,7.27606 38.2788,7.23333 38.2637,7.18957 38.2513,7.14494 38.2417,7.09962 38.235,7.05379 38.2311,7.00763 l -9e-4,-0.04631 0.002,-0.04628 0.0049,-0.04606 0.0078,-0.04566 0.0106,-0.04509 0.0135,-0.04433 0.0162,-0.04339 0.0189,-0.0423 0.0215,-0.04102 0.024,-0.03959 0.0265,-0.03801 0.0288,-0.03626 0.0196,-0.0217 -4e-4,-3.3e-4 0.3935,-0.44622 -7e-4,-6.2e-4 0.0692,-0.08053 0.0907,-0.1201 0.083,-0.12556 0.075,-0.13053 0.0666,-0.13497 0.058,-0.13889 0.0492,-0.14226 0.0401,-0.14507 0.031,-0.14731 0.0216,-0.14895 0.0123,-0.15002 0.0028,-0.1505 -0.0067,-0.15037 -0.0161,-0.14966 -0.0074,-0.04345 -0.0441,0.00194 -0.1496,0.01608 -0.1484,0.02544 -0.1464,0.03471 -0.144,0.04384 -0.141,0.05279 -0.1374,0.06153 -0.1332,0.07005 -0.1286,0.07826 -0.1234,0.08619 -0.1177,0.09377 -0.1116,0.10097 -0.1051,0.10778 -0.0981,0.11417 -0.064,0.08472 -8e-4,-6.2e-4 -0.3564,0.48466 -3e-4,-2.4e-4 -0.0132,0.01834 -0.0293,0.03586 -0.0315,0.03395 -0.0336,0.0319 -0.0355,0.02973 -0.0373,0.02744 -0.039,0.02505 -0.0404,0.02255 -0.0418,0.01996 -0.043,0.0173 -0.044,0.01457 L 36.8027,5.81076 36.7573,5.8197 36.7114,5.82577 36.6652,5.82895 36.6188,5.82922 36.5726,5.82658 36.5266,5.82104 36.4811,5.81262 36.4361,5.80136 36.392,5.7873 36.3488,5.7705 36.3068,5.75102 36.2661,5.72894 36.2268,5.70435 36.1892,5.67734 36.1533,5.64802 36.1194,5.61651 36.0875,5.58292 36.0577,5.54741 36.0303,5.51009 36.0053,5.47112 35.9827,5.43066 35.9627,5.38887 35.9454,5.3459 35.9309,5.30193 35.9191,5.25713 35.9102,5.21168 35.9041,5.16576 35.9009,5.11955 35.9006,5.07323 35.9033,5.02698 35.9088,4.981 l 0.0084,-0.04555 0.0113,-0.04494 0.0141,-0.04413 0.0168,-0.04317 0.0194,-0.04202 0.0221,-0.04072 0.0127,-0.0203 -3e-4,-2.3e-4 0.3128,-0.51227 -9e-4,-4.8e-4 0.0542,-0.09132 0.0684,-0.13403 0.06,-0.13807 0.0511,-0.14156 0.0422,-0.14449 0.033,-0.14686 L 36.6578,3.24222 36.6722,3.09239 36.6771,2.94195 36.6726,2.7915 36.6586,2.64163 36.6352,2.49293 36.6025,2.346 36.5607,2.2014 36.5458,2.1599 l -0.043,0.00957 -0.1446,0.04182 -0.1417,0.05082 -0.1382,0.05961 -0.1342,0.06817 -0.1296,0.07647 -0.1246,0.08446 -0.1191,0.09211 -0.113,0.0994 -0.1066,0.10631 -0.0996,0.11279 -0.0924,0.11882 -0.0848,0.12439 -0.0768,0.12947 -0.0483,0.09454 -8e-4,-4.8e-4 -0.2653,0.53596 -4e-4,-1.9e-4 -0.0113,0.02359 -0.0227,0.0404 -0.0251,0.03891 -0.0275,0.03725 -0.0299,0.03545 -0.0319,0.0335 -0.0341,0.03143 -0.0359,0.02924 -0.0377,0.02692 -0.0393,0.0245 -0.0408,0.02198 -0.042,0.01938 -0.0433,0.0167 -0.0441,0.01395 -0.045,0.01115 L 34.1267,4.3766 34.0806,4.38203 34.0344,4.38456 33.9881,4.38418 33.9419,4.38089 33.896,4.37471 33.8505,4.36566 33.8058,4.35377 33.7618,4.3391 33.7189,4.3217 33.6772,4.30163 33.6368,4.27899 33.5978,4.25385 33.5606,4.22631 33.5252,4.1965 33.4916,4.16451 33.4602,4.13049 33.431,4.09456 33.4041,4.05686 33.3796,4.01755 33.3576,3.97678 33.3382,3.93471 33.3215,3.8915 33.3076,3.84733 33.2964,3.80238 33.2881,3.75681 33.2827,3.7108 33.2801,3.66455 33.2805,3.61824 33.2838,3.57203 33.29,3.52613 33.299,3.4807 33.3109,3.43593 33.3256,3.39199 33.3339,3.37158 33.3335,3.37143 33.5533,2.81083 33.5523,2.81051 33.5898,2.71117 33.634,2.56728 33.6691,2.4209 33.6948,2.27261 33.7113,2.12299 33.7183,1.97263 33.7158,1.82213 33.704,1.67208 33.6827,1.52307 33.6521,1.3757 33.6123,1.23053 33.5634,1.08815 33.5058,0.949123 33.4395,0.813988 33.4176,0.775704 33.3769,0.792598 33.2417,0.858892 33.111,0.93354 l -0.1257,0.08271 -0.1204,0.09044 -0.1144,0.09782 -0.108,0.10481 -0.1012,0.11138 -0.0941,0.11752 -0.0865,0.1232 -0.0785,0.12838 -0.0704,0.13306 -0.0619,0.13722 -0.0531,0.14083 -0.0312,0.1015 -9e-4,-3.2e-4 -0.1676,0.57193 -4e-4,-1.5e-4 -0.0076,0.02717 -0.0153,0.04373 -0.018,0.04268 L 31.8351,3.02891 31.8119,3.069 31.7863,3.10755 31.7582,3.14441 31.7279,3.17944 31.6954,3.2125 31.661,3.24345 31.6246,3.27218 31.5866,3.29857 31.5469,3.32252 31.5059,3.34393 31.4635,3.36272 31.4201,3.37881 31.3757,3.39214 31.3306,3.40267 31.2849,3.41034 31.2389,3.41512 31.1926,3.41701 31.1463,3.41598 31.1001,3.41205 31.0543,3.40523 31.009,3.39555 30.9644,3.38304 30.9207,3.36775 30.878,3.34975 30.8365,3.3291 30.7964,3.30589 30.7579,3.28022 30.721,3.25217 30.686,3.22186 30.653,3.18941 30.622,3.15495 30.5933,3.11861 30.5669,3.08055 30.5429,3.0409 30.5215,2.99982 30.5027,2.95748 30.4866,2.91405 30.4733,2.86969 30.4628,2.82458 30.4551,2.7789 30.4503,2.73283 30.4484,2.68654 l 0.0011,-0.04631 0.0039,-0.04615 0.0068,-0.04581 0.0049,-0.02294 -4e-4,-7e-5 0.1188,-0.58887 -0.001,-1.5e-4 0.0197,-0.10433 0.0185,-0.14938 0.0091,-0.15024 -3e-4,-0.15052 L 30.6197,1.23156 30.6005,1.08227 30.5719,0.934485 30.5342,0.78878 30.4873,0.645733 30.4316,0.505911 30.3672,0.369863 30.2944,0.238127 30.2134,0.111224 30.1247,-0.0103467 30.0965,-0.0442525 30.0593,-0.0205437 29.9378,0.0682089 29.822,0.16442 29.7125,0.26771 29.6097,0.377671 29.5141,0.493868 29.4259,0.615844 29.3455,0.743117 29.2733,0.875185 29.2095,1.01153 29.1544,1.1516 l -0.0462,0.14326 -0.0371,0.14588 -0.0278,0.14792 -0.0131,0.10536 -0.001,-1.5e-4 -0.0662,0.59707 -4e-4,-5e-5 -0.0023,0.02333 -0.0075,0.04572 -0.0103,0.04515 -0.0131,0.04442 -0.0159,0.04351 -0.0186,0.04243 -0.0212,0.04117 -0.0238,0.03976 -0.0262,0.03819 -0.0286,0.03646 -0.0308,0.03461 -0.0329,0.03259 -0.0349,0.03047 -0.0367,0.02822 -0.0384,0.02586 -0.04,0.02339 L 28.54,2.887 28.4974,2.9052 28.4538,2.92069 28.4092,2.9334 28.364,2.94329 28.3182,2.95033 28.272,2.95447 28.2257,2.95571 28.1794,2.95403 28.1334,2.94946 28.0876,2.942 28.0425,2.93168 27.9981,2.91855 27.9546,2.90266 27.9121,2.88406 27.871,2.86284 27.8312,2.83907 27.793,2.81286 27.7565,2.7843 27.7219,2.7535 27.6893,2.72059 27.6589,2.68571 27.6307,2.64897 27.6048,2.61054 27.5814,2.57056 27.5606,2.52919 27.5424,2.48659 27.5269,2.44294 27.5142,2.3984 27.5043,2.35315 27.4972,2.30736 27.4931,2.26123 27.4919,2.21492 l 10e-4,-0.0282 h -5e-4 l 0.0146,-0.59579 -9e-4,2e-5 L 27.5073,1.48479 27.4996,1.33447 27.4825,1.18492 27.456,1.03675 27.4203,0.890532 27.3754,0.746846 27.3217,0.606259 27.2592,0.469325 27.1882,0.336585 27.109,0.208565 27.022,0.085767 26.9274,-0.0313229 26.8257,-0.142243 l -0.1086,-0.104311 -0.0336,-0.028498 -0.0325,0.029803 -0.1043,0.108515 -0.0973,0.1148509 -0.0899,0.120733 -0.0821,0.1261391 -0.0741,0.131046 -0.0656,0.135438 -0.0571,0.139294 -0.0482,0.142601 -0.0391,0.145345 -0.0299,0.147517 -0.0206,0.1491 -0.0112,0.1501 -0.0018,0.15051 0.0054,0.10603 -9e-4,2e-5 0.0385,0.60091 -4e-4,3e-5 0.0017,0.02197 6e-4,0.04631 L 25.9723,2.33748 25.9671,2.3835 25.959,2.42911 25.9481,2.47412 25.9343,2.51835 25.9178,2.56163 25.8986,2.60379 25.8768,2.64467 25.8525,2.68409 25.8258,2.72191 25.7967,2.75797 25.7654,2.79214 25.7321,2.82428 25.6968,2.85425 25.6596,2.88196 25.6209,2.90727 25.5806,2.93011 25.5389,2.95036 25.4961,2.96796 25.4522,2.98284 25.4075,2.99493 25.3621,3.00419 25.3162,3.01058 25.27,3.01408 25.2237,3.01467 25.1774,3.01235 25.1314,3.00713 25.0858,2.99903 25.0408,2.98809 24.9966,2.97434 24.9533,2.95784 24.9111,2.93865 24.8702,2.91686 24.8308,2.89254 24.793,2.86579 24.7569,2.83672 24.7228,2.80545 24.6906,2.77209 24.6607,2.73678 24.633,2.69966 24.6076,2.66087 24.5848,2.62056 24.5646,2.57891 24.547,2.53606 24.5321,2.49219 24.52,2.44748 24.5107,2.40209 24.5071,2.37617 l -4e-4,6e-5 -0.0894,-0.59128 -9e-4,1.9e-4 L 24.3991,1.68037 24.3655,1.53367 24.3226,1.38937 24.2708,1.24805 24.2102,1.11025 24.1411,0.976537 24.0638,0.847424 23.9784,0.723423 23.8855,0.605023 23.7853,0.492694 23.6783,0.386877 23.5648,0.287991 23.4453,0.196425 23.3203,0.112542 23.2823,0.0903187 23.2554,0.125311 23.1716,0.25029 23.0957,0.380291 23.0281,0.514799 22.9691,0.653283 22.919,0.795197 22.8778,0.939981 22.8458,1.08706 22.8232,1.23586 22.8099,1.3858 22.806,1.53627 l 0.0056,0.15041 0.015,0.14977 0.0244,0.14853 0.0238,0.10348 -0.001,1.9e-4 0.1419,0.58321 -4e-4,1.1e-4 0.0059,0.02321 0.0086,0.04551 0.0058,0.04596 0.0028,0.04623 V 2.8792 L 23.0354,2.92543 23.0295,2.97138 23.0208,3.01686 23.0092,3.06172 22.9949,3.10575 22.9778,3.1488 22.958,3.19069 22.9356,3.23125 22.9108,3.27033 22.8835,3.30777 22.8539,3.34343 22.8222,3.37716 22.7884,3.40882 22.7526,3.43831 22.7151,3.46549 22.676,3.49026 22.6354,3.51253 22.5934,3.5322 22.5504,3.5492 22.5063,3.56346 22.4614,3.57493 22.4159,3.58355 22.3699,3.5893 22.3237,3.59216 22.2774,3.5921 22.2312,3.58914 22.1852,3.58328 22.1397,3.57454 22.0949,3.56297 22.0508,3.5486 22.0078,3.5315 21.9659,3.51173 21.9253,3.48936 21.8862,3.4645 21.8488,3.43722 21.8132,3.40766 21.7794,3.37591 21.7478,3.3421 21.7183,3.30638 21.6911,3.26887 21.6663,3.22973 21.6441,3.18911 21.6244,3.14718 21.6074,3.10409 21.6004,3.08261 21.6,3.08274 21.4082,2.51254 21.4073,2.51289 21.3722,2.41271 21.3135,2.27409 21.2463,2.13942 21.1707,2.00924 21.0871,1.88405 20.9959,1.76437 20.8972,1.65065 20.7917,1.54335 20.6796,1.44289 20.5614,1.34967 20.4376,1.26405 20.3087,1.18637 20.1751,1.11694 20.0375,1.05603 19.9961,1.04076 l -0.0203,0.03911 -0.0609,0.13765 -0.0521,0.1412 -0.0432,0.1442 -0.0341,0.14662 -0.0247,0.14847 -0.0154,0.14973 -0.006,0.1504 0.0035,0.15048 0.013,0.14997 0.0223,0.14885 0.0316,0.14716 0.0408,0.14488 0.0499,0.14204 0.0413,0.09777 -9e-4,3.6e-4 0.2389,0.54489 -5e-4,2e-4 0.0121,0.02663 0.0164,0.04333 0.0136,0.04426 0.0108,0.04504 0.008,0.04562 0.0051,0.04604 0.0022,0.04627 -7e-4,0.04631 -0.0036,0.04618 -0.0065,0.04586 -0.0093,0.04537 -0.0122,0.04468 -0.015,0.04383 -0.0177,0.04281 -0.0204,0.04161 -0.0229,0.04024 -0.0254,0.03873 -0.0278,0.03706 -0.0301,0.03524 -0.0322,0.03328 -0.0342,0.03119 -0.0362,0.02899 -0.0378,0.02665 -0.0395,0.02422 -0.0409,0.0217 -0.0423,0.01909 -0.0433,0.01639 -0.0442,0.01365 -0.0451,0.01084 -0.0456,0.00798 -0.046,0.00511 -0.0463,0.00221 -0.0463,-7e-4 L 19.4298,4.66684 19.3839,4.66034 19.3386,4.65097 19.2939,4.63877 19.2501,4.62379 19.2073,4.60609 19.1656,4.58573 19.1254,4.5628 19.0867,4.53739 19.0496,4.5096 19.0144,4.47954 18.9811,4.44732 18.9499,4.41308 18.9209,4.37695 18.8943,4.33906 18.87,4.29958 18.8596,4.27986 l -4e-4,2e-4 -0.288,-0.52846 -9e-4,5.1e-4 L 18.5183,3.65955 18.4365,3.53322 18.3469,3.41227 18.2499,3.29719 18.1458,3.18842 18.0352,3.08641 17.9183,2.99154 17.7957,2.9042 17.6679,2.82473 17.5353,2.75344 17.3985,2.69062 17.2581,2.63651 17.1145,2.59132 16.9684,2.55524 16.925,2.54739 l -0.0133,0.04205 -0.036,0.14613 -0.0269,0.14811 -0.0174,0.1495 -0.0081,0.15031 0.0014,0.15051 0.0108,0.15013 0.0203,0.14915 0.0296,0.14759 0.0387,0.14544 0.0479,0.14271 0.0567,0.13943 0.0653,0.1356 0.0738,0.13122 0.0577,0.08911 -9e-4,5.1e-4 0.332,0.49833 -4e-4,2.3e-4 0.0144,0.02099 0.0236,0.03982 0.0212,0.04122 0.0185,0.04247 0.0158,0.04354 0.013,0.04446 0.0102,0.04518 0.0073,0.04573 0.0045,0.04611 0.0016,0.04629 -0.0014,0.0463 -0.0042,0.04613 -0.0072,0.04576 -0.01,0.04523 -0.0128,0.04451 -0.0156,0.04362 -0.0183,0.04255 -0.0209,0.04132 -0.0235,0.03993 -0.026,0.03837 L 17.5181,5.94964 17.4876,5.98446 17.4549,6.01729 17.4202,6.048 17.3837,6.07647 17.3454,6.1026 17.3056,6.12627 17.2644,6.14739 17.2219,6.16588 17.1784,6.18167 17.1339,6.1947 17.0888,6.20491 17.043,6.21226 16.9969,6.21672 16.9506,6.21828 16.9043,6.21693 16.8582,6.21268 16.8124,6.20554 16.7672,6.19554 16.7227,6.18272 16.6791,6.16713 16.6365,6.14883 16.5952,6.12789 16.5553,6.10441 16.5169,6.07846 16.4802,6.05015 16.4454,6.0196 16.4126,5.98692 16.3819,5.95225 16.3663,5.9322 l -4e-4,2.8e-4 -0.3735,-0.468 -7e-4,6.5e-4 L 15.9244,5.38301 15.8219,5.2728 15.7126,5.16925 15.5971,5.07277 15.4757,4.98372 15.349,4.90247 15.2175,4.82934 15.0816,4.76462 14.9419,4.70855 14.799,4.66137 14.6533,4.62325 14.5056,4.59435 14.3564,4.57479 14.2062,4.56463 l -0.0441,-2.1e-4 -0.0057,0.04372 -0.0102,0.15018 -7e-4,0.15052 0.0088,0.15026 0.0181,0.14942 0.0275,0.14799 0.0368,0.14596 0.0458,0.14337 0.0548,0.14021 0.0634,0.13649 0.0719,0.13224 0.0801,0.12747 0.0879,0.12219 0.0954,0.11642 0.0723,0.07774 -7e-4,6.4e-4 0.4155,0.43535 -3e-4,2.7e-4 0.0156,0.01597 0.0303,0.0351 0.0279,0.03693 0.0256,0.03861 0.0231,0.04015 0.0206,0.04151 0.0179,0.04272 0.0152,0.04376 0.0124,0.04463 0.0095,0.04532 0.0067,0.04584 0.0039,0.04616 9e-4,0.04631 -0.002,0.04628 -0.0049,0.04606 -0.0078,0.04566 -0.0106,0.04508 -0.0135,0.04433 -0.0162,0.0434 -0.0188,0.04229 -0.0216,0.04102 -0.024,0.0396 -0.0265,0.038 -0.0288,0.03627 -0.031,0.03438 L 15.1935,7.99261 15.1584,8.02284 15.1215,8.0508 15.0829,8.07638 15.0427,8.0995 15.0012,8.12004 14.9585,8.13794 14.9147,8.15312 14.8701,8.16553 14.8248,8.1751 14.779,8.18181 14.7328,8.18563 14.6865,8.18655 14.6402,8.18455 14.5942,8.17966 14.5485,8.17188 14.5034,8.16125 14.4591,8.1478 14.4157,8.13161 14.3734,8.11272 14.3324,8.09121 14.2928,8.06716 14.2548,8.04068 14.2185,8.01187 14.1968,7.99229 l -3e-4,3.5e-4 -0.4462,-0.39349 -7e-4,7.6e-4 L 13.6691,7.53072 13.549,7.43999 13.4234,7.35699 13.2929,7.28202 13.1579,7.21541 13.0191,7.1574 12.8768,7.10822 12.7317,7.06808 12.5844,7.03712 12.4355,7.01547 12.2854,7.00322 12.135,7.00041 l -0.1504,0.00665 -0.1497,0.01608 -0.0434,0.00745 0.0019,0.04404 0.0161,0.14966 0.0254,0.14836 0.0347,0.14646 0.0439,0.144 0.0528,0.14096 0.0615,0.13736 0.07,0.13324 0.0783,0.12857 0.0862,0.1234 0.0938,0.11775 0.1009,0.11162 0.1078,0.10507 0.1142,0.09809 0.0847,0.064 -6e-4,7.6e-4 0.4846,0.35641 -2e-4,3.3e-4 0.0183,0.01317 0.0359,0.02932 0.034,0.03151 0.0319,0.03358 0.0297,0.03552 0.0274,0.03732 0.0251,0.03896 0.0225,0.04046 0.02,0.0418 0.0173,0.04297 0.0146,0.04397 0.0117,0.0448 0.009,0.04544 0.0061,0.04593 0.0031,0.04621 3e-4,0.04632 -0.0026,0.04624 -0.0056,0.04599 -0.0084,0.04555 -0.0113,0.04493 -0.014,0.04414 -0.0168,0.0432 -0.0195,0.042 -0.0221,0.0407 -0.0246,0.0393 -0.027,0.0376 -0.0293,0.0358 -0.0315,0.034 -0.0336,0.0319 -0.0355,0.0297 -0.0373,0.0275 -0.039,0.025 -0.0405,0.0226 -0.0418,0.0199 -0.0429,0.0173 -0.044,0.0146 -0.0448,0.0118 -0.0454,0.0089 -0.046,0.0061 -0.0462,0.0032 -0.0463,2e-4 -0.0462,-0.0026 -0.046,-0.0055 -0.0456,-0.0085 -0.0449,-0.0112 -0.0441,-0.0141 -0.0432,-0.0168 -0.042,-0.0195 -0.0408,-0.022 -0.0203,-0.0128 -2e-4,4e-4 -0.5123,-0.3128 -4e-4,9e-4 L 11.8211,10.0374 11.687,9.96893 11.5489,9.90899 11.4074,9.85783 11.2629,9.81567 11.116,9.78266 10.9674,9.75893 10.8176,9.74459 10.6671,9.73968 10.5167,9.74423 10.3668,9.75821 10.2181,9.78158 10.0712,9.81424 9.92658,9.85606 l -0.0415,0.01488 0.00957,0.04304 0.04182,0.14462 0.05082,0.1417 0.05961,0.1382 0.0682,0.1342 0.0764,0.1296 0.0845,0.1246 0.0921,0.1191 0.0994,0.113 0.1063,0.1065 0.1128,0.0997 0.1188,0.0924 0.1244,0.0848 0.1295,0.0767 0.0945,0.0484 -4e-4,8e-4 0.5359,0.2653 -2e-4,4e-4 0.0236,0.0113 0.0404,0.0227 0.0389,0.0251 0.0373,0.0275 0.0354,0.0298 0.0335,0.032 0.0315,0.034 0.0292,0.036 0.0269,0.0377 0.0245,0.0393 0.022,0.0408 0.0194,0.042 0.0167,0.0432 0.0139,0.0442 0.0112,0.045 0.0083,0.0455 0.0054,0.046 0.0025,0.0463 -3e-4,0.0463 -0.0033,0.0462 -0.0062,0.0459 -0.0091,0.0454 -0.0118,0.0448 -0.0147,0.0439 -0.0174,0.043 -0.0201,0.0417 -0.0226,0.0404 -0.0252,0.0389 -0.0275,0.0373 -0.0298,0.0354 -0.032,0.0335 -0.034,0.0315 -0.036,0.0292 -0.0377,0.0269 -0.0393,0.0245 -0.0407,0.022 -0.0421,0.0194 -0.0432,0.0167 -0.0442,0.0139 -0.0449,0.0112 -0.0456,0.0083 -0.046,0.0054 -0.0463,0.0025 -0.0463,-3e-4 -0.0462,-0.0033 -0.0459,-0.0062 -0.0454,-0.009 -0.0448,-0.0119 -0.0439,-0.0147 -0.0204,-0.0083 -2e-4,4e-4 -0.5606,-0.2198 -3e-4,9e-4 -0.0993,-0.0374 -0.1439,-0.0442 -0.1464,-0.0351 -0.14831,-0.0258 -0.14962,-0.0164 -0.15036,-0.007 -0.1505,0.0024 -0.15005,0.0119 -0.14901,0.0213 -0.14737,0.0306 -0.14517,0.0398 -0.14238,0.0489 -0.13903,0.0576 -0.13513,0.0663 -0.03829,0.0219 0.0169,0.0407 0.06629,0.1351 0.07465,0.1308 0.08271,0.1257 0.09044,0.1203 0.09782,0.1144 0.1048,0.1081 0.11139,0.1012 0.11752,0.0941 0.1232,0.0864 0.12838,0.0786 0.13306,0.0704 0.13722,0.0618 0.14083,0.0532 0.10151,0.0311 -3e-4,10e-4 0.5719,0.1675 -2e-4,5e-4 0.0272,0.0076 0.0437,0.0153 0.0427,0.018 0.0415,0.0206 0.0401,0.0232 0.0385,0.0257 0.0369,0.0281 0.035,0.0303 0.0331,0.0324 0.0309,0.0345 0.0288,0.0363 0.0263,0.0381 0.024,0.0396 0.0214,0.0411 0.0188,0.0424 0.0161,0.0434 0.0133,0.0444 0.0105,0.0451 0.0077,0.0456 0.0048,0.0461 0.0019,0.0463 -0.001,0.0463 -0.004,0.0462 -0.0068,0.0458 -0.0097,0.0453 -0.0125,0.0446 -0.0153,0.0437 -0.018,0.0427 -0.0206,0.0414 -0.0232,0.0401 -0.0257,0.0386 -0.0281,0.0368 -0.0303,0.0351 -0.0324,0.033 -0.0345,0.031 -0.0363,0.0287 -0.0381,0.0264 -0.0396,0.0239 -0.0411,0.0215 -0.0423,0.0187 -0.0435,0.0161 -0.0443,0.0134 -0.0451,0.0105 -0.0457,0.0077 -0.0461,0.0048 -0.0463,0.0018 -0.0463,-10e-4 -0.0461,-0.0039 -0.0459,-0.0068 -0.0229,-0.0049 -10e-5,4e-4 -0.58883,-0.1188 -1.5e-4,9e-4 -0.10434,-0.0196 -0.14937,-0.0185 -0.15025,-0.0092 -0.15052,4e-4 -0.1502,0.0098 -0.14929,0.0192 -0.14779,0.0285 -0.1457,0.0378 -0.14305,0.0468 -0.13982,0.0558 -0.13605,0.0644 -0.13173,0.0728 -0.12691,0.0809 -0.12157,0.0888 -0.0339,0.0282 0.0237,0.0371 0.08876,0.1216 0.09621,0.1158 0.10329,0.1095 0.10996,0.1027 0.1162,0.0957 0.12197,0.0882 0.12728,0.0804 0.13206,0.0722 0.13634,0.0638 0.14008,0.0551 0.14326,0.0461 0.14588,0.0371 0.14792,0.0279 0.10536,0.0131 -1.5e-4,9e-4 0.59705,0.0663 v 4e-4 l 0.0233,0.0023 0.0457,0.0075 0.0452,0.0103 0.0444,0.0131 0.0435,0.0159 0.0424,0.0186 0.0412,0.0212 0.0398,0.0238 0.0381,0.0262 0.0365,0.0286 0.0346,0.0308 0.0326,0.0329 0.0305,0.0349 0.0282,0.0367 0.0259,0.0384 0.0233,0.04 0.0209,0.0414 0.0182,0.0426 0.0155,0.0436 0.0127,0.0446 0.0099,0.0452 0.007,0.0458 0.0041,0.0461 0.0013,0.0463 -0.0017,0.0463 -0.0046,0.0461 -0.0074,0.0457 -0.0103,0.0452 -0.0132,0.0444 -0.0159,0.0435 -0.0186,0.0425 -0.0212,0.0411 -0.0237,0.0398 -0.0263,0.0382 -0.0285,0.0364 -0.0308,0.0346 -0.0329,0.0326 -0.0349,0.0305 -0.0367,0.0282 -0.0385,0.0259 -0.04,0.0234 -0.0413,0.0208 -0.0426,0.0182 -0.0437,0.0155 -0.0445,0.0127 -0.0453,0.0099 -0.0458,0.007 -0.04609,0.0042 -0.04631,0.0012 -0.0282,-0.001 v 5e-4 l -0.59579,-0.0147 2e-5,10e-4 -0.10616,-0.0012 -0.15032,0.0077 -0.14955,0.0171 -0.14817,0.0265 -0.14622,0.0357 -0.14369,0.0448 -0.14058,0.0538 -0.13694,0.0625 -0.13274,0.071 -0.12802,0.0791 -0.12279,0.0871 -0.11709,0.0946 -0.11092,0.1017 -0.10432,0.1085 z"
     id="path18892"
     style="stroke:#ff0000;fill:none" />
  <path
     d="M 4.09598,17.914 4.12035,17.7601 4.12339,17.794 Z"
     id="path18886"
     style="stroke:#ff0000;fill:none" />
  <path
     d="m 4.08204,17.4511 0.01337,0.0313 0.011,0.1226 z"
     id="path18884"
     style="stroke:#ff0000;fill:none" />
  <path
     d="M 3.99056,18.2047 4.06128,18.0659 4.05371,18.099 Z"
     id="path18882"
     style="stroke:#ff0000;fill:none" />
  <path
     d="m 3.95013,17.1691 0.02237,0.0256 0.04835,0.1132 z"
     id="path18880"
     style="stroke:#ff0000;fill:none" />
  <path
     d="M 3.80048,18.4485 3.91063,18.3384 3.89318,18.3676 Z"
     id="path18878"
     style="stroke:#ff0000;fill:none" />
  <path
     d="M 3.73751,16.9416 3.7667,16.959 3.84765,17.0517 Z"
     id="path18876"
     style="stroke:#ff0000;fill:none" />
  <path
     d="M 3.54434,18.6217 3.68315,18.551 3.65753,18.5734 Z"
     id="path18874"
     style="stroke:#ff0000;fill:none" />
  <path
     d="m 3.46499,16.7909 0.03316,0.0076 0.10563,0.0631 z"
     id="path18872"
     style="stroke:#ff0000;fill:none" />
  <path
     d="M 3.24722,18.7073 3.40109,18.6829 3.36981,18.6963 Z"
     id="path18870"
     style="stroke:#ff0000;fill:none" />
  <path
     d="m 3.15926,16.7319 0.03388,-0.0031 0.11997,0.0274 z"
     id="path18868"
     style="stroke:#ff0000;fill:none" />
  <path
     d="M 2.9382,18.6968 3.09208,18.7212 3.0582,18.7243 Z"
     id="path18866"
     style="stroke:#ff0000;fill:none" />
  <path
     d="m 2.85025,16.7702 0.03127,-0.0134 0.12257,-0.011 z"
     id="path18864"
     style="stroke:#ff0000;fill:none" />
  <path
     d="m 2.64755,18.5914 0.1388,0.0708 -0.03316,-0.0076 z"
     id="path18862"
     style="stroke:#ff0000;fill:none" />
  <path
     d="M 2.56819,16.9021 2.59381,16.8797 2.70697,16.8314 Z"
     id="path18860"
     style="stroke:#ff0000;fill:none" />
  <path
     d="M 2.40369,18.4014 2.51383,18.5115 2.48464,18.4941 Z"
     id="path18858"
     style="stroke:#ff0000;fill:none" />
  <path
     d="M 2.3407,17.1147 2.35815,17.0855 2.45084,17.0046 Z"
     id="path18856"
     style="stroke:#ff0000;fill:none" />
  <path
     d="M 2.23049,18.1452 2.30121,18.284 2.27884,18.2584 Z"
     id="path18854"
     style="stroke:#ff0000;fill:none" />
  <path
     d="M 2.19005,17.3872 2.19763,17.3541 2.26076,17.2484 Z"
     id="path18852"
     style="stroke:#ff0000;fill:none" />
  <path
     d="M 2.14492,17.8481 2.16929,18.002 2.15593,17.9707 Z"
     id="path18850"
     style="stroke:#ff0000;fill:none" />
  <path
     d="m 2.12795,17.6591 0.0274,-0.12 -0.02436,0.1538 z"
     id="path18848"
     style="stroke:#ff0000;fill:none" />
  <path
     d="m -3.48563,17.3185 0.00104,0.0393 0.00352,0.0391 0.00596,0.0388 0.00838,0.0383 0.01078,0.0378 0.01313,0.037 0.01542,0.0361 0.01766,0.0351 0.01983,0.0339 0.02192,0.0325 0.02392,0.0312 0.02582,0.0295 0.02763,0.0279 0.02933,0.0261 0.03092,0.0242 0.03237,0.0223 0.0337,0.0201 0.0349,0.018 0.03596,0.0158 0.03688,0.0134 0.03765,0.0112 0.03828,0.0087 0.03875,0.0063 0.03907,0.0039 0.03924,0.0014 0.02594,-7e-4 -2e-5,3e-4 0.71609,-0.0263 8e-5,0.0027 0.03638,-0.0037 0.05173,-0.0019 0.05174,0.0013 0.05155,0.0046 0.05117,0.0078 0.05058,0.011 0.04978,0.0142 0.0488,0.0172 0.04762,0.0203 0.04626,0.0232 0.0447,0.0261 0.04297,0.0289 0.04108,0.0314 0.03903,0.0341 0.03681,0.0363 0.03445,0.0387 0.03196,0.0407 0.02934,0.0426 0.0266,0.0444 0.02377,0.046 0.02083,0.0474 0.01781,0.0486 0.01473,0.0496 0.01158,0.0504 0.00839,0.0511 0.00517,0.0515 0.00193,0.0517 -0.00133,0.0518 -0.00457,0.0515 -0.0078,0.0512 -0.011,0.0506 -0.01416,0.0498 -0.01725,0.0488 -0.02028,0.0476 -0.02323,0.0462 -0.02609,0.0447 -0.02884,0.043 -0.03149,0.0411 -0.034,0.039 -0.03639,0.0368 -0.03862,0.0345 -0.04072,0.0319 -0.04264,0.0294 -0.04439,0.0266 -0.04598,0.0237 -0.04739,0.0209 -0.04859,0.0178 -0.03505,0.0104 9.2e-4,0.0026 -0.67266,0.2469 1.2e-4,2e-4 -0.02427,0.0092 -0.03578,0.0162 -0.03469,0.0184 -0.03346,0.0205 -0.03211,0.0226 -0.03063,0.0245 -0.02903,0.0265 -0.02731,0.0282 -0.02548,0.0299 -0.02356,0.0314 -0.02154,0.0328 -0.01943,0.0341 -0.01726,0.0353 -0.015,0.0363 -0.0127,0.0371 -0.01034,0.0379 -0.00794,0.0385 -0.00551,0.0388 -0.00306,0.0392 -6e-4,0.0392 0.00188,0.0393 0.00433,0.039 0.00677,0.0387 0.00918,0.0381 0.01157,0.0375 0.0139,0.0368 0.01606,0.0355 0.01826,0.0344 0.02053,0.0335 0.0226,0.0321 0.02456,0.0306 0.02644,0.0291 0.02821,0.0273 0.02987,0.0255 0.03141,0.0235 0.03283,0.0215 0.03412,0.0195 0.03527,0.0172 0.03628,0.015 0.03715,0.0127 0.03788,0.0104 0.03845,0.0079 0.03888,0.0055 0.03914,0.0031 0.03926,6e-4 0.03922,-0.0019 0.03902,-0.0043 0.03868,-0.0068 0.03817,-0.0092 0.03752,-0.0115 0.03673,-0.0139 0.03577,-0.0162 0.03469,-0.0184 0.02212,-0.0136 1.2e-4,3e-4 0.60506,-0.3797 0.0011,0.0019 4e-4,6e-4 0.03153,-0.0227 0.04383,-0.0276 0.04548,-0.0247 0.04693,-0.0218 0.04822,-0.0188 0.04929,-0.0158 0.0502,-0.0126 0.050883,-0.0095 0.051381,-0.0062 0.051671,-0.003 0.051758,2e-4 0.05164,0.0035 0.05132,0.0067 0.050796,0.01 0.050071,0.0131 0.04915,0.0162 0.048034,0.0193 0.046729,0.0222 0.045239,0.0252 0.043571,0.0279 0.04173,0.0306 0.039725,0.0332 0.037564,0.0356 0.035254,0.0379 0.032805,0.04 0.030226,0.0421 0.027528,0.0438 0.0247224,0.0455 0.0218178,0.0469 0.0188276,0.0482 0.0157631,0.0493 0.0126374,0.0502 0.00946,0.0509 0.0062456,0.0514 0.00300849,0.0516 -2.4348e-4,0.0518 -0.00349211,0.0516 -0.006727,0.0514 -0.0099376,0.0508 -0.0131061,0.05 -0.0162248,0.0492 -0.0192798,0.048 -0.0222569,0.0467 -0.0251466,0.0453 -0.027939,0.0436 -0.030619,0.0417 -0.033179,0.0397 -0.026726,0.0282 5.34e-4,5e-4 0.001708,0.0013 -0.457674,0.5485 2.21e-4,10e-5 -0.016425,0.0201 -0.022895,0.0319 -0.020846,0.0333 -0.018715,0.0345 -0.016513,0.0356 -0.014242,0.0366 -0.011917,0.0374 -0.009544,0.0381 -0.007134,0.0386 -0.004696,0.039 -0.002239,0.0392 2.28e-4,0.0392 0.002692,0.0392 0.005146,0.0389 0.00758,0.0386 0.009984,0.0379 0.012349,0.0373 0.014665,0.0364 0.016922,0.0355 0.019114,0.0343 0.02123,0.033 0.023262,0.0316 0.025202,0.0301 0.027043,0.0285 0.028777,0.0267 0.030397,0.0249 0.031667,0.0227 0.033032,0.0207 0.034516,0.0187 0.035623,0.0165 0.036589,0.0143 0.037411,0.0119 0.038086,0.0095 0.03861,0.0071 0.038981,0.0047 0.0392,0.0023 0.039263,-2e-4 0.039171,-0.0027 0.038925,-0.0052 0.0385247,-0.0076 0.037972,-0.0099 0.03727098,-0.0124 0.03642282,-0.0147 0.0354287,-0.0169 0.0342968,-0.0191 0.033029,-0.0212 0.031631,-0.0233 0.030108,-0.0252 0.028466,-0.027 0.026711,-0.0288 0.024853,-0.0304 0.022894,-0.0319 0.020847,-0.0333 0.012369,-0.0228 2.21e-4,2e-4 0.335202,-0.6333 0.002435,0.0012 0.015026,-0.0333 0.024193,-0.0458 0.02702,-0.0441 0.029738,-0.0424 0.03234,-0.0404 0.034813,-0.0383 0.03715,-0.036 0.039339,-0.0337 0.041373,-0.0311 0.043245,-0.0284 0.044943,-0.0257 0.04647,-0.0228 0.04781,-0.0198 0.04896,-0.0168 0.04991,-0.0137 0.05068,-0.0105 0.05124,-0.0073 0.0516,-0.0041 0.05175,-9e-4 0.0517,0.0025 0.05145,0.0056 0.05099,0.0089 0.05034,0.012 0.04948,0.0152 0.04842,0.0183 0.04719,0.0213 0.04575,0.0242 0.04415,0.027 0.04236,0.0297 0.04041,0.0324 0.0383,0.0348 0.03604,0.0371 0.03364,0.0394 0.0311,0.0413 0.02844,0.0433 0.02567,0.0449 0.02279,0.0465 0.01984,0.0478 0.01679,0.049 0.01369,0.0499 0.01052,0.0507 0.00732,0.0512 0.00409,0.0516 8.4e-4,0.0517 -0.00241,0.0517 -0.00565,0.0515 -0.00887,0.051 -0.00852,0.0356 0.0027,4e-4 -0.12252,0.706 h 2.7e-4 l -0.00418,0.0256 -0.00388,0.0391 -0.00142,0.0393 0.00105,0.0392 0.00351,0.0391 0.00596,0.0388 0.00839,0.0384 0.01078,0.0377 0.01312,0.037 0.01543,0.0361 0.01766,0.0351 0.01983,0.0339 0.02191,0.0326 0.02392,0.0311 0.02583,0.0296 0.02763,0.0279 0.02933,0.0261 0.03091,0.0242 0.03237,0.0222 0.0337,0.0202 0.0349,0.0179 0.03596,0.0158 0.03688,0.0135 0.03766,0.0111 0.03827,0.0088 0.03876,0.0063 0.03878,0.0038 0.03896,0.0014 0.03925,-0.001 0.0391,-0.0035 0.03881,-0.006 0.03836,-0.0084 0.03776,-0.0107 0.037,-0.0132 0.03611,-0.0154 0.03506,-0.0177 0.03389,-0.0198 0.03258,-0.0219 0.03114,-0.0239 0.02957,-0.0258 0.02789,-0.0277 0.02611,-0.0293 0.02421,-0.0309 0.02222,-0.0324 0.02014,-0.0337 0.01799,-0.0349 0.01576,-0.036 0.01348,-0.0368 0.01113,-0.0377 0.00874,-0.0383 0.00633,-0.0387 0.00388,-0.0391 0.00141,-0.0392 -6.9e-4,-0.026 2.6e-4,10e-5 -0.02635,-0.7161 0.00274,-10e-5 -0.00365,-0.0364 -0.00193,-0.0517 0.00133,-0.0518 0.00457,-0.0515 0.0078,-0.0512 0.011,-0.0506 0.01415,-0.0497 0.01725,-0.0488 0.02028,-0.0477 0.02323,-0.0462 0.02609,-0.0447 0.02885,-0.043 0.03148,-0.0411 0.03401,-0.039 0.03638,-0.0368 0.03863,-0.0345 0.04071,-0.0319 0.04264,-0.0294 0.0444,-0.0266 0.04598,-0.0237 0.04738,-0.0209 0.0486,-0.0178 0.04962,-0.0147 0.05044,-0.0116 0.05108,-0.0084 0.0515,-0.0051 0.05172,-0.002 0.05174,0.0014 0.05156,0.0045 0.05117,0.0078 0.05057,0.011 0.04979,0.0142 0.0488,0.0172 0.04762,0.0203 0.04625,0.0232 0.0447,0.0261 0.04298,0.0289 0.04108,0.0315 0.03902,0.034 0.03681,0.0364 0.03445,0.0386 0.03196,0.0407 0.02934,0.0426 0.02661,0.0444 0.02376,0.046 0.02083,0.0474 0.01781,0.0486 0.01041,0.035 0.00258,-9e-4 0.24689,0.6727 2.4e-4,-10e-5 0.00918,0.0242 0.01618,0.0358 0.01839,0.0347 0.02053,0.0335 0.0226,0.0321 0.02456,0.0306 0.02644,0.029 0.02822,0.0273 0.02987,0.0255 0.03141,0.0236 0.03282,0.0215 0.03412,0.0194 0.03527,0.0173 0.03628,0.015 0.03716,0.0127 0.03787,0.0103 0.03846,0.008 0.03887,0.0055 0.03915,0.0031 0.03925,6e-4 L 5.81788,23.7362 5.85691,23.7319 5.89558,23.7251 5.93376,23.7159 5.97128,23.7043 6.008,23.6904 6.04352,23.6744 6.07795,23.6561 6.11142,23.6356 6.14353,23.613 6.17416,23.5884 6.20319,23.562 6.2305,23.5338 6.25598,23.5039 6.27954,23.4725 6.30107,23.4397 6.32051,23.4055 6.33776,23.3703 6.35277,23.334 6.36547,23.2968 6.37581,23.259 6.38375,23.2205 6.38926,23.1816 6.39232,23.1425 6.39291,23.1032 6.39104,23.064 6.38671,23.025 6.37994,22.9863 6.37075,22.9481 6.35919,22.9106 6.34529,22.8739 6.32911,22.8381 6.31072,22.8034 6.29715,22.7813 l 2.4e-4,-1e-4 -0.37967,-0.6051 0.00187,-0.0011 6e-4,-4e-4 L 5.8975,22.1431 5.86997,22.0993 5.84525,22.0538 5.82343,22.0069 5.8046,21.9586 5.78884,21.9093 5.7762,21.8591 5.76674,21.8083 5.7605,21.7569 5.75749,21.7052 5.75773,21.6535 5.76122,21.6018 5.76795,21.5505 5.77789,21.4997 5.79099,21.4496 5.80722,21.4005 5.8265,21.3524 5.84876,21.3057 5.8739,21.2605 5.90184,21.2169 5.93246,21.1752 5.96564,21.1354 6.00125,21.0979 6.03914,21.0626 6.07918,21.0298 6.12119,20.9996 6.16502,20.9721 6.2105,20.9473 l 0.04693,-0.0218 0.04821,-0.0188 0.0493,-0.0158 0.0502,-0.0126 0.05088,-0.0095 0.05138,-0.0062 0.05167,-0.003 0.05176,2e-4 0.05164,0.0035 0.05132,0.0068 0.0508,0.0099 0.05007,0.0131 0.04915,0.0162 0.04803,0.0193 0.04673,0.0223 0.04524,0.0251 0.04357,0.0279 0.04173,0.0307 0.03973,0.0331 0.02819,0.0268 4.8e-4,-6e-4 0.00134,-0.0017 0.54844,0.4577 1.5e-4,-2e-4 0.02008,0.0164 0.0319,0.0229 0.03327,0.0208 0.03452,0.0188 0.03562,0.0165 0.03659,0.0142 0.03741,0.0119 0.03809,0.0096 0.03861,0.0071 0.03898,0.0047 0.0392,0.0022 0.03926,-2e-4 0.03917,-0.0027 0.03893,-0.0051 0.03852,-0.0076 0.03798,-0.01 0.03727,-0.0123 0.03642,-0.0147 0.03543,-0.0169 0.0343,-0.0191 0.03303,-0.0213 0.03163,-0.0232 0.0301,-0.0252 0.02847,-0.0271 0.02671,-0.0287 0.02485,-0.0304 0.02273,-0.0317 0.0207,-0.033 L 8.66592,21.351 8.68244,21.3154 8.69668,21.2788 8.7086,21.2414 8.71814,21.2033 8.72527,21.1647 8.72997,21.1257 8.73221,21.0865 8.73198,21.0473 8.72929,21.0081 8.72414,20.9692 8.71656,20.9307 8.70658,20.8927 8.69423,20.8554 8.67957,20.819 8.66264,20.7836 8.64353,20.7493 8.6223,20.7162 8.59904,20.6846 8.57383,20.6545 8.54679,20.626 8.51802,20.5993 8.48762,20.5745 8.45572,20.5516 8.42245,20.5307 8.39964,20.5184 8.39978,20.5181 7.76649,20.1829 7.76775,20.1805 7.73442,20.1655 7.68866,20.1413 7.64452,20.1143 7.60216,20.0845 7.56174,20.0522 7.52344,20.0174 7.4874,19.9802 7.45377,19.9409 7.42267,19.8995 7.39423,19.8563 7.36856,19.8113 7.34576,19.7648 7.32593,19.717 7.30914,19.6681 7.29545,19.6182 7.28493,19.5675 7.27761,19.5162 7.27352,19.4647 7.27268,19.4129 7.27509,19.3612 7.28074,19.3097 7.28961,19.2588 7.30166,19.2084 7.31686,19.1589 7.33512,19.1105 7.3564,19.0633 7.38059,19.0176 7.40761,18.9734 7.43735,18.9311 7.46969,18.8907 7.5045,18.8524 7.54165,18.8163 7.58099,18.7827 7.62237,18.7516 7.66561,18.7231 7.71056,18.6975 7.75702,18.6747 7.80483,18.6548 7.85379,18.638 l 0.04992,-0.0136 0.05067,-0.0106 0.05124,-0.0073 0.0516,-0.0041 0.05175,-8e-4 0.0517,0.0024 0.05145,0.0056 0.05099,0.0089 0.03557,0.0085 4.4e-4,-0.0027 0.70603,0.1226 10e-6,-3e-4 0.02561,0.0042 0.03908,0.0038 0.03923,0.0015 0.03925,-0.0011 0.03911,-0.0035 0.03881,-0.006 0.03836,-0.0083 0.03775,-0.0108 0.037,-0.0131 0.03611,-0.0155 0.03507,-0.0176 0.03389,-0.0199 0.03258,-0.0219 0.03113,-0.0239 0.02957,-0.0258 0.0279,-0.0277 0.0261,-0.0293 L 9.61592,18.5008 9.63814,18.4684 9.65829,18.4347 9.67628,18.3998 9.69204,18.3639 9.70551,18.327 9.71664,18.2893 9.72539,18.2511 9.73171,18.2123 9.73556,18.1735 9.73697,18.1346 9.73592,18.0953 9.73241,18.0562 9.72645,18.0174 9.71806,17.979 9.70729,17.9413 9.69416,17.9043 9.67873,17.8682 9.66107,17.8331 9.64125,17.7992 9.61933,17.7666 9.59541,17.7355 9.56958,17.7059 9.54195,17.678 9.51262,17.6519 9.48171,17.6277 9.44934,17.6055 9.41564,17.5854 9.38074,17.5674 9.34478,17.5516 9.3079,17.5381 9.27024,17.527 9.23197,17.5183 9.19322,17.5119 9.15414,17.5081 9.11491,17.5066 l -0.02594,7e-4 10e-6,-2e-4 -0.71609,0.0263 -7e-5,-0.0027 -0.03639,0.0036 -0.05172,0.002 L 8.23297,17.5349 8.18141,17.5304 8.13024,17.5226 8.07967,17.5116 8.02988,17.4974 7.98108,17.4802 7.93346,17.4599 7.88721,17.4367 7.84251,17.4106 7.79953,17.3817 7.75845,17.3502 7.71943,17.3162 7.68262,17.2798 7.64817,17.2412 7.61621,17.2005 7.58687,17.1579 7.56026,17.1135 7.5365,17.0675 7.51567,17.0201 7.49785,16.9715 7.48313,16.9219 7.47154,16.8714 7.46315,16.8204 7.45798,16.7689 7.45606,16.7171 l 0.00133,-0.0517 0.00457,-0.0516 0.0078,-0.0511 0.011,-0.0506 0.01415,-0.0498 0.01725,-0.0488 0.02028,-0.0476 0.02323,-0.0463 0.02609,-0.0447 0.02885,-0.0429 0.03148,-0.0411 0.034,-0.039 0.03639,-0.0368 0.03863,-0.0345 0.04071,-0.032 0.04264,-0.0293 0.0444,-0.0266 0.04598,-0.0238 0.04738,-0.0208 0.0486,-0.0178 0.03504,-0.0104 -9.1e-4,-0.0026 0.67265,-0.2469 -1.1e-4,-2e-4 L 8.75176,15.661 8.78753,15.6448 8.82222,15.6264 8.85569,15.6059 8.8878,15.5833 8.91843,15.5587 8.94745,15.5323 8.97476,15.5041 9.00024,15.4742 9.0238,15.4428 9.04534,15.41 9.06478,15.3759 9.08203,15.3406 9.09704,15.3043 9.10973,15.2672 9.12007,15.2293 9.12801,15.1908 9.13352,15.1519 9.13658,15.1128 9.13718,15.0735 9.13531,15.0343 9.13098,14.9953 9.12421,14.9566 9.11502,14.9185 9.10345,14.8809 9.08956,14.8442 9.0735,14.8087 9.05524,14.7743 9.0347,14.7408 9.01211,14.7087 8.98754,14.678 8.9611,14.649 8.93289,14.6217 8.90302,14.5962 8.87161,14.5727 8.83878,14.5511 8.80467,14.5317 8.7694,14.5144 8.73311,14.4994 8.69596,14.4867 8.65808,14.4764 8.61963,14.4685 8.58076,14.4629 l -0.03915,-0.003 -0.03926,-6e-4 -0.03922,0.0019 -0.03902,0.0043 -0.03868,0.0068 -0.03817,0.0092 -0.03752,0.0115 -0.03672,0.0139 -0.03578,0.0162 -0.03469,0.0184 -0.02212,0.0136 -1.1e-4,-3e-4 -0.60507,0.3797 -0.00109,-0.0019 -4e-4,-6e-4 -0.03154,0.0227 -0.04383,0.0275 -0.04547,0.0248 -0.04694,0.0218 -0.04821,0.0188 -0.0493,0.0158 -0.05019,0.0126 -0.05089,0.0095 -0.05138,0.0062 -0.05167,0.003 -0.05176,-2e-4 L 7.00094,15.091 6.94962,15.0843 6.89883,15.0743 6.84875,15.0612 6.7996,15.045 6.75157,15.0257 6.70484,15.0035 6.6596,14.9783 6.61603,14.9504 6.5743,14.9197 6.53458,14.8866 6.49701,14.851 6.46176,14.8131 6.42895,14.773 6.39873,14.731 6.3712,14.6872 6.34648,14.6417 6.32466,14.5948 6.30583,14.5466 6.29007,14.4973 6.27743,14.4471 6.26797,14.3962 6.26173,14.3448 6.25872,14.2931 l 2.4e-4,-0.0517 0.00349,-0.0517 0.00673,-0.0513 0.00994,-0.0508 0.0131,-0.0501 0.01623,-0.0491 0.01928,-0.048 0.02225,-0.0468 0.02515,-0.0452 0.02794,-0.0436 0.03062,-0.0417 0.03318,-0.0397 0.02672,-0.0282 -5.3e-4,-5e-4 L 6.49135,13.6934 6.94903,13.1449 6.94881,13.1448 6.96523,13.1247 6.98812,13.0928 7.00897,13.0595 7.02769,13.025 7.0442,12.9894 7.05844,12.9528 7.07036,12.9154 7.0799,12.8773 7.08704,12.8387 7.09173,12.7997 7.09397,12.7605 7.09374,12.7212 7.09105,12.6821 7.08591,12.6431 7.07833,12.6046 7.06834,12.5666 7.05599,12.5294 7.04133,12.4929 7.02441,12.4575 7.00529,12.4232 6.98406,12.3902 6.9608,12.3586 6.9356,12.3285 6.90855,12.3 6.87978,12.2733 6.84938,12.2484 6.81771,12.2257 6.78468,12.205 6.75017,12.1863 6.71454,12.1698 6.67795,12.1555 6.64054,12.1436 6.60246,12.1341 6.56385,12.1269 6.52486,12.1222 6.48567,12.12 l -0.03927,2e-4 -0.03917,0.0027 -0.03892,0.0052 -0.03853,0.0075 -0.03797,0.01 -0.03727,0.0124 -0.03642,0.0146 -0.03543,0.017 -0.0343,0.0191 -0.03303,0.0212 -0.03163,0.0233 -0.03011,0.0252 -0.02846,0.027 -0.02671,0.0288 -0.02486,0.0304 -0.02289,0.0319 -0.02085,0.0333 -0.01237,0.0228 -2.2e-4,-2e-4 -0.3352,0.6333 -0.00244,-0.0012 -0.01502,0.0333 -0.02419,0.0457 -0.02703,0.0442 -0.02973,0.0424 -0.03234,0.0404 -0.03482,0.0383 -0.03715,0.036 -0.03933,0.0336 -0.04138,0.0311 -0.04324,0.0285 -0.04495,0.0256 -0.04647,0.0228 -0.0478,0.0199 -0.04896,0.0168 -0.04992,0.0137 -0.05068,0.0105 -0.05123,0.0073 -0.0516,0.0041 -0.05175,8e-4 L 4.76033,13.5771 4.70888,13.5715 4.65788,13.5626 4.60755,13.5505 4.55807,13.5354 4.50964,13.5171 4.46246,13.4958 4.4167,13.4716 4.37256,13.4446 4.33019,13.4149 4.28978,13.3825 4.25148,13.3477 4.21544,13.3106 4.1818,13.2712 4.15071,13.2298 4.12226,13.1866 4.0966,13.1417 4.0738,13.0952 4.05397,13.0474 4.03717,12.9984 4.02349,12.9485 4.01297,12.8978 4.00564,12.8466 4.00156,12.795 4.00071,12.7432 4.00312,12.6915 4.00878,12.6401 4.01765,12.5891 4.02616,12.5535 4.02346,12.5531 4.14598,11.8471 4.14572,11.847 4.1499,11.8214 4.15378,11.7824 4.15519,11.7431 4.15414,11.7039 4.15063,11.6648 4.14467,11.626 4.13629,11.5876 4.12551,11.5498 4.11238,11.5128 4.09696,11.4767 4.0793,11.4417 4.05947,11.4078 4.03755,11.3752 4.01363,11.3441 3.98781,11.3145 3.96017,11.2866 3.93084,11.2605 3.89993,11.2363 3.86756,11.2141 3.83386,11.1939 3.79896,11.1759 3.763,11.1602 3.72612,11.1467 3.68847,11.1356 3.65019,11.1268 3.61144,11.1205 3.57265,11.1166 3.5337,11.1152 3.49445,11.1163 3.45534,11.1198 3.41653,11.1258 3.37817,11.1341 3.34042,11.1449 3.30341,11.158 3.26731,11.1735 3.23224,11.1911 3.19835,11.211 3.16577,11.2329 3.13464,11.2568 3.10506,11.2826 3.07717,11.3103 3.05107,11.3396 3.02686,11.3705 3.00464,11.4029 2.98449,11.4366 2.9665,11.4715 2.95074,11.5074 2.93727,11.5443 2.92614,11.582 2.91739,11.6202 2.91107,11.659 l -0.00388,0.0391 -0.00142,0.0392 7e-4,0.0259 H 2.9062 l 0.02635,0.7161 -0.00273,10e-5 0.00365,0.0364 0.00192,0.0517 -0.00132,0.0517 -0.00458,0.0516 -0.0078,0.0512 -0.011,0.0505 -0.01415,0.0498 -0.01725,0.0488 -0.02028,0.0476 -0.02323,0.0463 -0.02609,0.0447 -0.02884,0.043 -0.03149,0.0411 -0.034,0.039 L 2.67897,13.1696 2.64034,13.204 2.59963,13.236 2.55699,13.2653 2.51259,13.2919 2.46661,13.3157 2.41923,13.3365 2.37064,13.3544 2.32102,13.3691 2.27057,13.3807 2.2195,13.3891 2.168,13.3942 2.11627,13.3961 2.06453,13.3948 2.01298,13.3902 1.96181,13.3824 1.91123,13.3714 1.86145,13.3573 1.81265,13.34 1.76503,13.3198 1.71877,13.2965 1.67407,13.2704 1.6311,13.2416 1.59002,13.2101 1.55099,13.1761 1.51418,13.1397 1.47973,13.1011 1.44777,13.0604 1.41843,13.0177 1.39183,12.9733 1.36807,12.9274 1.34723,12.88 1.32942,12.8314 1.31902,12.7963 1.31644,12.7973 1.06955,12.1246 1.06931,12.1247 1.06012,12.1005 1.04395,12.0647 1.02555,12.03 1.00502,11.9965 0.982427,11.9644 0.957861,11.9338 0.93142,11.9048 0.903209,11.8774 0.873339,11.852 0.841927,11.8284 0.8091,11.8069 0.774983,11.7874 0.739714,11.7702 0.703431,11.7552 0.666278,11.7425 0.6284,11.7321 0.589948,11.7242 0.551073,11.7187 0.511929,11.7156 0.472671,11.715 0.433451,11.7169 0.394427,11.7212 0.355752,11.728 0.317579,11.7372 0.280057,11.7488 0.243336,11.7627 0.207818,11.7787 0.17338,11.797 l -0.033467,0.0205 -0.032111,0.0226 -0.0306286,0.0246 -0.0290261,0.0264 -0.0273088,0.0282 -0.02548348,0.0299 -0.02355712,0.0314 -0.0215381,0.0328 -0.0194353,0.0341 -0.017254,0.0353 -0.0150055,0.0363 -0.012698,0.0371 -0.01034,0.0379 -0.007941,0.0385 -0.005511,0.0389 -0.003059,0.0391 -5.95e-4,0.0393 0.001871,0.0392 0.00433,0.039 0.006771,0.0387 0.009187,0.0381 0.011566,0.0376 0.0138982,0.0367 0.016177,0.0358 0.0183916,0.0347 0.0135709,0.0221 -2.389e-4,1e-4 0.3796702,0.6051 -0.001873,0.0011 -5.93e-4,3e-4 0.022687,0.0316 0.027529,0.0438 0.024722,0.0455 0.021818,0.0469 0.018827,0.0482 0.015763,0.0493 0.012638,0.0502 0.00946,0.0509 0.006245,0.0514 0.003009,0.0517 -2.44e-4,0.0517 -0.003492,0.0517 -0.006727,0.0513 -0.009937,0.0508 -0.013106,0.0501 -0.016225,0.0491 -0.01928,0.048 -0.022257,0.0468 -0.025147,0.0452 -0.027938,0.0436 -0.030619,0.0417 -0.033179,0.0397 -0.035607,0.0376 -0.037897,0.0352 -0.040035,0.0329 -0.042015,0.0302 -0.0438307,0.0275 -0.0454727,0.0247 -0.04693575,0.0218 -0.04821225,0.0189 -0.0493006,0.0157 -0.050191,0.0127 -0.050887,0.0094 -0.05138,0.0063 -0.051671,0.003 -0.051759,-3e-4 -0.051641,-0.0034 -0.051318,-0.0068 -0.050796,-0.0099 -0.050072,-0.0131 -0.049149,-0.0162 -0.048035,-0.0193 -0.046728,-0.0223 -0.04524,-0.0251 -0.04357,-0.028 -0.04173,-0.0306 -0.039726,-0.0332 -0.028195,-0.0267 -4.75e-4,5e-4 -0.001338,0.0018 -0.548439,-0.4577 -1.5e-4,2e-4 -0.02009,-0.0164 -0.0319,-0.0229 -0.03327,-0.0209 -0.03452,-0.0187 -0.03562,-0.0165 -0.03659,-0.0142 -0.03741,-0.012 -0.03809,-0.0095 -0.0386,-0.0071 -0.03899,-0.0047 -0.0392,-0.0023 -0.03926,3e-4 -0.03917,0.0027 -0.03892,0.0051 -0.03853,0.0076 -0.03797,0.01 -0.03727,0.0123 -0.03643,0.0147 -0.03542,0.0169 -0.0343,0.0191 -0.03303,0.0212 -0.03163,0.0233 -0.03011,0.0252 -0.02846,0.0271 -0.02672,0.0287 -0.02485,0.0304 -0.02273,0.0317 -0.02069,0.033 -0.01872,0.0345 -0.01651,0.0357 -0.01424,0.0366 -0.01192,0.0374 -0.00955,0.0381 -0.00713,0.0386 -0.0047,0.0389 -0.00223,0.0392 2.2e-4,0.0393 0.0027,0.0392 0.00514,0.0389 0.00758,0.0385 0.00999,0.038 0.01234,0.0373 0.01467,0.0364 0.01692,0.0354 0.01912,0.0343 0.02123,0.033 0.02326,0.0317 0.0252,0.0301 0.02704,0.0285 0.02878,0.0267 0.0304,0.0248 0.03189,0.0229 0.03328,0.0209 0.02281,0.0123 -1.5e-4,2e-4 0.63329,0.3352 -0.00125,0.0025 0.03332,0.015 0.04576,0.0242 0.04415,0.027 0.04236,0.0298 0.04041,0.0323 0.0383,0.0348 0.03604,0.0372 0.03364,0.0393 0.0311,0.0414 0.02844,0.0432 0.02567,0.045 0.02279,0.0464 0.01984,0.0478 0.01679,0.049 0.01368,0.0499 0.01053,0.0507 0.00732,0.0512 0.00409,0.0516 8.4e-4,0.0518 -0.00241,0.0517 -0.00565,0.0514 -0.00887,0.051 -0.01206,0.0504 -0.01519,0.0494 -0.01827,0.0485 -0.02127,0.0471 -0.0242,0.0458 -0.02702,0.0442 -0.02974,0.0423 -0.03234,0.0404 -0.03481,0.0383 -0.03715,0.0361 -0.03934,0.0336 -0.04137,0.0311 -0.04325,0.0284 -0.04494,0.0257 -0.04647,0.0228 -0.04781,0.0198 -0.04896,0.0168 -0.04991,0.0137 -0.05068,0.0105 -0.05124,0.0074 -0.05159,0.0041 -0.05176,8e-4 -0.0517,-0.0024 -0.05145,-0.0057 -0.05099,-0.0088 -0.03556,-0.0086 -4.4e-4,0.0027 -0.70603,-0.1225 -2e-5,3e-4 -0.02561,-0.0042 -0.03907,-0.0039 -0.03924,-0.0014 -0.03925,0.0011 -0.0391,0.0035 -0.03881,0.0059 -0.03836,0.0084 -0.03776,0.0108 -0.037,0.0131 -0.03611,0.0154 -0.03506,0.0177 -0.03389,0.0198 -0.03258,0.022 -0.03114,0.0239 -0.02957,0.0258 -0.02789,0.0276 -0.02611,0.0294 -0.02421,0.0309 -0.02222,0.0323 -0.02014,0.0337 -0.01799,0.0349 -0.01576,0.036 -0.01348,0.0369 -0.01113,0.0376 -0.00874,0.0383 -0.00633,0.0388 -0.00385,0.0388 z"
     id="path18838"
     style="stroke:#ff0000;fill:none" />
</svg>
