<?xml version="1.0" standalone="no"?>
<!DOCTYPE svg PUBLIC "-//W3C//DTD SVG 1.1//EN" "http://www.w3.org/Graphics/SVG/1.1/DTD/svg11.dtd">
<svg width="52mm" height="45mm" viewBox="-1 -24 52 45" xmlns="http://www.w3.org/2000/svg" version="1.1">
<title>OpenSCAD Model</title>
<path d="
M -1,-0 L -0.951056,0.309016 L -0.809016,0.587785 L -0.587785,0.809016 L -0.309016,0.951056 L 0,1
 L 0.309016,0.951056 L 0.587785,0.809016 L 0.809016,0.587785 L 0.951056,0.309016 L 1,-0 L 0.951056,-0.309016
 L 0.809016,-0.587785 L 0.587785,-0.809016 L 0.309016,-0.951056 L 0,-1 L -0.309016,-0.951056 L -0.587785,-0.809016
 L -0.809016,-0.587785 L -0.951056,-0.309016 z
M 2.12567,17.7265 L 2.17461,18.0356 L 2.31665,18.3143 L 2.53788,18.5356 L 2.81665,18.6776 L 3.12567,18.7265
 L 3.43468,18.6776 L 3.71345,18.5356 L 3.93468,18.3143 L 4.07672,18.0356 L 4.12567,17.7265 L 4.07672,17.4175
 L 3.93468,17.1388 L 3.71345,16.9175 L 3.43468,16.7755 L 3.12567,16.7265 L 2.81665,16.7755 L 2.53788,16.9175
 L 2.31665,17.1388 L 2.17461,17.4175 z
M 5.62664,-18.2065 L 5.67558,-17.8975 L 5.81762,-17.6188 L 6.03885,-17.3975 L 6.31762,-17.2555 L 6.62664,-17.2065
 L 6.93566,-17.2555 L 7.21443,-17.3975 L 7.43566,-17.6188 L 7.5777,-17.8975 L 7.62664,-18.2065 L 7.5777,-18.5156
 L 7.43566,-18.7943 L 7.21443,-19.0156 L 6.93566,-19.1576 L 6.62664,-19.2065 L 6.31762,-19.1576 L 6.03885,-19.0156
 L 5.81762,-18.7943 L 5.67558,-18.5156 z
M 26.071,19.3458 L 26.1199,19.6548 L 26.262,19.9336 L 26.4832,20.1548 L 26.762,20.2969 L 27.071,20.3458
 L 27.38,20.2969 L 27.6588,20.1548 L 27.88,19.9336 L 28.022,19.6548 L 28.071,19.3458 L 28.022,19.0368
 L 27.88,18.758 L 27.6588,18.5368 L 27.38,18.3947 L 27.071,18.3458 L 26.762,18.3947 L 26.4832,18.5368
 L 26.262,18.758 L 26.1199,19.0368 z
M 28.3308,-22.5981 L 28.3798,-22.2891 L 28.5218,-22.0103 L 28.743,-21.7891 L 29.0218,-21.6471 L 29.3308,-21.5981
 L 29.6398,-21.6471 L 29.9186,-21.7891 L 30.1398,-22.0103 L 30.2819,-22.2891 L 30.3308,-22.5981 L 30.2819,-22.9071
 L 30.1398,-23.1859 L 29.9186,-23.4071 L 29.6398,-23.5492 L 29.3308,-23.5981 L 29.0218,-23.5492 L 28.743,-23.4071
 L 28.5218,-23.1859 L 28.3798,-22.9071 z
M 49,-0 L 49.0489,0.309016 L 49.191,0.587785 L 49.4122,0.809016 L 49.691,0.951056 L 50,1
 L 50.309,0.951056 L 50.5878,0.809016 L 50.809,0.587785 L 50.9511,0.309016 L 51,-0 L 50.9511,-0.309016
 L 50.809,-0.587785 L 50.5878,-0.809016 L 50.309,-0.951056 L 50,-1 L 49.691,-0.951056 L 49.4122,-0.809016
 L 49.191,-0.587785 L 49.0489,-0.309016 z
" stroke="black" fill="lightgray" stroke-width="0.5"/>
</svg>
